solid OpenSCAD_Model
  facet normal -0.994522 -0.104529 0
    outer loop
      vertex 4 15.5 0
      vertex 3.91259 16.3316 5
      vertex 3.91259 16.3316 0
    endloop
  endfacet
  facet normal -0.994522 -0.104529 0
    outer loop
      vertex 3.91259 16.3316 5
      vertex 4 15.5 0
      vertex 4 15.5 5
    endloop
  endfacet
  facet normal 0 -1 0
    outer loop
      vertex -0.418114 19.4781 0
      vertex 0.418114 19.4781 5
      vertex -0.418114 19.4781 5
    endloop
  endfacet
  facet normal 0 -1 -0
    outer loop
      vertex 0.418114 19.4781 5
      vertex -0.418114 19.4781 0
      vertex 0.418114 19.4781 0
    endloop
  endfacet
  facet normal 0 1 -0
    outer loop
      vertex 0.418114 11.5219 0
      vertex -0.418114 11.5219 5
      vertex 0.418114 11.5219 5
    endloop
  endfacet
  facet normal 0 1 0
    outer loop
      vertex -0.418114 11.5219 5
      vertex 0.418114 11.5219 0
      vertex -0.418114 11.5219 0
    endloop
  endfacet
  facet normal -0.743145 -0.66913 0
    outer loop
      vertex 3.23607 17.8511 0
      vertex 2.67652 18.4726 5
      vertex 2.67652 18.4726 0
    endloop
  endfacet
  facet normal -0.743145 -0.66913 0
    outer loop
      vertex 2.67652 18.4726 5
      vertex 3.23607 17.8511 0
      vertex 3.23607 17.8511 5
    endloop
  endfacet
  facet normal 0.743145 -0.66913 0
    outer loop
      vertex -3.23607 17.8511 5
      vertex -2.67652 18.4726 0
      vertex -2.67652 18.4726 5
    endloop
  endfacet
  facet normal 0.743145 -0.66913 0
    outer loop
      vertex -2.67652 18.4726 0
      vertex -3.23607 17.8511 5
      vertex -3.23607 17.8511 0
    endloop
  endfacet
  facet normal 0.406739 -0.913545 0
    outer loop
      vertex -2 18.9641 0
      vertex -1.23607 19.3042 5
      vertex -2 18.9641 5
    endloop
  endfacet
  facet normal 0.406739 -0.913545 0
    outer loop
      vertex -1.23607 19.3042 5
      vertex -2 18.9641 0
      vertex -1.23607 19.3042 0
    endloop
  endfacet
  facet normal -0.866026 0.5 0
    outer loop
      vertex 3.23607 13.1489 0
      vertex 3.65418 13.8731 5
      vertex 3.65418 13.8731 0
    endloop
  endfacet
  facet normal -0.866026 0.5 0
    outer loop
      vertex 3.65418 13.8731 5
      vertex 3.23607 13.1489 0
      vertex 3.23607 13.1489 5
    endloop
  endfacet
  facet normal -0.866026 -0.499999 0
    outer loop
      vertex 3.65418 17.1269 0
      vertex 3.23607 17.8511 5
      vertex 3.23607 17.8511 0
    endloop
  endfacet
  facet normal -0.866026 -0.499999 0
    outer loop
      vertex 3.23607 17.8511 5
      vertex 3.65418 17.1269 0
      vertex 3.65418 17.1269 5
    endloop
  endfacet
  facet normal -0.951056 -0.309017 0
    outer loop
      vertex 3.91259 16.3316 0
      vertex 3.65418 17.1269 5
      vertex 3.65418 17.1269 0
    endloop
  endfacet
  facet normal -0.951056 -0.309017 0
    outer loop
      vertex 3.65418 17.1269 5
      vertex 3.91259 16.3316 0
      vertex 3.91259 16.3316 5
    endloop
  endfacet
  facet normal -0.406738 -0.913545 0
    outer loop
      vertex 1.23607 19.3042 0
      vertex 2 18.9641 5
      vertex 1.23607 19.3042 5
    endloop
  endfacet
  facet normal -0.406738 -0.913545 -0
    outer loop
      vertex 2 18.9641 5
      vertex 1.23607 19.3042 0
      vertex 2 18.9641 0
    endloop
  endfacet
  facet normal -0.207913 -0.978147 0
    outer loop
      vertex 0.418114 19.4781 0
      vertex 1.23607 19.3042 5
      vertex 0.418114 19.4781 5
    endloop
  endfacet
  facet normal -0.207913 -0.978147 -0
    outer loop
      vertex 1.23607 19.3042 5
      vertex 0.418114 19.4781 0
      vertex 1.23607 19.3042 0
    endloop
  endfacet
  facet normal -0.587783 -0.809018 0
    outer loop
      vertex 2 18.9641 0
      vertex 2.67652 18.4726 5
      vertex 2 18.9641 5
    endloop
  endfacet
  facet normal -0.587783 -0.809018 -0
    outer loop
      vertex 2.67652 18.4726 5
      vertex 2 18.9641 0
      vertex 2.67652 18.4726 0
    endloop
  endfacet
  facet normal 0.951056 -0.309017 0
    outer loop
      vertex -3.91259 16.3316 5
      vertex -3.65418 17.1269 0
      vertex -3.65418 17.1269 5
    endloop
  endfacet
  facet normal 0.951056 -0.309017 0
    outer loop
      vertex -3.65418 17.1269 0
      vertex -3.91259 16.3316 5
      vertex -3.91259 16.3316 0
    endloop
  endfacet
  facet normal 0 0 -1
    outer loop
      vertex 3.23607 -13.1489 0
      vertex 7 -15.5 0
      vertex 3.65418 -13.8731 0
    endloop
  endfacet
  facet normal -0 0 -1
    outer loop
      vertex 7 15.5 0
      vertex 3.91259 14.6684 0
      vertex 4 15.5 0
    endloop
  endfacet
  facet normal 0 0 -1
    outer loop
      vertex 2.67652 -12.5274 0
      vertex 7 -15.5 0
      vertex 3.23607 -13.1489 0
    endloop
  endfacet
  facet normal 0 0 -1
    outer loop
      vertex 7 15.5 0
      vertex 3.65418 13.8731 0
      vertex 3.91259 14.6684 0
    endloop
  endfacet
  facet normal 0 0 -1
    outer loop
      vertex 7 -15.5 0
      vertex 2.67652 -12.5274 0
      vertex 7 15.5 0
    endloop
  endfacet
  facet normal 0 0 -1
    outer loop
      vertex 7 15.5 0
      vertex 3.23607 13.1489 0
      vertex 3.65418 13.8731 0
    endloop
  endfacet
  facet normal 0 0 -1
    outer loop
      vertex 2.67652 12.5274 0
      vertex 7 15.5 0
      vertex 2.67652 -12.5274 0
    endloop
  endfacet
  facet normal 0 0 -1
    outer loop
      vertex 7 15.5 0
      vertex 2.67652 12.5274 0
      vertex 3.23607 13.1489 0
    endloop
  endfacet
  facet normal 0 0 -1
    outer loop
      vertex 2 -12.0359 0
      vertex 2.67652 12.5274 0
      vertex 2.67652 -12.5274 0
    endloop
  endfacet
  facet normal 0 0 -1
    outer loop
      vertex 2 -12.0359 0
      vertex 2 12.0359 0
      vertex 2.67652 12.5274 0
    endloop
  endfacet
  facet normal 0 0 -1
    outer loop
      vertex 1.23607 -11.6958 0
      vertex 2 12.0359 0
      vertex 2 -12.0359 0
    endloop
  endfacet
  facet normal 0 0 -1
    outer loop
      vertex 1.23607 -11.6958 0
      vertex 1.23607 11.6958 0
      vertex 2 12.0359 0
    endloop
  endfacet
  facet normal 0 0 -1
    outer loop
      vertex 0.418114 -11.5219 0
      vertex 1.23607 11.6958 0
      vertex 1.23607 -11.6958 0
    endloop
  endfacet
  facet normal 0 0 -1
    outer loop
      vertex 0.418114 -11.5219 0
      vertex 0.418114 11.5219 0
      vertex 1.23607 11.6958 0
    endloop
  endfacet
  facet normal 0 0 -1
    outer loop
      vertex -0.418114 -11.5219 0
      vertex 0.418114 11.5219 0
      vertex 0.418114 -11.5219 0
    endloop
  endfacet
  facet normal 0 0 -1
    outer loop
      vertex -0.418114 -11.5219 0
      vertex -0.418114 11.5219 0
      vertex 0.418114 11.5219 0
    endloop
  endfacet
  facet normal 0 0 -1
    outer loop
      vertex -1.23607 -11.6958 0
      vertex -0.418114 11.5219 0
      vertex -0.418114 -11.5219 0
    endloop
  endfacet
  facet normal 0 0 -1
    outer loop
      vertex -1.23607 -11.6958 0
      vertex -1.23607 11.6958 0
      vertex -0.418114 11.5219 0
    endloop
  endfacet
  facet normal 0 0 -1
    outer loop
      vertex -2 -12.0359 0
      vertex -1.23607 11.6958 0
      vertex -1.23607 -11.6958 0
    endloop
  endfacet
  facet normal 0 0 -1
    outer loop
      vertex -2 -12.0359 0
      vertex -2 12.0359 0
      vertex -1.23607 11.6958 0
    endloop
  endfacet
  facet normal 0 0 -1
    outer loop
      vertex -22 0 0
      vertex -2 -12.0359 0
      vertex -2.67652 -12.5274 0
    endloop
  endfacet
  facet normal 0 0 -1
    outer loop
      vertex -2 -12.0359 0
      vertex -22 0 0
      vertex -2 12.0359 0
    endloop
  endfacet
  facet normal 0 0 -1
    outer loop
      vertex -22.1748 -1.66329 0
      vertex -2.67652 -12.5274 0
      vertex -3.23607 -13.1489 0
    endloop
  endfacet
  facet normal -0 0 -1
    outer loop
      vertex -2 12.0359 0
      vertex -22 0 0
      vertex -2.67652 12.5274 0
    endloop
  endfacet
  facet normal 0 0 -1
    outer loop
      vertex -22.6916 -3.25389 0
      vertex -3.23607 -13.1489 0
      vertex -3.65418 -13.8731 0
    endloop
  endfacet
  facet normal 0 0 -1
    outer loop
      vertex -22.1748 1.66329 0
      vertex -2.67652 12.5274 0
      vertex -22 0 0
    endloop
  endfacet
  facet normal 0 0 -1
    outer loop
      vertex -23.5279 -4.70228 0
      vertex -3.65418 -13.8731 0
      vertex -3.91259 -14.6684 0
    endloop
  endfacet
  facet normal -0 0 -1
    outer loop
      vertex -2.67652 12.5274 0
      vertex -22.1748 1.66329 0
      vertex -3.23607 13.1489 0
    endloop
  endfacet
  facet normal 0 0 -1
    outer loop
      vertex -24.647 -5.94516 0
      vertex -3.91259 -14.6684 0
      vertex -4 -15.5 0
    endloop
  endfacet
  facet normal 0 0 -1
    outer loop
      vertex -22.6916 3.25389 0
      vertex -3.23607 13.1489 0
      vertex -22.1748 1.66329 0
    endloop
  endfacet
  facet normal 0 0 -1
    outer loop
      vertex 4 -15.5 0
      vertex 7 -15.5 0
      vertex 6.84703 -16.9554 0
    endloop
  endfacet
  facet normal 0 0 -1
    outer loop
      vertex 3.91259 -14.6684 0
      vertex 7 -15.5 0
      vertex 4 -15.5 0
    endloop
  endfacet
  facet normal 0 0 -1
    outer loop
      vertex 3.91259 -16.3316 0
      vertex 6.84703 -16.9554 0
      vertex 6.39482 -18.3472 0
    endloop
  endfacet
  facet normal 0 0 -1
    outer loop
      vertex 3.65418 -13.8731 0
      vertex 7 -15.5 0
      vertex 3.91259 -14.6684 0
    endloop
  endfacet
  facet normal 0 0 -1
    outer loop
      vertex 3.65418 -17.1269 0
      vertex 6.39482 -18.3472 0
      vertex 5.66312 -19.6145 0
    endloop
  endfacet
  facet normal 0 0 -1
    outer loop
      vertex 7 15.5 0
      vertex 4 15.5 0
      vertex 6.84703 16.9554 0
    endloop
  endfacet
  facet normal 0 0 -1
    outer loop
      vertex 3.23607 -17.8511 0
      vertex 5.66312 -19.6145 0
      vertex 4.68391 -20.702 0
    endloop
  endfacet
  facet normal 0 0 -1
    outer loop
      vertex 3.91259 16.3316 0
      vertex 6.84703 16.9554 0
      vertex 4 15.5 0
    endloop
  endfacet
  facet normal -0 0 -1
    outer loop
      vertex 6.84703 16.9554 0
      vertex 3.91259 16.3316 0
      vertex 6.39482 18.3472 0
    endloop
  endfacet
  facet normal 0 0 -1
    outer loop
      vertex 6.84703 -16.9554 0
      vertex 3.91259 -16.3316 0
      vertex 4 -15.5 0
    endloop
  endfacet
  facet normal 0 0 -1
    outer loop
      vertex 6.39482 -18.3472 0
      vertex 3.65418 -17.1269 0
      vertex 3.91259 -16.3316 0
    endloop
  endfacet
  facet normal 0 0 -1
    outer loop
      vertex 2.67652 -18.4726 0
      vertex 4.68391 -20.702 0
      vertex 3.5 -21.5622 0
    endloop
  endfacet
  facet normal 0 0 -1
    outer loop
      vertex 5.66312 -19.6145 0
      vertex 3.23607 -17.8511 0
      vertex 3.65418 -17.1269 0
    endloop
  endfacet
  facet normal 0 0 -1
    outer loop
      vertex 4.68391 -20.702 0
      vertex 2.67652 -18.4726 0
      vertex 3.23607 -17.8511 0
    endloop
  endfacet
  facet normal 0 0 -1
    outer loop
      vertex 2 -18.9641 0
      vertex 3.5 -21.5622 0
      vertex 2.16312 -22.1574 0
    endloop
  endfacet
  facet normal 0 0 -1
    outer loop
      vertex 3.5 -21.5622 0
      vertex 2 -18.9641 0
      vertex 2.67652 -18.4726 0
    endloop
  endfacet
  facet normal 0 0 -1
    outer loop
      vertex 2.16312 -22.1574 0
      vertex 1.23607 -19.3042 0
      vertex 2 -18.9641 0
    endloop
  endfacet
  facet normal 0 0 -1
    outer loop
      vertex 0.731699 -22.4617 0
      vertex 1.23607 -19.3042 0
      vertex 2.16312 -22.1574 0
    endloop
  endfacet
  facet normal 0 0 -1
    outer loop
      vertex 0.731699 -22.4617 0
      vertex 0.418114 -19.4781 0
      vertex 1.23607 -19.3042 0
    endloop
  endfacet
  facet normal 0 0 -1
    outer loop
      vertex 0.731699 -22.4617 0
      vertex -0.418114 -19.4781 0
      vertex 0.418114 -19.4781 0
    endloop
  endfacet
  facet normal 0 0 -1
    outer loop
      vertex -0.731699 -22.4617 0
      vertex -0.418114 -19.4781 0
      vertex 0.731699 -22.4617 0
    endloop
  endfacet
  facet normal 0 0 -1
    outer loop
      vertex -0.731699 -22.4617 0
      vertex -1.23607 -19.3042 0
      vertex -0.418114 -19.4781 0
    endloop
  endfacet
  facet normal 0 0 -1
    outer loop
      vertex -2.16312 -22.1574 0
      vertex -1.23607 -19.3042 0
      vertex -0.731699 -22.4617 0
    endloop
  endfacet
  facet normal -0 0 -1
    outer loop
      vertex -1.23607 -19.3042 0
      vertex -2.16312 -22.1574 0
      vertex -2 -18.9641 0
    endloop
  endfacet
  facet normal 0 0 -1
    outer loop
      vertex -2.16312 -22.1574 0
      vertex -2.67652 -18.4726 0
      vertex -2 -18.9641 0
    endloop
  endfacet
  facet normal 0 0 -1
    outer loop
      vertex -2.16312 -22.1574 0
      vertex -3.23607 -17.8511 0
      vertex -2.67652 -18.4726 0
    endloop
  endfacet
  facet normal 0 0 -1
    outer loop
      vertex -2.16312 -22.1574 0
      vertex -3.65418 -17.1269 0
      vertex -3.23607 -17.8511 0
    endloop
  endfacet
  facet normal 0 0 -1
    outer loop
      vertex -27.5279 -7.60845 0
      vertex -3.65418 -17.1269 0
      vertex -2.16312 -22.1574 0
    endloop
  endfacet
  facet normal -0 0 -1
    outer loop
      vertex -3.23607 13.1489 0
      vertex -22.6916 3.25389 0
      vertex -3.65418 13.8731 0
    endloop
  endfacet
  facet normal 0 0 -1
    outer loop
      vertex -24.647 -5.94516 0
      vertex -4 -15.5 0
      vertex -3.91259 -16.3316 0
    endloop
  endfacet
  facet normal 0 -0 -1
    outer loop
      vertex -26 -6.9282 0
      vertex -3.65418 -17.1269 0
      vertex -27.5279 -7.60845 0
    endloop
  endfacet
  facet normal 0 0 -1
    outer loop
      vertex -2.67652 -12.5274 0
      vertex -22.1748 -1.66329 0
      vertex -22 0 0
    endloop
  endfacet
  facet normal 0 0 -1
    outer loop
      vertex -3.23607 -13.1489 0
      vertex -22.6916 -3.25389 0
      vertex -22.1748 -1.66329 0
    endloop
  endfacet
  facet normal 0 0 -1
    outer loop
      vertex -3.65418 -13.8731 0
      vertex -23.5279 -4.70228 0
      vertex -22.6916 -3.25389 0
    endloop
  endfacet
  facet normal 0 0 -1
    outer loop
      vertex -3.91259 -14.6684 0
      vertex -24.647 -5.94516 0
      vertex -23.5279 -4.70228 0
    endloop
  endfacet
  facet normal 0 0 -1
    outer loop
      vertex -3.91259 -16.3316 0
      vertex -26 -6.9282 0
      vertex -24.647 -5.94516 0
    endloop
  endfacet
  facet normal 0 0 -1
    outer loop
      vertex -3.65418 -17.1269 0
      vertex -26 -6.9282 0
      vertex -3.91259 -16.3316 0
    endloop
  endfacet
  facet normal 0 0 -1
    outer loop
      vertex -33.3992 -10.4616 0
      vertex -27.5279 -7.60845 0
      vertex -2.16312 -22.1574 0
    endloop
  endfacet
  facet normal 0 0 -1
    outer loop
      vertex -27.5279 -7.60845 0
      vertex -33.3992 -10.4616 0
      vertex -29.1638 -7.95617 0
    endloop
  endfacet
  facet normal -0 0 -1
    outer loop
      vertex -29.1638 -7.95617 0
      vertex -33.3992 -10.4616 0
      vertex -30.8362 -7.95617 0
    endloop
  endfacet
  facet normal -0 0 -1
    outer loop
      vertex -30.8362 -7.95617 0
      vertex -33.3992 -10.4616 0
      vertex -32.4721 -7.60845 0
    endloop
  endfacet
  facet normal 0 0 -1
    outer loop
      vertex -33.3992 -10.4616 0
      vertex -34 -6.9282 0
      vertex -32.4721 -7.60845 0
    endloop
  endfacet
  facet normal 0 0 -1
    outer loop
      vertex -35.5 -9.52628 0
      vertex -34 -6.9282 0
      vertex -33.3992 -10.4616 0
    endloop
  endfacet
  facet normal -0 0 -1
    outer loop
      vertex -34 -6.9282 0
      vertex -35.5 -9.52628 0
      vertex -35.353 -5.94516 0
    endloop
  endfacet
  facet normal 0 0 -1
    outer loop
      vertex -37.3604 -8.17459 0
      vertex -35.353 -5.94516 0
      vertex -35.5 -9.52628 0
    endloop
  endfacet
  facet normal -0 0 -1
    outer loop
      vertex -35.353 -5.94516 0
      vertex -37.3604 -8.17459 0
      vertex -36.4721 -4.70228 0
    endloop
  endfacet
  facet normal 0 0 -1
    outer loop
      vertex -38.8992 -6.46564 0
      vertex -36.4721 -4.70228 0
      vertex -37.3604 -8.17459 0
    endloop
  endfacet
  facet normal -0 0 -1
    outer loop
      vertex -36.4721 -4.70228 0
      vertex -38.8992 -6.46564 0
      vertex -37.3084 -3.25389 0
    endloop
  endfacet
  facet normal 0 0 -1
    outer loop
      vertex -40.049 -4.4741 0
      vertex -37.3084 -3.25389 0
      vertex -38.8992 -6.46564 0
    endloop
  endfacet
  facet normal -0 0 -1
    outer loop
      vertex -37.3084 -3.25389 0
      vertex -40.049 -4.4741 0
      vertex -37.8252 -1.66329 0
    endloop
  endfacet
  facet normal 0 0 -1
    outer loop
      vertex 3.65418 17.1269 0
      vertex 6.39482 18.3472 0
      vertex 3.91259 16.3316 0
    endloop
  endfacet
  facet normal -0 0 -1
    outer loop
      vertex 6.39482 18.3472 0
      vertex 3.65418 17.1269 0
      vertex 5.66312 19.6145 0
    endloop
  endfacet
  facet normal 0 0 -1
    outer loop
      vertex 3.23607 17.8511 0
      vertex 5.66312 19.6145 0
      vertex 3.65418 17.1269 0
    endloop
  endfacet
  facet normal -0 0 -1
    outer loop
      vertex 5.66312 19.6145 0
      vertex 3.23607 17.8511 0
      vertex 4.68391 20.702 0
    endloop
  endfacet
  facet normal 0 0 -1
    outer loop
      vertex 2.67652 18.4726 0
      vertex 4.68391 20.702 0
      vertex 3.23607 17.8511 0
    endloop
  endfacet
  facet normal -0 0 -1
    outer loop
      vertex 4.68391 20.702 0
      vertex 2.67652 18.4726 0
      vertex 3.5 21.5622 0
    endloop
  endfacet
  facet normal 0 0 -1
    outer loop
      vertex 2 18.9641 0
      vertex 3.5 21.5622 0
      vertex 2.67652 18.4726 0
    endloop
  endfacet
  facet normal -0 0 -1
    outer loop
      vertex 3.5 21.5622 0
      vertex 2 18.9641 0
      vertex 2.16312 22.1574 0
    endloop
  endfacet
  facet normal 0 0 -1
    outer loop
      vertex 1.23607 19.3042 0
      vertex 2.16312 22.1574 0
      vertex 2 18.9641 0
    endloop
  endfacet
  facet normal 0 0 -1
    outer loop
      vertex 1.23607 19.3042 0
      vertex 0.731699 22.4617 0
      vertex 2.16312 22.1574 0
    endloop
  endfacet
  facet normal 0 0 -1
    outer loop
      vertex 0.418114 19.4781 0
      vertex 0.731699 22.4617 0
      vertex 1.23607 19.3042 0
    endloop
  endfacet
  facet normal 0 0 -1
    outer loop
      vertex -0.418114 19.4781 0
      vertex 0.731699 22.4617 0
      vertex 0.418114 19.4781 0
    endloop
  endfacet
  facet normal 0 0 -1
    outer loop
      vertex -0.418114 19.4781 0
      vertex -0.731699 22.4617 0
      vertex 0.731699 22.4617 0
    endloop
  endfacet
  facet normal 0 0 -1
    outer loop
      vertex -1.23607 19.3042 0
      vertex -0.731699 22.4617 0
      vertex -0.418114 19.4781 0
    endloop
  endfacet
  facet normal 0 0 -1
    outer loop
      vertex -2.16312 22.1574 0
      vertex -1.23607 19.3042 0
      vertex -2 18.9641 0
    endloop
  endfacet
  facet normal 0 0 -1
    outer loop
      vertex -1.23607 19.3042 0
      vertex -2.16312 22.1574 0
      vertex -0.731699 22.4617 0
    endloop
  endfacet
  facet normal 0 0 -1
    outer loop
      vertex -2.67652 18.4726 0
      vertex -2.16312 22.1574 0
      vertex -2 18.9641 0
    endloop
  endfacet
  facet normal 0 0 -1
    outer loop
      vertex -3.23607 17.8511 0
      vertex -2.16312 22.1574 0
      vertex -2.67652 18.4726 0
    endloop
  endfacet
  facet normal 0 0 -1
    outer loop
      vertex -3.65418 17.1269 0
      vertex -2.16312 22.1574 0
      vertex -3.23607 17.8511 0
    endloop
  endfacet
  facet normal 0 0 -1
    outer loop
      vertex -26 6.9282 0
      vertex -3.65418 17.1269 0
      vertex -3.91259 16.3316 0
    endloop
  endfacet
  facet normal 0 0 -1
    outer loop
      vertex -23.5279 4.70228 0
      vertex -3.65418 13.8731 0
      vertex -22.6916 3.25389 0
    endloop
  endfacet
  facet normal -0 0 -1
    outer loop
      vertex -3.65418 13.8731 0
      vertex -23.5279 4.70228 0
      vertex -3.91259 14.6684 0
    endloop
  endfacet
  facet normal 0 0 -1
    outer loop
      vertex -24.647 5.94516 0
      vertex -3.91259 14.6684 0
      vertex -23.5279 4.70228 0
    endloop
  endfacet
  facet normal -0 0 -1
    outer loop
      vertex -3.91259 14.6684 0
      vertex -24.647 5.94516 0
      vertex -4 15.5 0
    endloop
  endfacet
  facet normal -0 0 -1
    outer loop
      vertex -4 15.5 0
      vertex -24.647 5.94516 0
      vertex -3.91259 16.3316 0
    endloop
  endfacet
  facet normal 0 0 -1
    outer loop
      vertex -26 6.9282 0
      vertex -3.91259 16.3316 0
      vertex -24.647 5.94516 0
    endloop
  endfacet
  facet normal 0 0 -1
    outer loop
      vertex -3.65418 17.1269 0
      vertex -26 6.9282 0
      vertex -27.5279 7.60845 0
    endloop
  endfacet
  facet normal -0 0 -1
    outer loop
      vertex -3.65418 17.1269 0
      vertex -27.5279 7.60845 0
      vertex -2.16312 22.1574 0
    endloop
  endfacet
  facet normal 0 0 -1
    outer loop
      vertex -33.3992 10.4616 0
      vertex -27.5279 7.60845 0
      vertex -29.1638 7.95617 0
    endloop
  endfacet
  facet normal 0 0 -1
    outer loop
      vertex -33.3992 10.4616 0
      vertex -29.1638 7.95617 0
      vertex -30.8362 7.95617 0
    endloop
  endfacet
  facet normal 0 0 -1
    outer loop
      vertex -33.3992 10.4616 0
      vertex -30.8362 7.95617 0
      vertex -32.4721 7.60845 0
    endloop
  endfacet
  facet normal 0 0 -1
    outer loop
      vertex -27.5279 7.60845 0
      vertex -33.3992 10.4616 0
      vertex -2.16312 22.1574 0
    endloop
  endfacet
  facet normal 0 0 -1
    outer loop
      vertex -34 6.9282 0
      vertex -33.3992 10.4616 0
      vertex -32.4721 7.60845 0
    endloop
  endfacet
  facet normal 0 0 -1
    outer loop
      vertex -35.5 9.52628 0
      vertex -34 6.9282 0
      vertex -35.353 5.94516 0
    endloop
  endfacet
  facet normal 0 0 -1
    outer loop
      vertex -34 6.9282 0
      vertex -35.5 9.52628 0
      vertex -33.3992 10.4616 0
    endloop
  endfacet
  facet normal 0 0 -1
    outer loop
      vertex -37.3604 8.17459 0
      vertex -35.353 5.94516 0
      vertex -36.4721 4.70228 0
    endloop
  endfacet
  facet normal 0 0 -1
    outer loop
      vertex -38.8992 6.46564 0
      vertex -36.4721 4.70228 0
      vertex -37.3084 3.25389 0
    endloop
  endfacet
  facet normal 0 0 -1
    outer loop
      vertex -35.353 5.94516 0
      vertex -37.3604 8.17459 0
      vertex -35.5 9.52628 0
    endloop
  endfacet
  facet normal 0 0 -1
    outer loop
      vertex -40.049 4.4741 0
      vertex -37.3084 3.25389 0
      vertex -37.8252 1.66329 0
    endloop
  endfacet
  facet normal 0 0 -1
    outer loop
      vertex -40.7596 2.28703 0
      vertex -37.8252 1.66329 0
      vertex -38 0 0
    endloop
  endfacet
  facet normal 0 0 -1
    outer loop
      vertex -40.7596 -2.28703 0
      vertex -37.8252 -1.66329 0
      vertex -40.049 -4.4741 0
    endloop
  endfacet
  facet normal 0 0 -1
    outer loop
      vertex -36.4721 4.70228 0
      vertex -38.8992 6.46564 0
      vertex -37.3604 8.17459 0
    endloop
  endfacet
  facet normal -0 0 -1
    outer loop
      vertex -37.8252 -1.66329 0
      vertex -40.7596 -2.28703 0
      vertex -38 0 0
    endloop
  endfacet
  facet normal 0 0 -1
    outer loop
      vertex -37.3084 3.25389 0
      vertex -40.049 4.4741 0
      vertex -38.8992 6.46564 0
    endloop
  endfacet
  facet normal 0 0 -1
    outer loop
      vertex -41 0 0
      vertex -38 0 0
      vertex -40.7596 -2.28703 0
    endloop
  endfacet
  facet normal 0 0 -1
    outer loop
      vertex -37.8252 1.66329 0
      vertex -40.7596 2.28703 0
      vertex -40.049 4.4741 0
    endloop
  endfacet
  facet normal 0 0 -1
    outer loop
      vertex -38 0 0
      vertex -41 0 0
      vertex -40.7596 2.28703 0
    endloop
  endfacet
  facet normal 0.866026 -0.499999 0
    outer loop
      vertex -3.65418 17.1269 5
      vertex -3.23607 17.8511 0
      vertex -3.23607 17.8511 5
    endloop
  endfacet
  facet normal 0.866026 -0.499999 0
    outer loop
      vertex -3.23607 17.8511 0
      vertex -3.65418 17.1269 5
      vertex -3.65418 17.1269 0
    endloop
  endfacet
  facet normal 0.994522 -0.104529 0
    outer loop
      vertex -4 15.5 5
      vertex -3.91259 16.3316 0
      vertex -3.91259 16.3316 5
    endloop
  endfacet
  facet normal 0.994522 -0.104529 0
    outer loop
      vertex -3.91259 16.3316 0
      vertex -4 15.5 5
      vertex -4 15.5 0
    endloop
  endfacet
  facet normal 0 0 1
    outer loop
      vertex 3.23607 13.1489 5
      vertex 7 15.5 5
      vertex 3.65418 13.8731 5
    endloop
  endfacet
  facet normal 0 0 1
    outer loop
      vertex 7 -15.5 5
      vertex 3.91259 -14.6684 5
      vertex 4 -15.5 5
    endloop
  endfacet
  facet normal 0 0 1
    outer loop
      vertex 2.67652 12.5274 5
      vertex 7 15.5 5
      vertex 3.23607 13.1489 5
    endloop
  endfacet
  facet normal 0 0 1
    outer loop
      vertex 7 -15.5 5
      vertex 3.65418 -13.8731 5
      vertex 3.91259 -14.6684 5
    endloop
  endfacet
  facet normal 0 0 1
    outer loop
      vertex 7 15.5 5
      vertex 2.67652 12.5274 5
      vertex 7 -15.5 5
    endloop
  endfacet
  facet normal 0 0 1
    outer loop
      vertex 7 -15.5 5
      vertex 3.23607 -13.1489 5
      vertex 3.65418 -13.8731 5
    endloop
  endfacet
  facet normal -0 0 1
    outer loop
      vertex 2.67652 -12.5274 5
      vertex 7 -15.5 5
      vertex 2.67652 12.5274 5
    endloop
  endfacet
  facet normal 0 0 1
    outer loop
      vertex 7 -15.5 5
      vertex 2.67652 -12.5274 5
      vertex 3.23607 -13.1489 5
    endloop
  endfacet
  facet normal -0 0 1
    outer loop
      vertex 2 12.0359 5
      vertex 2.67652 -12.5274 5
      vertex 2.67652 12.5274 5
    endloop
  endfacet
  facet normal 0 0 1
    outer loop
      vertex 2 12.0359 5
      vertex 2 -12.0359 5
      vertex 2.67652 -12.5274 5
    endloop
  endfacet
  facet normal -0 0 1
    outer loop
      vertex 1.23607 11.6958 5
      vertex 2 -12.0359 5
      vertex 2 12.0359 5
    endloop
  endfacet
  facet normal 0 0 1
    outer loop
      vertex 1.23607 11.6958 5
      vertex 1.23607 -11.6958 5
      vertex 2 -12.0359 5
    endloop
  endfacet
  facet normal -0 0 1
    outer loop
      vertex 0.418114 11.5219 5
      vertex 1.23607 -11.6958 5
      vertex 1.23607 11.6958 5
    endloop
  endfacet
  facet normal 0 0 1
    outer loop
      vertex 0.418114 11.5219 5
      vertex 0.418114 -11.5219 5
      vertex 1.23607 -11.6958 5
    endloop
  endfacet
  facet normal -0 0 1
    outer loop
      vertex -0.418114 11.5219 5
      vertex 0.418114 -11.5219 5
      vertex 0.418114 11.5219 5
    endloop
  endfacet
  facet normal 0 0 1
    outer loop
      vertex -0.418114 11.5219 5
      vertex -0.418114 -11.5219 5
      vertex 0.418114 -11.5219 5
    endloop
  endfacet
  facet normal 0 0 1
    outer loop
      vertex -1.23607 11.6958 5
      vertex -0.418114 -11.5219 5
      vertex -0.418114 11.5219 5
    endloop
  endfacet
  facet normal 0 0 1
    outer loop
      vertex -1.23607 11.6958 5
      vertex -1.23607 -11.6958 5
      vertex -0.418114 -11.5219 5
    endloop
  endfacet
  facet normal 0 0 1
    outer loop
      vertex -2 12.0359 5
      vertex -1.23607 -11.6958 5
      vertex -1.23607 11.6958 5
    endloop
  endfacet
  facet normal 0 0 1
    outer loop
      vertex -2 12.0359 5
      vertex -2 -12.0359 5
      vertex -1.23607 -11.6958 5
    endloop
  endfacet
  facet normal 0 0 1
    outer loop
      vertex -22 0 5
      vertex -2 12.0359 5
      vertex -2.67652 12.5274 5
    endloop
  endfacet
  facet normal 0 0 1
    outer loop
      vertex -2 12.0359 5
      vertex -22 0 5
      vertex -2 -12.0359 5
    endloop
  endfacet
  facet normal 0 0 1
    outer loop
      vertex -22.1748 1.66329 5
      vertex -2.67652 12.5274 5
      vertex -3.23607 13.1489 5
    endloop
  endfacet
  facet normal 0 0 1
    outer loop
      vertex -2 -12.0359 5
      vertex -22 0 5
      vertex -2.67652 -12.5274 5
    endloop
  endfacet
  facet normal 0 0 1
    outer loop
      vertex -22.6916 3.25389 5
      vertex -3.23607 13.1489 5
      vertex -3.65418 13.8731 5
    endloop
  endfacet
  facet normal -0 0 1
    outer loop
      vertex -22.1748 -1.66329 5
      vertex -2.67652 -12.5274 5
      vertex -22 0 5
    endloop
  endfacet
  facet normal 0 0 1
    outer loop
      vertex -23.5279 4.70228 5
      vertex -3.65418 13.8731 5
      vertex -3.91259 14.6684 5
    endloop
  endfacet
  facet normal 0 0 1
    outer loop
      vertex -2.67652 -12.5274 5
      vertex -22.1748 -1.66329 5
      vertex -3.23607 -13.1489 5
    endloop
  endfacet
  facet normal 0 0 1
    outer loop
      vertex -24.647 5.94516 5
      vertex -3.91259 14.6684 5
      vertex -4 15.5 5
    endloop
  endfacet
  facet normal -0 0 1
    outer loop
      vertex -22.6916 -3.25389 5
      vertex -3.23607 -13.1489 5
      vertex -22.1748 -1.66329 5
    endloop
  endfacet
  facet normal 0 0 1
    outer loop
      vertex 4 15.5 5
      vertex 7 15.5 5
      vertex 6.84703 16.9554 5
    endloop
  endfacet
  facet normal 0 0 1
    outer loop
      vertex 3.91259 14.6684 5
      vertex 7 15.5 5
      vertex 4 15.5 5
    endloop
  endfacet
  facet normal 0 0 1
    outer loop
      vertex 3.91259 16.3316 5
      vertex 6.84703 16.9554 5
      vertex 6.39482 18.3472 5
    endloop
  endfacet
  facet normal 0 0 1
    outer loop
      vertex 3.65418 13.8731 5
      vertex 7 15.5 5
      vertex 3.91259 14.6684 5
    endloop
  endfacet
  facet normal 0 0 1
    outer loop
      vertex 3.65418 17.1269 5
      vertex 6.39482 18.3472 5
      vertex 5.66312 19.6145 5
    endloop
  endfacet
  facet normal 0 0 1
    outer loop
      vertex 7 -15.5 5
      vertex 4 -15.5 5
      vertex 6.84703 -16.9554 5
    endloop
  endfacet
  facet normal 0 0 1
    outer loop
      vertex 3.23607 17.8511 5
      vertex 5.66312 19.6145 5
      vertex 4.68391 20.702 5
    endloop
  endfacet
  facet normal -0 0 1
    outer loop
      vertex 3.91259 -16.3316 5
      vertex 6.84703 -16.9554 5
      vertex 4 -15.5 5
    endloop
  endfacet
  facet normal 0 0 1
    outer loop
      vertex 6.84703 -16.9554 5
      vertex 3.91259 -16.3316 5
      vertex 6.39482 -18.3472 5
    endloop
  endfacet
  facet normal 0 0 1
    outer loop
      vertex 6.84703 16.9554 5
      vertex 3.91259 16.3316 5
      vertex 4 15.5 5
    endloop
  endfacet
  facet normal 0 0 1
    outer loop
      vertex 6.39482 18.3472 5
      vertex 3.65418 17.1269 5
      vertex 3.91259 16.3316 5
    endloop
  endfacet
  facet normal 0 0 1
    outer loop
      vertex 2.67652 18.4726 5
      vertex 4.68391 20.702 5
      vertex 3.5 21.5622 5
    endloop
  endfacet
  facet normal 0 0 1
    outer loop
      vertex 5.66312 19.6145 5
      vertex 3.23607 17.8511 5
      vertex 3.65418 17.1269 5
    endloop
  endfacet
  facet normal 0 0 1
    outer loop
      vertex 4.68391 20.702 5
      vertex 2.67652 18.4726 5
      vertex 3.23607 17.8511 5
    endloop
  endfacet
  facet normal 0 0 1
    outer loop
      vertex 2 18.9641 5
      vertex 3.5 21.5622 5
      vertex 2.16312 22.1574 5
    endloop
  endfacet
  facet normal 0 0 1
    outer loop
      vertex 3.5 21.5622 5
      vertex 2 18.9641 5
      vertex 2.67652 18.4726 5
    endloop
  endfacet
  facet normal 0 0 1
    outer loop
      vertex 2.16312 22.1574 5
      vertex 1.23607 19.3042 5
      vertex 2 18.9641 5
    endloop
  endfacet
  facet normal 0 0 1
    outer loop
      vertex 0.731699 22.4617 5
      vertex 1.23607 19.3042 5
      vertex 2.16312 22.1574 5
    endloop
  endfacet
  facet normal 0 0 1
    outer loop
      vertex 0.731699 22.4617 5
      vertex 0.418114 19.4781 5
      vertex 1.23607 19.3042 5
    endloop
  endfacet
  facet normal 0 0 1
    outer loop
      vertex 0.731699 22.4617 5
      vertex -0.418114 19.4781 5
      vertex 0.418114 19.4781 5
    endloop
  endfacet
  facet normal -0 0 1
    outer loop
      vertex -0.731699 22.4617 5
      vertex -0.418114 19.4781 5
      vertex 0.731699 22.4617 5
    endloop
  endfacet
  facet normal 0 0 1
    outer loop
      vertex -0.731699 22.4617 5
      vertex -1.23607 19.3042 5
      vertex -0.418114 19.4781 5
    endloop
  endfacet
  facet normal -0 0 1
    outer loop
      vertex -2.16312 22.1574 5
      vertex -1.23607 19.3042 5
      vertex -0.731699 22.4617 5
    endloop
  endfacet
  facet normal 0 0 1
    outer loop
      vertex -1.23607 19.3042 5
      vertex -2.16312 22.1574 5
      vertex -2 18.9641 5
    endloop
  endfacet
  facet normal 0 0 1
    outer loop
      vertex -2.16312 22.1574 5
      vertex -2.67652 18.4726 5
      vertex -2 18.9641 5
    endloop
  endfacet
  facet normal 0 0 1
    outer loop
      vertex -2.16312 22.1574 5
      vertex -3.23607 17.8511 5
      vertex -2.67652 18.4726 5
    endloop
  endfacet
  facet normal 0 0 1
    outer loop
      vertex -2.16312 22.1574 5
      vertex -3.65418 17.1269 5
      vertex -3.23607 17.8511 5
    endloop
  endfacet
  facet normal 0 0 1
    outer loop
      vertex -27.5279 7.60845 5
      vertex -3.65418 17.1269 5
      vertex -2.16312 22.1574 5
    endloop
  endfacet
  facet normal 0 0 1
    outer loop
      vertex -3.23607 -13.1489 5
      vertex -22.6916 -3.25389 5
      vertex -3.65418 -13.8731 5
    endloop
  endfacet
  facet normal 0 0 1
    outer loop
      vertex -24.647 5.94516 5
      vertex -4 15.5 5
      vertex -3.91259 16.3316 5
    endloop
  endfacet
  facet normal 0 -0 1
    outer loop
      vertex -26 6.9282 5
      vertex -3.65418 17.1269 5
      vertex -27.5279 7.60845 5
    endloop
  endfacet
  facet normal 0 0 1
    outer loop
      vertex -2.67652 12.5274 5
      vertex -22.1748 1.66329 5
      vertex -22 0 5
    endloop
  endfacet
  facet normal 0 0 1
    outer loop
      vertex -3.23607 13.1489 5
      vertex -22.6916 3.25389 5
      vertex -22.1748 1.66329 5
    endloop
  endfacet
  facet normal 0 0 1
    outer loop
      vertex -3.65418 13.8731 5
      vertex -23.5279 4.70228 5
      vertex -22.6916 3.25389 5
    endloop
  endfacet
  facet normal 0 0 1
    outer loop
      vertex -3.91259 14.6684 5
      vertex -24.647 5.94516 5
      vertex -23.5279 4.70228 5
    endloop
  endfacet
  facet normal 0 0 1
    outer loop
      vertex -3.91259 16.3316 5
      vertex -26 6.9282 5
      vertex -24.647 5.94516 5
    endloop
  endfacet
  facet normal 0 0 1
    outer loop
      vertex -3.65418 17.1269 5
      vertex -26 6.9282 5
      vertex -3.91259 16.3316 5
    endloop
  endfacet
  facet normal -0 0 1
    outer loop
      vertex -33.3992 10.4616 5
      vertex -27.5279 7.60845 5
      vertex -2.16312 22.1574 5
    endloop
  endfacet
  facet normal 0 0 1
    outer loop
      vertex -27.5279 7.60845 5
      vertex -33.3992 10.4616 5
      vertex -29.1638 7.95617 5
    endloop
  endfacet
  facet normal 0 0 1
    outer loop
      vertex -29.1638 7.95617 5
      vertex -33.3992 10.4616 5
      vertex -30.8362 7.95617 5
    endloop
  endfacet
  facet normal 0 0 1
    outer loop
      vertex -30.8362 7.95617 5
      vertex -33.3992 10.4616 5
      vertex -32.4721 7.60845 5
    endloop
  endfacet
  facet normal 0 0 1
    outer loop
      vertex -33.3992 10.4616 5
      vertex -34 6.9282 5
      vertex -32.4721 7.60845 5
    endloop
  endfacet
  facet normal -0 0 1
    outer loop
      vertex -35.5 9.52628 5
      vertex -34 6.9282 5
      vertex -33.3992 10.4616 5
    endloop
  endfacet
  facet normal 0 0 1
    outer loop
      vertex -34 6.9282 5
      vertex -35.5 9.52628 5
      vertex -35.353 5.94516 5
    endloop
  endfacet
  facet normal -0 0 1
    outer loop
      vertex -37.3604 8.17459 5
      vertex -35.353 5.94516 5
      vertex -35.5 9.52628 5
    endloop
  endfacet
  facet normal 0 0 1
    outer loop
      vertex -35.353 5.94516 5
      vertex -37.3604 8.17459 5
      vertex -36.4721 4.70228 5
    endloop
  endfacet
  facet normal -0 0 1
    outer loop
      vertex -38.8992 6.46564 5
      vertex -36.4721 4.70228 5
      vertex -37.3604 8.17459 5
    endloop
  endfacet
  facet normal 0 0 1
    outer loop
      vertex -36.4721 4.70228 5
      vertex -38.8992 6.46564 5
      vertex -37.3084 3.25389 5
    endloop
  endfacet
  facet normal -0 0 1
    outer loop
      vertex -40.049 4.4741 5
      vertex -37.3084 3.25389 5
      vertex -38.8992 6.46564 5
    endloop
  endfacet
  facet normal 0 0 1
    outer loop
      vertex -37.3084 3.25389 5
      vertex -40.049 4.4741 5
      vertex -37.8252 1.66329 5
    endloop
  endfacet
  facet normal -0 0 1
    outer loop
      vertex 3.65418 -17.1269 5
      vertex 6.39482 -18.3472 5
      vertex 3.91259 -16.3316 5
    endloop
  endfacet
  facet normal 0 0 1
    outer loop
      vertex 6.39482 -18.3472 5
      vertex 3.65418 -17.1269 5
      vertex 5.66312 -19.6145 5
    endloop
  endfacet
  facet normal -0 0 1
    outer loop
      vertex 3.23607 -17.8511 5
      vertex 5.66312 -19.6145 5
      vertex 3.65418 -17.1269 5
    endloop
  endfacet
  facet normal 0 0 1
    outer loop
      vertex 5.66312 -19.6145 5
      vertex 3.23607 -17.8511 5
      vertex 4.68391 -20.702 5
    endloop
  endfacet
  facet normal -0 0 1
    outer loop
      vertex 2.67652 -18.4726 5
      vertex 4.68391 -20.702 5
      vertex 3.23607 -17.8511 5
    endloop
  endfacet
  facet normal 0 0 1
    outer loop
      vertex 4.68391 -20.702 5
      vertex 2.67652 -18.4726 5
      vertex 3.5 -21.5622 5
    endloop
  endfacet
  facet normal -0 0 1
    outer loop
      vertex 2 -18.9641 5
      vertex 3.5 -21.5622 5
      vertex 2.67652 -18.4726 5
    endloop
  endfacet
  facet normal 0 0 1
    outer loop
      vertex 3.5 -21.5622 5
      vertex 2 -18.9641 5
      vertex 2.16312 -22.1574 5
    endloop
  endfacet
  facet normal -0 0 1
    outer loop
      vertex 1.23607 -19.3042 5
      vertex 2.16312 -22.1574 5
      vertex 2 -18.9641 5
    endloop
  endfacet
  facet normal 0 0 1
    outer loop
      vertex 1.23607 -19.3042 5
      vertex 0.731699 -22.4617 5
      vertex 2.16312 -22.1574 5
    endloop
  endfacet
  facet normal -0 0 1
    outer loop
      vertex 0.418114 -19.4781 5
      vertex 0.731699 -22.4617 5
      vertex 1.23607 -19.3042 5
    endloop
  endfacet
  facet normal -0 0 1
    outer loop
      vertex -0.418114 -19.4781 5
      vertex 0.731699 -22.4617 5
      vertex 0.418114 -19.4781 5
    endloop
  endfacet
  facet normal 0 0 1
    outer loop
      vertex -0.418114 -19.4781 5
      vertex -0.731699 -22.4617 5
      vertex 0.731699 -22.4617 5
    endloop
  endfacet
  facet normal 0 0 1
    outer loop
      vertex -1.23607 -19.3042 5
      vertex -0.731699 -22.4617 5
      vertex -0.418114 -19.4781 5
    endloop
  endfacet
  facet normal 0 0 1
    outer loop
      vertex -2.16312 -22.1574 5
      vertex -1.23607 -19.3042 5
      vertex -2 -18.9641 5
    endloop
  endfacet
  facet normal 0 0 1
    outer loop
      vertex -1.23607 -19.3042 5
      vertex -2.16312 -22.1574 5
      vertex -0.731699 -22.4617 5
    endloop
  endfacet
  facet normal 0 0 1
    outer loop
      vertex -2.67652 -18.4726 5
      vertex -2.16312 -22.1574 5
      vertex -2 -18.9641 5
    endloop
  endfacet
  facet normal 0 0 1
    outer loop
      vertex -3.23607 -17.8511 5
      vertex -2.16312 -22.1574 5
      vertex -2.67652 -18.4726 5
    endloop
  endfacet
  facet normal 0 0 1
    outer loop
      vertex -3.65418 -17.1269 5
      vertex -2.16312 -22.1574 5
      vertex -3.23607 -17.8511 5
    endloop
  endfacet
  facet normal 0 0 1
    outer loop
      vertex -26 -6.9282 5
      vertex -3.65418 -17.1269 5
      vertex -3.91259 -16.3316 5
    endloop
  endfacet
  facet normal -0 0 1
    outer loop
      vertex -23.5279 -4.70228 5
      vertex -3.65418 -13.8731 5
      vertex -22.6916 -3.25389 5
    endloop
  endfacet
  facet normal 0 0 1
    outer loop
      vertex -3.65418 -13.8731 5
      vertex -23.5279 -4.70228 5
      vertex -3.91259 -14.6684 5
    endloop
  endfacet
  facet normal -0 0 1
    outer loop
      vertex -24.647 -5.94516 5
      vertex -3.91259 -14.6684 5
      vertex -23.5279 -4.70228 5
    endloop
  endfacet
  facet normal 0 0 1
    outer loop
      vertex -3.91259 -14.6684 5
      vertex -24.647 -5.94516 5
      vertex -4 -15.5 5
    endloop
  endfacet
  facet normal 0 0 1
    outer loop
      vertex -4 -15.5 5
      vertex -24.647 -5.94516 5
      vertex -3.91259 -16.3316 5
    endloop
  endfacet
  facet normal -0 0 1
    outer loop
      vertex -26 -6.9282 5
      vertex -3.91259 -16.3316 5
      vertex -24.647 -5.94516 5
    endloop
  endfacet
  facet normal 0 0 1
    outer loop
      vertex -3.65418 -17.1269 5
      vertex -26 -6.9282 5
      vertex -27.5279 -7.60845 5
    endloop
  endfacet
  facet normal 0 0 1
    outer loop
      vertex -3.65418 -17.1269 5
      vertex -27.5279 -7.60845 5
      vertex -2.16312 -22.1574 5
    endloop
  endfacet
  facet normal 0 0 1
    outer loop
      vertex -33.3992 -10.4616 5
      vertex -27.5279 -7.60845 5
      vertex -29.1638 -7.95617 5
    endloop
  endfacet
  facet normal 0 0 1
    outer loop
      vertex -33.3992 -10.4616 5
      vertex -29.1638 -7.95617 5
      vertex -30.8362 -7.95617 5
    endloop
  endfacet
  facet normal 0 0 1
    outer loop
      vertex -33.3992 -10.4616 5
      vertex -30.8362 -7.95617 5
      vertex -32.4721 -7.60845 5
    endloop
  endfacet
  facet normal 0 0 1
    outer loop
      vertex -27.5279 -7.60845 5
      vertex -33.3992 -10.4616 5
      vertex -2.16312 -22.1574 5
    endloop
  endfacet
  facet normal 0 0 1
    outer loop
      vertex -34 -6.9282 5
      vertex -33.3992 -10.4616 5
      vertex -32.4721 -7.60845 5
    endloop
  endfacet
  facet normal 0 0 1
    outer loop
      vertex -35.5 -9.52628 5
      vertex -34 -6.9282 5
      vertex -35.353 -5.94516 5
    endloop
  endfacet
  facet normal 0 0 1
    outer loop
      vertex -34 -6.9282 5
      vertex -35.5 -9.52628 5
      vertex -33.3992 -10.4616 5
    endloop
  endfacet
  facet normal 0 0 1
    outer loop
      vertex -37.3604 -8.17459 5
      vertex -35.353 -5.94516 5
      vertex -36.4721 -4.70228 5
    endloop
  endfacet
  facet normal 0 0 1
    outer loop
      vertex -38.8992 -6.46564 5
      vertex -36.4721 -4.70228 5
      vertex -37.3084 -3.25389 5
    endloop
  endfacet
  facet normal 0 0 1
    outer loop
      vertex -35.353 -5.94516 5
      vertex -37.3604 -8.17459 5
      vertex -35.5 -9.52628 5
    endloop
  endfacet
  facet normal 0 0 1
    outer loop
      vertex -40.049 -4.4741 5
      vertex -37.3084 -3.25389 5
      vertex -37.8252 -1.66329 5
    endloop
  endfacet
  facet normal 0 0 1
    outer loop
      vertex -40.7596 -2.28703 5
      vertex -37.8252 -1.66329 5
      vertex -38 0 5
    endloop
  endfacet
  facet normal -0 0 1
    outer loop
      vertex -40.7596 2.28703 5
      vertex -37.8252 1.66329 5
      vertex -40.049 4.4741 5
    endloop
  endfacet
  facet normal 0 0 1
    outer loop
      vertex -36.4721 -4.70228 5
      vertex -38.8992 -6.46564 5
      vertex -37.3604 -8.17459 5
    endloop
  endfacet
  facet normal 0 0 1
    outer loop
      vertex -37.8252 1.66329 5
      vertex -40.7596 2.28703 5
      vertex -38 0 5
    endloop
  endfacet
  facet normal 0 0 1
    outer loop
      vertex -37.3084 -3.25389 5
      vertex -40.049 -4.4741 5
      vertex -38.8992 -6.46564 5
    endloop
  endfacet
  facet normal 0 0 1
    outer loop
      vertex -41 0 5
      vertex -38 0 5
      vertex -40.7596 2.28703 5
    endloop
  endfacet
  facet normal 0 0 1
    outer loop
      vertex -37.8252 -1.66329 5
      vertex -40.7596 -2.28703 5
      vertex -40.049 -4.4741 5
    endloop
  endfacet
  facet normal 0 0 1
    outer loop
      vertex -38 0 5
      vertex -41 0 5
      vertex -40.7596 -2.28703 5
    endloop
  endfacet
  facet normal 0.587783 -0.809019 0
    outer loop
      vertex -2.67652 18.4726 0
      vertex -2 18.9641 5
      vertex -2.67652 18.4726 5
    endloop
  endfacet
  facet normal 0.587783 -0.809019 0
    outer loop
      vertex -2 18.9641 5
      vertex -2.67652 18.4726 0
      vertex -2 18.9641 0
    endloop
  endfacet
  facet normal 0.207913 -0.978147 0
    outer loop
      vertex -1.23607 19.3042 0
      vertex -0.418114 19.4781 5
      vertex -1.23607 19.3042 5
    endloop
  endfacet
  facet normal 0.207913 -0.978147 0
    outer loop
      vertex -0.418114 19.4781 5
      vertex -1.23607 19.3042 0
      vertex -0.418114 19.4781 0
    endloop
  endfacet
  facet normal -0.994522 0.104529 0
    outer loop
      vertex 3.91259 14.6684 0
      vertex 4 15.5 5
      vertex 4 15.5 0
    endloop
  endfacet
  facet normal -0.994522 0.104529 0
    outer loop
      vertex 4 15.5 5
      vertex 3.91259 14.6684 0
      vertex 3.91259 14.6684 5
    endloop
  endfacet
  facet normal -0.207912 0.978148 0
    outer loop
      vertex 1.23607 11.6958 0
      vertex 0.418114 11.5219 5
      vertex 1.23607 11.6958 5
    endloop
  endfacet
  facet normal -0.207912 0.978148 0
    outer loop
      vertex 0.418114 11.5219 5
      vertex 1.23607 11.6958 0
      vertex 0.418114 11.5219 0
    endloop
  endfacet
  facet normal -0.587785 0.809017 0
    outer loop
      vertex 2.67652 12.5274 0
      vertex 2 12.0359 5
      vertex 2.67652 12.5274 5
    endloop
  endfacet
  facet normal -0.587785 0.809017 0
    outer loop
      vertex 2 12.0359 5
      vertex 2.67652 12.5274 0
      vertex 2 12.0359 0
    endloop
  endfacet
  facet normal 0.587785 0.809017 -0
    outer loop
      vertex -2 12.0359 0
      vertex -2.67652 12.5274 5
      vertex -2 12.0359 5
    endloop
  endfacet
  facet normal 0.587785 0.809017 0
    outer loop
      vertex -2.67652 12.5274 5
      vertex -2 12.0359 0
      vertex -2.67652 12.5274 0
    endloop
  endfacet
  facet normal 0.207912 0.978148 -0
    outer loop
      vertex -0.418114 11.5219 0
      vertex -1.23607 11.6958 5
      vertex -0.418114 11.5219 5
    endloop
  endfacet
  facet normal 0.207912 0.978148 0
    outer loop
      vertex -1.23607 11.6958 5
      vertex -0.418114 11.5219 0
      vertex -1.23607 11.6958 0
    endloop
  endfacet
  facet normal 0.743145 0.669131 0
    outer loop
      vertex -2.67652 12.5274 5
      vertex -3.23607 13.1489 0
      vertex -3.23607 13.1489 5
    endloop
  endfacet
  facet normal 0.743145 0.669131 0
    outer loop
      vertex -3.23607 13.1489 0
      vertex -2.67652 12.5274 5
      vertex -2.67652 12.5274 0
    endloop
  endfacet
  facet normal 0.951057 0.309017 0
    outer loop
      vertex -3.65418 13.8731 5
      vertex -3.91259 14.6684 0
      vertex -3.91259 14.6684 5
    endloop
  endfacet
  facet normal 0.951057 0.309017 0
    outer loop
      vertex -3.91259 14.6684 0
      vertex -3.65418 13.8731 5
      vertex -3.65418 13.8731 0
    endloop
  endfacet
  facet normal 0.994522 0.104529 0
    outer loop
      vertex -3.91259 14.6684 5
      vertex -4 15.5 0
      vertex -4 15.5 5
    endloop
  endfacet
  facet normal 0.994522 0.104529 0
    outer loop
      vertex -4 15.5 0
      vertex -3.91259 14.6684 5
      vertex -3.91259 14.6684 0
    endloop
  endfacet
  facet normal -0.406737 0.913545 0
    outer loop
      vertex 2 12.0359 0
      vertex 1.23607 11.6958 5
      vertex 2 12.0359 5
    endloop
  endfacet
  facet normal -0.406737 0.913545 0
    outer loop
      vertex 1.23607 11.6958 5
      vertex 2 12.0359 0
      vertex 1.23607 11.6958 0
    endloop
  endfacet
  facet normal -0.743145 0.669131 0
    outer loop
      vertex 2.67652 12.5274 0
      vertex 3.23607 13.1489 5
      vertex 3.23607 13.1489 0
    endloop
  endfacet
  facet normal -0.743145 0.669131 0
    outer loop
      vertex 3.23607 13.1489 5
      vertex 2.67652 12.5274 0
      vertex 2.67652 12.5274 5
    endloop
  endfacet
  facet normal -0.951057 0.309017 0
    outer loop
      vertex 3.65418 13.8731 0
      vertex 3.91259 14.6684 5
      vertex 3.91259 14.6684 0
    endloop
  endfacet
  facet normal -0.951057 0.309017 0
    outer loop
      vertex 3.91259 14.6684 5
      vertex 3.65418 13.8731 0
      vertex 3.65418 13.8731 5
    endloop
  endfacet
  facet normal 0.406737 0.913545 -0
    outer loop
      vertex -1.23607 11.6958 0
      vertex -2 12.0359 5
      vertex -1.23607 11.6958 5
    endloop
  endfacet
  facet normal 0.406737 0.913545 0
    outer loop
      vertex -2 12.0359 5
      vertex -1.23607 11.6958 0
      vertex -2 12.0359 0
    endloop
  endfacet
  facet normal 0.866026 0.5 0
    outer loop
      vertex -3.23607 13.1489 5
      vertex -3.65418 13.8731 0
      vertex -3.65418 13.8731 5
    endloop
  endfacet
  facet normal 0.866026 0.5 0
    outer loop
      vertex -3.65418 13.8731 0
      vertex -3.23607 13.1489 5
      vertex -3.23607 13.1489 0
    endloop
  endfacet
  facet normal -0.994522 0.104529 0
    outer loop
      vertex 3.91259 -16.3316 0
      vertex 4 -15.5 5
      vertex 4 -15.5 0
    endloop
  endfacet
  facet normal -0.994522 0.104529 0
    outer loop
      vertex 4 -15.5 5
      vertex 3.91259 -16.3316 0
      vertex 3.91259 -16.3316 5
    endloop
  endfacet
  facet normal 0.207913 0.978147 -0
    outer loop
      vertex -0.418114 -19.4781 0
      vertex -1.23607 -19.3042 5
      vertex -0.418114 -19.4781 5
    endloop
  endfacet
  facet normal 0.207913 0.978147 0
    outer loop
      vertex -1.23607 -19.3042 5
      vertex -0.418114 -19.4781 0
      vertex -1.23607 -19.3042 0
    endloop
  endfacet
  facet normal -0.207912 -0.978148 0
    outer loop
      vertex 0.418114 -11.5219 0
      vertex 1.23607 -11.6958 5
      vertex 0.418114 -11.5219 5
    endloop
  endfacet
  facet normal -0.207912 -0.978148 -0
    outer loop
      vertex 1.23607 -11.6958 5
      vertex 0.418114 -11.5219 0
      vertex 1.23607 -11.6958 0
    endloop
  endfacet
  facet normal -0.866026 -0.5 0
    outer loop
      vertex 3.65418 -13.8731 0
      vertex 3.23607 -13.1489 5
      vertex 3.23607 -13.1489 0
    endloop
  endfacet
  facet normal -0.866026 -0.5 0
    outer loop
      vertex 3.23607 -13.1489 5
      vertex 3.65418 -13.8731 0
      vertex 3.65418 -13.8731 5
    endloop
  endfacet
  facet normal -0.743145 0.66913 0
    outer loop
      vertex 2.67652 -18.4726 0
      vertex 3.23607 -17.8511 5
      vertex 3.23607 -17.8511 0
    endloop
  endfacet
  facet normal -0.743145 0.66913 0
    outer loop
      vertex 3.23607 -17.8511 5
      vertex 2.67652 -18.4726 0
      vertex 2.67652 -18.4726 5
    endloop
  endfacet
  facet normal 0.994522 -0.104529 0
    outer loop
      vertex -4 -15.5 5
      vertex -3.91259 -14.6684 0
      vertex -3.91259 -14.6684 5
    endloop
  endfacet
  facet normal 0.994522 -0.104529 0
    outer loop
      vertex -3.91259 -14.6684 0
      vertex -4 -15.5 5
      vertex -4 -15.5 0
    endloop
  endfacet
  facet normal -0.743145 -0.669131 0
    outer loop
      vertex 3.23607 -13.1489 0
      vertex 2.67652 -12.5274 5
      vertex 2.67652 -12.5274 0
    endloop
  endfacet
  facet normal -0.743145 -0.669131 0
    outer loop
      vertex 2.67652 -12.5274 5
      vertex 3.23607 -13.1489 0
      vertex 3.23607 -13.1489 5
    endloop
  endfacet
  facet normal -0.951056 0.309017 0
    outer loop
      vertex 3.65418 -17.1269 0
      vertex 3.91259 -16.3316 5
      vertex 3.91259 -16.3316 0
    endloop
  endfacet
  facet normal -0.951056 0.309017 0
    outer loop
      vertex 3.91259 -16.3316 5
      vertex 3.65418 -17.1269 0
      vertex 3.65418 -17.1269 5
    endloop
  endfacet
  facet normal 0.951056 0.309017 0
    outer loop
      vertex -3.65418 -17.1269 5
      vertex -3.91259 -16.3316 0
      vertex -3.91259 -16.3316 5
    endloop
  endfacet
  facet normal 0.951056 0.309017 0
    outer loop
      vertex -3.91259 -16.3316 0
      vertex -3.65418 -17.1269 5
      vertex -3.65418 -17.1269 0
    endloop
  endfacet
  facet normal 0.866026 0.499999 0
    outer loop
      vertex -3.23607 -17.8511 5
      vertex -3.65418 -17.1269 0
      vertex -3.65418 -17.1269 5
    endloop
  endfacet
  facet normal 0.866026 0.499999 0
    outer loop
      vertex -3.65418 -17.1269 0
      vertex -3.23607 -17.8511 5
      vertex -3.23607 -17.8511 0
    endloop
  endfacet
  facet normal 0.587785 -0.809017 0
    outer loop
      vertex -2.67652 -12.5274 0
      vertex -2 -12.0359 5
      vertex -2.67652 -12.5274 5
    endloop
  endfacet
  facet normal 0.587785 -0.809017 0
    outer loop
      vertex -2 -12.0359 5
      vertex -2.67652 -12.5274 0
      vertex -2 -12.0359 0
    endloop
  endfacet
  facet normal 0.743145 -0.669131 0
    outer loop
      vertex -3.23607 -13.1489 5
      vertex -2.67652 -12.5274 0
      vertex -2.67652 -12.5274 5
    endloop
  endfacet
  facet normal 0.743145 -0.669131 0
    outer loop
      vertex -2.67652 -12.5274 0
      vertex -3.23607 -13.1489 5
      vertex -3.23607 -13.1489 0
    endloop
  endfacet
  facet normal 0.951057 -0.309017 0
    outer loop
      vertex -3.91259 -14.6684 5
      vertex -3.65418 -13.8731 0
      vertex -3.65418 -13.8731 5
    endloop
  endfacet
  facet normal 0.951057 -0.309017 0
    outer loop
      vertex -3.65418 -13.8731 0
      vertex -3.91259 -14.6684 5
      vertex -3.91259 -14.6684 0
    endloop
  endfacet
  facet normal -0.406737 -0.913545 0
    outer loop
      vertex 1.23607 -11.6958 0
      vertex 2 -12.0359 5
      vertex 1.23607 -11.6958 5
    endloop
  endfacet
  facet normal -0.406737 -0.913545 -0
    outer loop
      vertex 2 -12.0359 5
      vertex 1.23607 -11.6958 0
      vertex 2 -12.0359 0
    endloop
  endfacet
  facet normal -0.866026 0.499999 0
    outer loop
      vertex 3.23607 -17.8511 0
      vertex 3.65418 -17.1269 5
      vertex 3.65418 -17.1269 0
    endloop
  endfacet
  facet normal -0.866026 0.499999 0
    outer loop
      vertex 3.65418 -17.1269 5
      vertex 3.23607 -17.8511 0
      vertex 3.23607 -17.8511 5
    endloop
  endfacet
  facet normal -0.406738 0.913545 0
    outer loop
      vertex 2 -18.9641 0
      vertex 1.23607 -19.3042 5
      vertex 2 -18.9641 5
    endloop
  endfacet
  facet normal -0.406738 0.913545 0
    outer loop
      vertex 1.23607 -19.3042 5
      vertex 2 -18.9641 0
      vertex 1.23607 -19.3042 0
    endloop
  endfacet
  facet normal -0.207913 0.978147 0
    outer loop
      vertex 1.23607 -19.3042 0
      vertex 0.418114 -19.4781 5
      vertex 1.23607 -19.3042 5
    endloop
  endfacet
  facet normal -0.207913 0.978147 0
    outer loop
      vertex 0.418114 -19.4781 5
      vertex 1.23607 -19.3042 0
      vertex 0.418114 -19.4781 0
    endloop
  endfacet
  facet normal 0 1 -0
    outer loop
      vertex 0.418114 -19.4781 0
      vertex -0.418114 -19.4781 5
      vertex 0.418114 -19.4781 5
    endloop
  endfacet
  facet normal 0 1 0
    outer loop
      vertex -0.418114 -19.4781 5
      vertex 0.418114 -19.4781 0
      vertex -0.418114 -19.4781 0
    endloop
  endfacet
  facet normal 0.994522 0.104529 0
    outer loop
      vertex -3.91259 -16.3316 5
      vertex -4 -15.5 0
      vertex -4 -15.5 5
    endloop
  endfacet
  facet normal 0.994522 0.104529 0
    outer loop
      vertex -4 -15.5 0
      vertex -3.91259 -16.3316 5
      vertex -3.91259 -16.3316 0
    endloop
  endfacet
  facet normal 0.743145 0.66913 0
    outer loop
      vertex -2.67652 -18.4726 5
      vertex -3.23607 -17.8511 0
      vertex -3.23607 -17.8511 5
    endloop
  endfacet
  facet normal 0.743145 0.66913 0
    outer loop
      vertex -3.23607 -17.8511 0
      vertex -2.67652 -18.4726 5
      vertex -2.67652 -18.4726 0
    endloop
  endfacet
  facet normal 0.587783 0.809019 -0
    outer loop
      vertex -2 -18.9641 0
      vertex -2.67652 -18.4726 5
      vertex -2 -18.9641 5
    endloop
  endfacet
  facet normal 0.587783 0.809019 0
    outer loop
      vertex -2.67652 -18.4726 5
      vertex -2 -18.9641 0
      vertex -2.67652 -18.4726 0
    endloop
  endfacet
  facet normal 0 -1 0
    outer loop
      vertex -0.418114 -11.5219 0
      vertex 0.418114 -11.5219 5
      vertex -0.418114 -11.5219 5
    endloop
  endfacet
  facet normal 0 -1 -0
    outer loop
      vertex 0.418114 -11.5219 5
      vertex -0.418114 -11.5219 0
      vertex 0.418114 -11.5219 0
    endloop
  endfacet
  facet normal 0.207912 -0.978148 0
    outer loop
      vertex -1.23607 -11.6958 0
      vertex -0.418114 -11.5219 5
      vertex -1.23607 -11.6958 5
    endloop
  endfacet
  facet normal 0.207912 -0.978148 0
    outer loop
      vertex -0.418114 -11.5219 5
      vertex -1.23607 -11.6958 0
      vertex -0.418114 -11.5219 0
    endloop
  endfacet
  facet normal 0.866026 -0.5 0
    outer loop
      vertex -3.65418 -13.8731 5
      vertex -3.23607 -13.1489 0
      vertex -3.23607 -13.1489 5
    endloop
  endfacet
  facet normal 0.866026 -0.5 0
    outer loop
      vertex -3.23607 -13.1489 0
      vertex -3.65418 -13.8731 5
      vertex -3.65418 -13.8731 0
    endloop
  endfacet
  facet normal -0.587785 -0.809017 0
    outer loop
      vertex 2 -12.0359 0
      vertex 2.67652 -12.5274 5
      vertex 2 -12.0359 5
    endloop
  endfacet
  facet normal -0.587785 -0.809017 -0
    outer loop
      vertex 2.67652 -12.5274 5
      vertex 2 -12.0359 0
      vertex 2.67652 -12.5274 0
    endloop
  endfacet
  facet normal -0.951057 -0.309017 0
    outer loop
      vertex 3.91259 -14.6684 0
      vertex 3.65418 -13.8731 5
      vertex 3.65418 -13.8731 0
    endloop
  endfacet
  facet normal -0.951057 -0.309017 0
    outer loop
      vertex 3.65418 -13.8731 5
      vertex 3.91259 -14.6684 0
      vertex 3.91259 -14.6684 5
    endloop
  endfacet
  facet normal -0.994522 -0.104529 0
    outer loop
      vertex 4 -15.5 0
      vertex 3.91259 -14.6684 5
      vertex 3.91259 -14.6684 0
    endloop
  endfacet
  facet normal -0.994522 -0.104529 0
    outer loop
      vertex 3.91259 -14.6684 5
      vertex 4 -15.5 0
      vertex 4 -15.5 5
    endloop
  endfacet
  facet normal -0.587783 0.809018 0
    outer loop
      vertex 2.67652 -18.4726 0
      vertex 2 -18.9641 5
      vertex 2.67652 -18.4726 5
    endloop
  endfacet
  facet normal -0.587783 0.809018 0
    outer loop
      vertex 2 -18.9641 5
      vertex 2.67652 -18.4726 0
      vertex 2 -18.9641 0
    endloop
  endfacet
  facet normal 0.406739 0.913545 -0
    outer loop
      vertex -1.23607 -19.3042 0
      vertex -2 -18.9641 5
      vertex -1.23607 -19.3042 5
    endloop
  endfacet
  facet normal 0.406739 0.913545 0
    outer loop
      vertex -2 -18.9641 5
      vertex -1.23607 -19.3042 0
      vertex -2 -18.9641 0
    endloop
  endfacet
  facet normal 0.406737 -0.913545 0
    outer loop
      vertex -2 -12.0359 0
      vertex -1.23607 -11.6958 5
      vertex -2 -12.0359 5
    endloop
  endfacet
  facet normal 0.406737 -0.913545 0
    outer loop
      vertex -1.23607 -11.6958 5
      vertex -2 -12.0359 0
      vertex -1.23607 -11.6958 0
    endloop
  endfacet
  facet normal -0.994522 -0.104529 0
    outer loop
      vertex -22 0 0
      vertex -22.1748 1.66329 5
      vertex -22.1748 1.66329 0
    endloop
  endfacet
  facet normal -0.994522 -0.104529 0
    outer loop
      vertex -22.1748 1.66329 5
      vertex -22 0 0
      vertex -22 0 5
    endloop
  endfacet
  facet normal 0.994522 -0.104529 0
    outer loop
      vertex -38 0 5
      vertex -37.8252 1.66329 0
      vertex -37.8252 1.66329 5
    endloop
  endfacet
  facet normal 0.994522 -0.104529 0
    outer loop
      vertex -37.8252 1.66329 0
      vertex -38 0 5
      vertex -38 0 0
    endloop
  endfacet
  facet normal 0 -1 0
    outer loop
      vertex -30.8362 7.95617 0
      vertex -29.1638 7.95617 5
      vertex -30.8362 7.95617 5
    endloop
  endfacet
  facet normal 0 -1 -0
    outer loop
      vertex -29.1638 7.95617 5
      vertex -30.8362 7.95617 0
      vertex -29.1638 7.95617 0
    endloop
  endfacet
  facet normal 0 1 -0
    outer loop
      vertex -29.1638 -7.95617 0
      vertex -30.8362 -7.95617 5
      vertex -29.1638 -7.95617 5
    endloop
  endfacet
  facet normal 0 1 0
    outer loop
      vertex -30.8362 -7.95617 5
      vertex -29.1638 -7.95617 0
      vertex -30.8362 -7.95617 0
    endloop
  endfacet
  facet normal -0.743145 -0.669131 0
    outer loop
      vertex -23.5279 4.70228 0
      vertex -24.647 5.94516 5
      vertex -24.647 5.94516 0
    endloop
  endfacet
  facet normal -0.743145 -0.669131 0
    outer loop
      vertex -24.647 5.94516 5
      vertex -23.5279 4.70228 0
      vertex -23.5279 4.70228 5
    endloop
  endfacet
  facet normal 0.743144 -0.669132 0
    outer loop
      vertex -36.4721 4.70228 5
      vertex -35.353 5.94516 0
      vertex -35.353 5.94516 5
    endloop
  endfacet
  facet normal 0.743144 -0.669132 0
    outer loop
      vertex -35.353 5.94516 0
      vertex -36.4721 4.70228 5
      vertex -36.4721 4.70228 0
    endloop
  endfacet
  facet normal 0.866026 -0.5 0
    outer loop
      vertex -37.3084 3.25389 5
      vertex -36.4721 4.70228 0
      vertex -36.4721 4.70228 5
    endloop
  endfacet
  facet normal 0.866026 -0.5 0
    outer loop
      vertex -36.4721 4.70228 0
      vertex -37.3084 3.25389 5
      vertex -37.3084 3.25389 0
    endloop
  endfacet
  facet normal 0.406737 -0.913545 0
    outer loop
      vertex -34 6.9282 0
      vertex -32.4721 7.60845 5
      vertex -34 6.9282 5
    endloop
  endfacet
  facet normal 0.406737 -0.913545 0
    outer loop
      vertex -32.4721 7.60845 5
      vertex -34 6.9282 0
      vertex -32.4721 7.60845 0
    endloop
  endfacet
  facet normal -0.866026 0.5 0
    outer loop
      vertex -23.5279 -4.70228 0
      vertex -22.6916 -3.25389 5
      vertex -22.6916 -3.25389 0
    endloop
  endfacet
  facet normal -0.866026 0.5 0
    outer loop
      vertex -22.6916 -3.25389 5
      vertex -23.5279 -4.70228 0
      vertex -23.5279 -4.70228 5
    endloop
  endfacet
  facet normal -0.866026 -0.5 0
    outer loop
      vertex -22.6916 3.25389 0
      vertex -23.5279 4.70228 5
      vertex -23.5279 4.70228 0
    endloop
  endfacet
  facet normal -0.866026 -0.5 0
    outer loop
      vertex -23.5279 4.70228 5
      vertex -22.6916 3.25389 0
      vertex -22.6916 3.25389 5
    endloop
  endfacet
  facet normal -0.951057 -0.309016 0
    outer loop
      vertex -22.1748 1.66329 0
      vertex -22.6916 3.25389 5
      vertex -22.6916 3.25389 0
    endloop
  endfacet
  facet normal -0.951057 -0.309016 0
    outer loop
      vertex -22.6916 3.25389 5
      vertex -22.1748 1.66329 0
      vertex -22.1748 1.66329 5
    endloop
  endfacet
  facet normal -0.406737 -0.913545 0
    outer loop
      vertex -27.5279 7.60845 0
      vertex -26 6.9282 5
      vertex -27.5279 7.60845 5
    endloop
  endfacet
  facet normal -0.406737 -0.913545 -0
    outer loop
      vertex -26 6.9282 5
      vertex -27.5279 7.60845 0
      vertex -26 6.9282 0
    endloop
  endfacet
  facet normal -0.207911 -0.978148 0
    outer loop
      vertex -29.1638 7.95617 0
      vertex -27.5279 7.60845 5
      vertex -29.1638 7.95617 5
    endloop
  endfacet
  facet normal -0.207911 -0.978148 -0
    outer loop
      vertex -27.5279 7.60845 5
      vertex -29.1638 7.95617 0
      vertex -27.5279 7.60845 0
    endloop
  endfacet
  facet normal -0.587785 -0.809017 0
    outer loop
      vertex -26 6.9282 0
      vertex -24.647 5.94516 5
      vertex -26 6.9282 5
    endloop
  endfacet
  facet normal -0.587785 -0.809017 -0
    outer loop
      vertex -24.647 5.94516 5
      vertex -26 6.9282 0
      vertex -24.647 5.94516 0
    endloop
  endfacet
  facet normal 0.951057 -0.309016 0
    outer loop
      vertex -37.8252 1.66329 5
      vertex -37.3084 3.25389 0
      vertex -37.3084 3.25389 5
    endloop
  endfacet
  facet normal 0.951057 -0.309016 0
    outer loop
      vertex -37.3084 3.25389 0
      vertex -37.8252 1.66329 5
      vertex -37.8252 1.66329 0
    endloop
  endfacet
  facet normal 0.587786 -0.809017 0
    outer loop
      vertex -35.353 5.94516 0
      vertex -34 6.9282 5
      vertex -35.353 5.94516 5
    endloop
  endfacet
  facet normal 0.587786 -0.809017 0
    outer loop
      vertex -34 6.9282 5
      vertex -35.353 5.94516 0
      vertex -34 6.9282 0
    endloop
  endfacet
  facet normal 0.207911 -0.978148 0
    outer loop
      vertex -32.4721 7.60845 0
      vertex -30.8362 7.95617 5
      vertex -32.4721 7.60845 5
    endloop
  endfacet
  facet normal 0.207911 -0.978148 0
    outer loop
      vertex -30.8362 7.95617 5
      vertex -32.4721 7.60845 0
      vertex -30.8362 7.95617 0
    endloop
  endfacet
  facet normal -0.994522 0.104529 0
    outer loop
      vertex -22.1748 -1.66329 0
      vertex -22 0 5
      vertex -22 0 0
    endloop
  endfacet
  facet normal -0.994522 0.104529 0
    outer loop
      vertex -22 0 5
      vertex -22.1748 -1.66329 0
      vertex -22.1748 -1.66329 5
    endloop
  endfacet
  facet normal -0.207911 0.978148 0
    outer loop
      vertex -27.5279 -7.60845 0
      vertex -29.1638 -7.95617 5
      vertex -27.5279 -7.60845 5
    endloop
  endfacet
  facet normal -0.207911 0.978148 0
    outer loop
      vertex -29.1638 -7.95617 5
      vertex -27.5279 -7.60845 0
      vertex -29.1638 -7.95617 0
    endloop
  endfacet
  facet normal -0.951057 0.309016 0
    outer loop
      vertex -22.6916 -3.25389 0
      vertex -22.1748 -1.66329 5
      vertex -22.1748 -1.66329 0
    endloop
  endfacet
  facet normal -0.951057 0.309016 0
    outer loop
      vertex -22.1748 -1.66329 5
      vertex -22.6916 -3.25389 0
      vertex -22.6916 -3.25389 5
    endloop
  endfacet
  facet normal 0.866026 0.5 0
    outer loop
      vertex -36.4721 -4.70228 5
      vertex -37.3084 -3.25389 0
      vertex -37.3084 -3.25389 5
    endloop
  endfacet
  facet normal 0.866026 0.5 0
    outer loop
      vertex -37.3084 -3.25389 0
      vertex -36.4721 -4.70228 5
      vertex -36.4721 -4.70228 0
    endloop
  endfacet
  facet normal -0.587785 0.809017 0
    outer loop
      vertex -24.647 -5.94516 0
      vertex -26 -6.9282 5
      vertex -24.647 -5.94516 5
    endloop
  endfacet
  facet normal -0.587785 0.809017 0
    outer loop
      vertex -26 -6.9282 5
      vertex -24.647 -5.94516 0
      vertex -26 -6.9282 0
    endloop
  endfacet
  facet normal -0.406737 0.913545 0
    outer loop
      vertex -26 -6.9282 0
      vertex -27.5279 -7.60845 5
      vertex -26 -6.9282 5
    endloop
  endfacet
  facet normal -0.406737 0.913545 0
    outer loop
      vertex -27.5279 -7.60845 5
      vertex -26 -6.9282 0
      vertex -27.5279 -7.60845 0
    endloop
  endfacet
  facet normal 0.743144 0.669132 0
    outer loop
      vertex -35.353 -5.94516 5
      vertex -36.4721 -4.70228 0
      vertex -36.4721 -4.70228 5
    endloop
  endfacet
  facet normal 0.743144 0.669132 0
    outer loop
      vertex -36.4721 -4.70228 0
      vertex -35.353 -5.94516 5
      vertex -35.353 -5.94516 0
    endloop
  endfacet
  facet normal 0.951057 0.309016 0
    outer loop
      vertex -37.3084 -3.25389 5
      vertex -37.8252 -1.66329 0
      vertex -37.8252 -1.66329 5
    endloop
  endfacet
  facet normal 0.951057 0.309016 0
    outer loop
      vertex -37.8252 -1.66329 0
      vertex -37.3084 -3.25389 5
      vertex -37.3084 -3.25389 0
    endloop
  endfacet
  facet normal 0.994522 0.104529 0
    outer loop
      vertex -37.8252 -1.66329 5
      vertex -38 0 0
      vertex -38 0 5
    endloop
  endfacet
  facet normal 0.994522 0.104529 0
    outer loop
      vertex -38 0 0
      vertex -37.8252 -1.66329 5
      vertex -37.8252 -1.66329 0
    endloop
  endfacet
  facet normal -0.743145 0.669131 0
    outer loop
      vertex -24.647 -5.94516 0
      vertex -23.5279 -4.70228 5
      vertex -23.5279 -4.70228 0
    endloop
  endfacet
  facet normal -0.743145 0.669131 0
    outer loop
      vertex -23.5279 -4.70228 5
      vertex -24.647 -5.94516 0
      vertex -24.647 -5.94516 5
    endloop
  endfacet
  facet normal 0.587786 0.809017 -0
    outer loop
      vertex -34 -6.9282 0
      vertex -35.353 -5.94516 5
      vertex -34 -6.9282 5
    endloop
  endfacet
  facet normal 0.587786 0.809017 0
    outer loop
      vertex -35.353 -5.94516 5
      vertex -34 -6.9282 0
      vertex -35.353 -5.94516 0
    endloop
  endfacet
  facet normal 0.406737 0.913545 -0
    outer loop
      vertex -32.4721 -7.60845 0
      vertex -34 -6.9282 5
      vertex -32.4721 -7.60845 5
    endloop
  endfacet
  facet normal 0.406737 0.913545 0
    outer loop
      vertex -34 -6.9282 5
      vertex -32.4721 -7.60845 0
      vertex -34 -6.9282 0
    endloop
  endfacet
  facet normal 0.207911 0.978148 -0
    outer loop
      vertex -30.8362 -7.95617 0
      vertex -32.4721 -7.60845 5
      vertex -30.8362 -7.95617 5
    endloop
  endfacet
  facet normal 0.207911 0.978148 0
    outer loop
      vertex -32.4721 -7.60845 5
      vertex -30.8362 -7.95617 0
      vertex -32.4721 -7.60845 0
    endloop
  endfacet
  facet normal -0.994522 0.104528 0
    outer loop
      vertex -41 0 0
      vertex -40.7596 2.28703 5
      vertex -40.7596 2.28703 0
    endloop
  endfacet
  facet normal -0.994522 0.104528 0
    outer loop
      vertex -40.7596 2.28703 5
      vertex -41 0 0
      vertex -41 0 5
    endloop
  endfacet
  facet normal -0.207912 0.978147 0
    outer loop
      vertex -0.731699 22.4617 0
      vertex -2.16312 22.1574 5
      vertex -0.731699 22.4617 5
    endloop
  endfacet
  facet normal -0.207912 0.978147 0
    outer loop
      vertex -2.16312 22.1574 5
      vertex -0.731699 22.4617 0
      vertex -2.16312 22.1574 0
    endloop
  endfacet
  facet normal 0 1 -0
    outer loop
      vertex 0.731699 22.4617 0
      vertex -0.731699 22.4617 5
      vertex 0.731699 22.4617 5
    endloop
  endfacet
  facet normal 0 1 0
    outer loop
      vertex -0.731699 22.4617 5
      vertex 0.731699 22.4617 0
      vertex -0.731699 22.4617 0
    endloop
  endfacet
  facet normal -0.994522 -0.104528 0
    outer loop
      vertex -40.7596 -2.28703 0
      vertex -41 0 5
      vertex -41 0 0
    endloop
  endfacet
  facet normal -0.994522 -0.104528 0
    outer loop
      vertex -41 0 5
      vertex -40.7596 -2.28703 0
      vertex -40.7596 -2.28703 5
    endloop
  endfacet
  facet normal -0.951056 0.309017 0
    outer loop
      vertex -40.7596 2.28703 0
      vertex -40.049 4.4741 5
      vertex -40.049 4.4741 0
    endloop
  endfacet
  facet normal -0.951056 0.309017 0
    outer loop
      vertex -40.049 4.4741 5
      vertex -40.7596 2.28703 0
      vertex -40.7596 2.28703 5
    endloop
  endfacet
  facet normal -0.406737 0.913545 0
    outer loop
      vertex -33.3992 10.4616 0
      vertex -35.5 9.52628 5
      vertex -33.3992 10.4616 5
    endloop
  endfacet
  facet normal -0.406737 0.913545 0
    outer loop
      vertex -35.5 9.52628 5
      vertex -33.3992 10.4616 0
      vertex -35.5 9.52628 0
    endloop
  endfacet
  facet normal -0.866025 0.500001 0
    outer loop
      vertex -40.049 4.4741 0
      vertex -38.8992 6.46564 5
      vertex -38.8992 6.46564 0
    endloop
  endfacet
  facet normal -0.866025 0.500001 0
    outer loop
      vertex -38.8992 6.46564 5
      vertex -40.049 4.4741 0
      vertex -40.049 4.4741 5
    endloop
  endfacet
  facet normal -0.587785 0.809017 0
    outer loop
      vertex -35.5 9.52628 0
      vertex -37.3604 8.17459 5
      vertex -35.5 9.52628 5
    endloop
  endfacet
  facet normal -0.587785 0.809017 0
    outer loop
      vertex -37.3604 8.17459 5
      vertex -35.5 9.52628 0
      vertex -37.3604 8.17459 0
    endloop
  endfacet
  facet normal 0 -1 0
    outer loop
      vertex -0.731699 -22.4617 0
      vertex 0.731699 -22.4617 5
      vertex -0.731699 -22.4617 5
    endloop
  endfacet
  facet normal 0 -1 -0
    outer loop
      vertex 0.731699 -22.4617 5
      vertex -0.731699 -22.4617 0
      vertex 0.731699 -22.4617 0
    endloop
  endfacet
  facet normal 0.994522 -0.104529 0
    outer loop
      vertex 6.84703 -16.9554 5
      vertex 7 -15.5 0
      vertex 7 -15.5 5
    endloop
  endfacet
  facet normal 0.994522 -0.104529 0
    outer loop
      vertex 7 -15.5 0
      vertex 6.84703 -16.9554 5
      vertex 6.84703 -16.9554 0
    endloop
  endfacet
  facet normal -0.350657 0.936504 0
    outer loop
      vertex -2.16312 22.1574 0
      vertex -33.3992 10.4616 5
      vertex -2.16312 22.1574 5
    endloop
  endfacet
  facet normal -0.350657 0.936504 0
    outer loop
      vertex -33.3992 10.4616 5
      vertex -2.16312 22.1574 0
      vertex -33.3992 10.4616 0
    endloop
  endfacet
  facet normal -0.743145 0.66913 0
    outer loop
      vertex -38.8992 6.46564 0
      vertex -37.3604 8.17459 5
      vertex -37.3604 8.17459 0
    endloop
  endfacet
  facet normal -0.743145 0.66913 0
    outer loop
      vertex -37.3604 8.17459 5
      vertex -38.8992 6.46564 0
      vertex -38.8992 6.46564 5
    endloop
  endfacet
  facet normal 0.406736 0.913546 -0
    outer loop
      vertex 3.5 21.5622 0
      vertex 2.16312 22.1574 5
      vertex 3.5 21.5622 5
    endloop
  endfacet
  facet normal 0.406736 0.913546 0
    outer loop
      vertex 2.16312 22.1574 5
      vertex 3.5 21.5622 0
      vertex 2.16312 22.1574 0
    endloop
  endfacet
  facet normal 0.587786 0.809017 -0
    outer loop
      vertex 4.68391 20.702 0
      vertex 3.5 21.5622 5
      vertex 4.68391 20.702 5
    endloop
  endfacet
  facet normal 0.587786 0.809017 0
    outer loop
      vertex 3.5 21.5622 5
      vertex 4.68391 20.702 0
      vertex 3.5 21.5622 0
    endloop
  endfacet
  facet normal -0.951056 -0.309017 0
    outer loop
      vertex -40.049 -4.4741 0
      vertex -40.7596 -2.28703 5
      vertex -40.7596 -2.28703 0
    endloop
  endfacet
  facet normal -0.951056 -0.309017 0
    outer loop
      vertex -40.7596 -2.28703 5
      vertex -40.049 -4.4741 0
      vertex -40.049 -4.4741 5
    endloop
  endfacet
  facet normal -0.587785 -0.809017 0
    outer loop
      vertex -37.3604 -8.17459 0
      vertex -35.5 -9.52628 5
      vertex -37.3604 -8.17459 5
    endloop
  endfacet
  facet normal -0.587785 -0.809017 -0
    outer loop
      vertex -35.5 -9.52628 5
      vertex -37.3604 -8.17459 0
      vertex -35.5 -9.52628 0
    endloop
  endfacet
  facet normal -0.866025 -0.500001 0
    outer loop
      vertex -38.8992 -6.46564 0
      vertex -40.049 -4.4741 5
      vertex -40.049 -4.4741 0
    endloop
  endfacet
  facet normal -0.866025 -0.500001 0
    outer loop
      vertex -40.049 -4.4741 5
      vertex -38.8992 -6.46564 0
      vertex -38.8992 -6.46564 5
    endloop
  endfacet
  facet normal -0.207912 -0.978147 0
    outer loop
      vertex -2.16312 -22.1574 0
      vertex -0.731699 -22.4617 5
      vertex -2.16312 -22.1574 5
    endloop
  endfacet
  facet normal -0.207912 -0.978147 -0
    outer loop
      vertex -0.731699 -22.4617 5
      vertex -2.16312 -22.1574 0
      vertex -0.731699 -22.4617 0
    endloop
  endfacet
  facet normal -0.406737 -0.913545 0
    outer loop
      vertex -35.5 -9.52628 0
      vertex -33.3992 -10.4616 5
      vertex -35.5 -9.52628 5
    endloop
  endfacet
  facet normal -0.406737 -0.913545 -0
    outer loop
      vertex -33.3992 -10.4616 5
      vertex -35.5 -9.52628 0
      vertex -33.3992 -10.4616 0
    endloop
  endfacet
  facet normal 1 -0 0
    outer loop
      vertex 7 -15.5 5
      vertex 7 15.5 0
      vertex 7 15.5 5
    endloop
  endfacet
  facet normal 1 0 0
    outer loop
      vertex 7 15.5 0
      vertex 7 -15.5 5
      vertex 7 -15.5 0
    endloop
  endfacet
  facet normal 0.743145 -0.66913 0
    outer loop
      vertex 4.68391 -20.702 5
      vertex 5.66312 -19.6145 0
      vertex 5.66312 -19.6145 5
    endloop
  endfacet
  facet normal 0.743145 -0.66913 0
    outer loop
      vertex 5.66312 -19.6145 0
      vertex 4.68391 -20.702 5
      vertex 4.68391 -20.702 0
    endloop
  endfacet
  facet normal 0.207912 0.978147 -0
    outer loop
      vertex 2.16312 22.1574 0
      vertex 0.731699 22.4617 5
      vertex 2.16312 22.1574 5
    endloop
  endfacet
  facet normal 0.207912 0.978147 0
    outer loop
      vertex 0.731699 22.4617 5
      vertex 2.16312 22.1574 0
      vertex 0.731699 22.4617 0
    endloop
  endfacet
  facet normal 0.743145 0.66913 0
    outer loop
      vertex 5.66312 19.6145 5
      vertex 4.68391 20.702 0
      vertex 4.68391 20.702 5
    endloop
  endfacet
  facet normal 0.743145 0.66913 0
    outer loop
      vertex 4.68391 20.702 0
      vertex 5.66312 19.6145 5
      vertex 5.66312 19.6145 0
    endloop
  endfacet
  facet normal 0.866025 0.5 0
    outer loop
      vertex 6.39482 18.3472 5
      vertex 5.66312 19.6145 0
      vertex 5.66312 19.6145 5
    endloop
  endfacet
  facet normal 0.866025 0.5 0
    outer loop
      vertex 5.66312 19.6145 0
      vertex 6.39482 18.3472 5
      vertex 6.39482 18.3472 0
    endloop
  endfacet
  facet normal 0.994522 0.104529 0
    outer loop
      vertex 7 15.5 5
      vertex 6.84703 16.9554 0
      vertex 6.84703 16.9554 5
    endloop
  endfacet
  facet normal 0.994522 0.104529 0
    outer loop
      vertex 6.84703 16.9554 0
      vertex 7 15.5 5
      vertex 7 15.5 0
    endloop
  endfacet
  facet normal -0.743145 -0.66913 0
    outer loop
      vertex -37.3604 -8.17459 0
      vertex -38.8992 -6.46564 5
      vertex -38.8992 -6.46564 0
    endloop
  endfacet
  facet normal -0.743145 -0.66913 0
    outer loop
      vertex -38.8992 -6.46564 5
      vertex -37.3604 -8.17459 0
      vertex -37.3604 -8.17459 5
    endloop
  endfacet
  facet normal -0.350657 -0.936504 0
    outer loop
      vertex -33.3992 -10.4616 0
      vertex -2.16312 -22.1574 5
      vertex -33.3992 -10.4616 5
    endloop
  endfacet
  facet normal -0.350657 -0.936504 -0
    outer loop
      vertex -2.16312 -22.1574 5
      vertex -33.3992 -10.4616 0
      vertex -2.16312 -22.1574 0
    endloop
  endfacet
  facet normal 0.866025 -0.5 0
    outer loop
      vertex 5.66312 -19.6145 5
      vertex 6.39482 -18.3472 0
      vertex 6.39482 -18.3472 5
    endloop
  endfacet
  facet normal 0.866025 -0.5 0
    outer loop
      vertex 6.39482 -18.3472 0
      vertex 5.66312 -19.6145 5
      vertex 5.66312 -19.6145 0
    endloop
  endfacet
  facet normal 0.587786 -0.809017 0
    outer loop
      vertex 3.5 -21.5622 0
      vertex 4.68391 -20.702 5
      vertex 3.5 -21.5622 5
    endloop
  endfacet
  facet normal 0.587786 -0.809017 0
    outer loop
      vertex 4.68391 -20.702 5
      vertex 3.5 -21.5622 0
      vertex 4.68391 -20.702 0
    endloop
  endfacet
  facet normal 0.406736 -0.913546 0
    outer loop
      vertex 2.16312 -22.1574 0
      vertex 3.5 -21.5622 5
      vertex 2.16312 -22.1574 5
    endloop
  endfacet
  facet normal 0.406736 -0.913546 0
    outer loop
      vertex 3.5 -21.5622 5
      vertex 2.16312 -22.1574 0
      vertex 3.5 -21.5622 0
    endloop
  endfacet
  facet normal 0.207912 -0.978147 0
    outer loop
      vertex 0.731699 -22.4617 0
      vertex 2.16312 -22.1574 5
      vertex 0.731699 -22.4617 5
    endloop
  endfacet
  facet normal 0.207912 -0.978147 0
    outer loop
      vertex 2.16312 -22.1574 5
      vertex 0.731699 -22.4617 0
      vertex 2.16312 -22.1574 0
    endloop
  endfacet
  facet normal 0.951057 0.309017 0
    outer loop
      vertex 6.84703 16.9554 5
      vertex 6.39482 18.3472 0
      vertex 6.39482 18.3472 5
    endloop
  endfacet
  facet normal 0.951057 0.309017 0
    outer loop
      vertex 6.39482 18.3472 0
      vertex 6.84703 16.9554 5
      vertex 6.84703 16.9554 0
    endloop
  endfacet
  facet normal 0.951057 -0.309017 0
    outer loop
      vertex 6.39482 -18.3472 5
      vertex 6.84703 -16.9554 0
      vertex 6.84703 -16.9554 5
    endloop
  endfacet
  facet normal 0.951057 -0.309017 0
    outer loop
      vertex 6.84703 -16.9554 0
      vertex 6.39482 -18.3472 5
      vertex 6.39482 -18.3472 0
    endloop
  endfacet
endsolid OpenSCAD_Model
