solid OpenSCAD_Model
  facet normal 0 -0.239317 0.970942
    outer loop
      vertex 0.5 7.19708 -4.82818
      vertex 7.5 6.5 -5
      vertex 7.5 7.19708 -4.82818
    endloop
  endfacet
  facet normal 0 -0.239317 0.970942
    outer loop
      vertex 7.5 6.5 -5
      vertex 0.5 7.19708 -4.82818
      vertex 0.5 6.5 -5
    endloop
  endfacet
  facet normal 0 0 -1
    outer loop
      vertex 0.5 6.14103 -2.04359
      vertex 7.5 6.85897 -2.04359
      vertex 7.5 6.14103 -2.04359
    endloop
  endfacet
  facet normal -0 0 -1
    outer loop
      vertex 7.5 6.85897 -2.04359
      vertex 0.5 6.14103 -2.04359
      vertex 0.5 6.85897 -2.04359
    endloop
  endfacet
  facet normal 0 -0.992709 -0.120537
    outer loop
      vertex 0.5 7.98906 -3.6808
      vertex 7.5 7.90252 -2.96809
      vertex 0.5 7.90252 -2.96809
    endloop
  endfacet
  facet normal 0 -0.992709 -0.120537
    outer loop
      vertex 7.5 7.90252 -2.96809
      vertex 0.5 7.98906 -3.6808
      vertex 7.5 7.98906 -3.6808
    endloop
  endfacet
  facet normal 0 0.935016 0.354606
    outer loop
      vertex 7.5 5.26552 -4.3521
      vertex 0.5 5.01094 -3.6808
      vertex 7.5 5.01094 -3.6808
    endloop
  endfacet
  facet normal 0 0.935016 0.354606
    outer loop
      vertex 0.5 5.01094 -3.6808
      vertex 7.5 5.26552 -4.3521
      vertex 0.5 5.26552 -4.3521
    endloop
  endfacet
  facet normal 0 -0.935016 0.354606
    outer loop
      vertex 0.5 7.73448 -4.3521
      vertex 7.5 7.98906 -3.6808
      vertex 0.5 7.98906 -3.6808
    endloop
  endfacet
  facet normal 0 -0.935016 0.354606
    outer loop
      vertex 7.5 7.98906 -3.6808
      vertex 0.5 7.73448 -4.3521
      vertex 7.5 7.73448 -4.3521
    endloop
  endfacet
  facet normal 0 -0.663123 0.748511
    outer loop
      vertex 0.5 7.73448 -4.3521
      vertex 7.5 7.19708 -4.82818
      vertex 7.5 7.73448 -4.3521
    endloop
  endfacet
  facet normal 0 -0.663123 0.748511
    outer loop
      vertex 7.5 7.19708 -4.82818
      vertex 0.5 7.73448 -4.3521
      vertex 0.5 7.19708 -4.82818
    endloop
  endfacet
  facet normal 0 -0.464723 -0.885456
    outer loop
      vertex 0.5 6.85897 -2.04359
      vertex 7.5 7.49468 -2.37723
      vertex 7.5 6.85897 -2.04359
    endloop
  endfacet
  facet normal -0 -0.464723 -0.885456
    outer loop
      vertex 7.5 7.49468 -2.37723
      vertex 0.5 6.85897 -2.04359
      vertex 0.5 7.49468 -2.37723
    endloop
  endfacet
  facet normal 0 -0.822983 -0.568065
    outer loop
      vertex 0.5 7.90252 -2.96809
      vertex 7.5 7.49468 -2.37723
      vertex 0.5 7.49468 -2.37723
    endloop
  endfacet
  facet normal 0 -0.822983 -0.568065
    outer loop
      vertex 7.5 7.49468 -2.37723
      vertex 0.5 7.90252 -2.96809
      vertex 7.5 7.90252 -2.96809
    endloop
  endfacet
  facet normal -0 0.239317 0.970942
    outer loop
      vertex 0.5 6.5 -5
      vertex 7.5 5.80291 -4.82818
      vertex 7.5 6.5 -5
    endloop
  endfacet
  facet normal 0 0.239317 0.970942
    outer loop
      vertex 7.5 5.80291 -4.82818
      vertex 0.5 6.5 -5
      vertex 0.5 5.80291 -4.82818
    endloop
  endfacet
  facet normal 0 0.992709 -0.120537
    outer loop
      vertex 7.5 5.01094 -3.6808
      vertex 0.5 5.09748 -2.96809
      vertex 7.5 5.09748 -2.96809
    endloop
  endfacet
  facet normal 0 0.992709 -0.120537
    outer loop
      vertex 0.5 5.09748 -2.96809
      vertex 7.5 5.01094 -3.6808
      vertex 0.5 5.01094 -3.6808
    endloop
  endfacet
  facet normal 0 0.464723 -0.885456
    outer loop
      vertex 0.5 5.50532 -2.37723
      vertex 7.5 6.14103 -2.04359
      vertex 7.5 5.50532 -2.37723
    endloop
  endfacet
  facet normal 0 0.464723 -0.885456
    outer loop
      vertex 7.5 6.14103 -2.04359
      vertex 0.5 5.50532 -2.37723
      vertex 0.5 6.14103 -2.04359
    endloop
  endfacet
  facet normal -0 0.663123 0.748511
    outer loop
      vertex 0.5 5.80291 -4.82818
      vertex 7.5 5.26552 -4.3521
      vertex 7.5 5.80291 -4.82818
    endloop
  endfacet
  facet normal 0 0.663123 0.748511
    outer loop
      vertex 7.5 5.26552 -4.3521
      vertex 0.5 5.80291 -4.82818
      vertex 0.5 5.26552 -4.3521
    endloop
  endfacet
  facet normal 0 0.822983 -0.568065
    outer loop
      vertex 7.5 5.09748 -2.96809
      vertex 0.5 5.50532 -2.37723
      vertex 7.5 5.50532 -2.37723
    endloop
  endfacet
  facet normal 0 0.822983 -0.568065
    outer loop
      vertex 0.5 5.50532 -2.37723
      vertex 7.5 5.09748 -2.96809
      vertex 0.5 5.09748 -2.96809
    endloop
  endfacet
  facet normal -0 0.239317 0.970942
    outer loop
      vertex 0.5 -6.5 -5
      vertex 7.5 -7.19708 -4.82818
      vertex 7.5 -6.5 -5
    endloop
  endfacet
  facet normal 0 0.239317 0.970942
    outer loop
      vertex 7.5 -7.19708 -4.82818
      vertex 0.5 -6.5 -5
      vertex 0.5 -7.19708 -4.82818
    endloop
  endfacet
  facet normal 0 0.992709 -0.120537
    outer loop
      vertex 7.5 -7.98906 -3.6808
      vertex 0.5 -7.90252 -2.96809
      vertex 7.5 -7.90252 -2.96809
    endloop
  endfacet
  facet normal 0 0.992709 -0.120537
    outer loop
      vertex 0.5 -7.90252 -2.96809
      vertex 7.5 -7.98906 -3.6808
      vertex 0.5 -7.98906 -3.6808
    endloop
  endfacet
  facet normal 0 -0.935016 0.354606
    outer loop
      vertex 0.5 -5.26552 -4.3521
      vertex 7.5 -5.01094 -3.6808
      vertex 0.5 -5.01094 -3.6808
    endloop
  endfacet
  facet normal 0 -0.935016 0.354606
    outer loop
      vertex 7.5 -5.01094 -3.6808
      vertex 0.5 -5.26552 -4.3521
      vertex 7.5 -5.26552 -4.3521
    endloop
  endfacet
  facet normal -0 0.663123 0.748511
    outer loop
      vertex 0.5 -7.19708 -4.82818
      vertex 7.5 -7.73448 -4.3521
      vertex 7.5 -7.19708 -4.82818
    endloop
  endfacet
  facet normal 0 0.663123 0.748511
    outer loop
      vertex 7.5 -7.73448 -4.3521
      vertex 0.5 -7.19708 -4.82818
      vertex 0.5 -7.73448 -4.3521
    endloop
  endfacet
  facet normal 0 -0.992709 -0.120537
    outer loop
      vertex 0.5 -5.01094 -3.6808
      vertex 7.5 -5.09748 -2.96809
      vertex 0.5 -5.09748 -2.96809
    endloop
  endfacet
  facet normal 0 -0.992709 -0.120537
    outer loop
      vertex 7.5 -5.09748 -2.96809
      vertex 0.5 -5.01094 -3.6808
      vertex 7.5 -5.01094 -3.6808
    endloop
  endfacet
  facet normal 0 0.464723 -0.885456
    outer loop
      vertex 0.5 -7.49468 -2.37723
      vertex 7.5 -6.85897 -2.04359
      vertex 7.5 -7.49468 -2.37723
    endloop
  endfacet
  facet normal 0 0.464723 -0.885456
    outer loop
      vertex 7.5 -6.85897 -2.04359
      vertex 0.5 -7.49468 -2.37723
      vertex 0.5 -6.85897 -2.04359
    endloop
  endfacet
  facet normal 0 0.822983 -0.568065
    outer loop
      vertex 7.5 -7.90252 -2.96809
      vertex 0.5 -7.49468 -2.37723
      vertex 7.5 -7.49468 -2.37723
    endloop
  endfacet
  facet normal 0 0.822983 -0.568065
    outer loop
      vertex 0.5 -7.49468 -2.37723
      vertex 7.5 -7.90252 -2.96809
      vertex 0.5 -7.90252 -2.96809
    endloop
  endfacet
  facet normal 0 0.935016 0.354606
    outer loop
      vertex 7.5 -7.73448 -4.3521
      vertex 0.5 -7.98906 -3.6808
      vertex 7.5 -7.98906 -3.6808
    endloop
  endfacet
  facet normal 0 0.935016 0.354606
    outer loop
      vertex 0.5 -7.98906 -3.6808
      vertex 7.5 -7.73448 -4.3521
      vertex 0.5 -7.73448 -4.3521
    endloop
  endfacet
  facet normal 0 0 -1
    outer loop
      vertex 0.5 -6.85897 -2.04359
      vertex 7.5 -6.14103 -2.04359
      vertex 7.5 -6.85897 -2.04359
    endloop
  endfacet
  facet normal -0 0 -1
    outer loop
      vertex 7.5 -6.14103 -2.04359
      vertex 0.5 -6.85897 -2.04359
      vertex 0.5 -6.14103 -2.04359
    endloop
  endfacet
  facet normal 0 -0.663123 0.748511
    outer loop
      vertex 0.5 -5.26552 -4.3521
      vertex 7.5 -5.80291 -4.82818
      vertex 7.5 -5.26552 -4.3521
    endloop
  endfacet
  facet normal 0 -0.663123 0.748511
    outer loop
      vertex 7.5 -5.80291 -4.82818
      vertex 0.5 -5.26552 -4.3521
      vertex 0.5 -5.80291 -4.82818
    endloop
  endfacet
  facet normal 0 -0.239317 0.970942
    outer loop
      vertex 0.5 -5.80291 -4.82818
      vertex 7.5 -6.5 -5
      vertex 7.5 -5.80291 -4.82818
    endloop
  endfacet
  facet normal 0 -0.239317 0.970942
    outer loop
      vertex 7.5 -6.5 -5
      vertex 0.5 -5.80291 -4.82818
      vertex 0.5 -6.5 -5
    endloop
  endfacet
  facet normal 0 -0.464723 -0.885456
    outer loop
      vertex 0.5 -6.14103 -2.04359
      vertex 7.5 -5.50532 -2.37723
      vertex 7.5 -6.14103 -2.04359
    endloop
  endfacet
  facet normal -0 -0.464723 -0.885456
    outer loop
      vertex 7.5 -5.50532 -2.37723
      vertex 0.5 -6.14103 -2.04359
      vertex 0.5 -5.50532 -2.37723
    endloop
  endfacet
  facet normal 0 -0.822983 -0.568065
    outer loop
      vertex 0.5 -5.09748 -2.96809
      vertex 7.5 -5.50532 -2.37723
      vertex 0.5 -5.50532 -2.37723
    endloop
  endfacet
  facet normal 0 -0.822983 -0.568065
    outer loop
      vertex 7.5 -5.50532 -2.37723
      vertex 0.5 -5.09748 -2.96809
      vertex 7.5 -5.09748 -2.96809
    endloop
  endfacet
  facet normal 0 -0.104529 -0.994522
    outer loop
      vertex 0.5 -7.22769 -6.92352
      vertex 7.5 -6.5 -7
      vertex 7.5 -7.22769 -6.92352
    endloop
  endfacet
  facet normal -0 -0.104529 -0.994522
    outer loop
      vertex 7.5 -6.5 -7
      vertex 0.5 -7.22769 -6.92352
      vertex 0.5 -6.5 -7
    endloop
  endfacet
  facet normal -0 0.104529 0.994522
    outer loop
      vertex 0.5 7.22769 -0.0764837
      vertex 7.5 6.5 1.66533e-015
      vertex 7.5 7.22769 -0.0764837
    endloop
  endfacet
  facet normal -2.20828e-016 0.104529 0.994522
    outer loop
      vertex 7.5 6.5 1.66533e-015
      vertex 0.5 7.22769 -0.0764837
      vertex 0.5 6.5 1.11022e-016
    endloop
  endfacet
  facet normal 0 0.309017 -0.951056
    outer loop
      vertex 0.5 7.22769 -6.92352
      vertex 7.5 7.92358 -6.69741
      vertex 7.5 7.22769 -6.92352
    endloop
  endfacet
  facet normal 0 0.309017 -0.951056
    outer loop
      vertex 7.5 7.92358 -6.69741
      vertex 0.5 7.22769 -6.92352
      vertex 0.5 7.92358 -6.69741
    endloop
  endfacet
  facet normal 0 0 -1
    outer loop
      vertex 7.5 -6.5 -7
      vertex 4 0 -7
      vertex 7.5 6.5 -7
    endloop
  endfacet
  facet normal 0 0 -1
    outer loop
      vertex 7.5 -6.5 -7
      vertex 3.91259 -0.831646 -7
      vertex 4 0 -7
    endloop
  endfacet
  facet normal 0 0 -1
    outer loop
      vertex 7.5 -6.5 -7
      vertex 3.65418 -1.62695 -7
      vertex 3.91259 -0.831646 -7
    endloop
  endfacet
  facet normal 0 0 -1
    outer loop
      vertex 7.5 -6.5 -7
      vertex 3.23607 -2.35114 -7
      vertex 3.65418 -1.62695 -7
    endloop
  endfacet
  facet normal 0 0 -1
    outer loop
      vertex 7.5 -6.5 -7
      vertex 2.67652 -2.97258 -7
      vertex 3.23607 -2.35114 -7
    endloop
  endfacet
  facet normal 0 0 -1
    outer loop
      vertex 7.5 -6.5 -7
      vertex 2 -3.4641 -7
      vertex 2.67652 -2.97258 -7
    endloop
  endfacet
  facet normal 0 0 -1
    outer loop
      vertex 0.5 -6.5 -7
      vertex 2 -3.4641 -7
      vertex 7.5 -6.5 -7
    endloop
  endfacet
  facet normal 0 0 -1
    outer loop
      vertex 2 -3.4641 -7
      vertex 0.5 -6.5 -7
      vertex 1.23607 -3.80423 -7
    endloop
  endfacet
  facet normal 0 0 -1
    outer loop
      vertex 1.23607 -3.80423 -7
      vertex 0.5 -6.5 -7
      vertex 0.5 -3.96068 -7
    endloop
  endfacet
  facet normal 0 0 -1
    outer loop
      vertex 3.91259 0.831646 -7
      vertex 7.5 6.5 -7
      vertex 4 0 -7
    endloop
  endfacet
  facet normal 0 0 -1
    outer loop
      vertex 3.65418 1.62695 -7
      vertex 7.5 6.5 -7
      vertex 3.91259 0.831646 -7
    endloop
  endfacet
  facet normal 0 0 -1
    outer loop
      vertex 3.23607 2.35114 -7
      vertex 7.5 6.5 -7
      vertex 3.65418 1.62695 -7
    endloop
  endfacet
  facet normal 0 0 -1
    outer loop
      vertex 2.67652 2.97258 -7
      vertex 7.5 6.5 -7
      vertex 3.23607 2.35114 -7
    endloop
  endfacet
  facet normal 0 0 -1
    outer loop
      vertex 2.10148 3.39037 -7
      vertex 7.5 6.5 -7
      vertex 2.67652 2.97258 -7
    endloop
  endfacet
  facet normal 0 0 -1
    outer loop
      vertex 2 3.4641 -7
      vertex 7.5 6.5 -7
      vertex 2.10148 3.39037 -7
    endloop
  endfacet
  facet normal 0 0 -1
    outer loop
      vertex 0.5 6.5 -7
      vertex 2 3.4641 -7
      vertex 1.88541 3.51512 -7
    endloop
  endfacet
  facet normal 0 0 -1
    outer loop
      vertex 0.5 6.5 -7
      vertex 1.88541 3.51512 -7
      vertex 1.23607 3.80423 -7
    endloop
  endfacet
  facet normal 0 0 -1
    outer loop
      vertex 0.5 6.5 -7
      vertex 1.23607 3.80423 -7
      vertex 0.5 3.96068 -7
    endloop
  endfacet
  facet normal 0 0 -1
    outer loop
      vertex 2 3.4641 -7
      vertex 0.5 6.5 -7
      vertex 7.5 6.5 -7
    endloop
  endfacet
  facet normal -2.22045e-016 0 1
    outer loop
      vertex 7.5 6.5 1.66533e-015
      vertex 4 0 8.88178e-016
      vertex 7.5 -6.5 1.66533e-015
    endloop
  endfacet
  facet normal -2.22045e-016 0 1
    outer loop
      vertex 7.5 6.5 1.66533e-015
      vertex 3.91259 0.831646 8.6877e-016
      vertex 4 0 8.88178e-016
    endloop
  endfacet
  facet normal -2.22045e-016 0 1
    outer loop
      vertex 7.5 6.5 1.66533e-015
      vertex 3.65418 1.62695 8.11391e-016
      vertex 3.91259 0.831646 8.6877e-016
    endloop
  endfacet
  facet normal -2.22045e-016 0 1
    outer loop
      vertex 7.5 6.5 1.66533e-015
      vertex 3.23607 2.35114 7.18551e-016
      vertex 3.65418 1.62695 8.11391e-016
    endloop
  endfacet
  facet normal -2.22045e-016 0 1
    outer loop
      vertex 7.5 6.5 1.66533e-015
      vertex 2.67652 2.97258 5.94307e-016
      vertex 3.23607 2.35114 7.18551e-016
    endloop
  endfacet
  facet normal -2.22045e-016 0 1
    outer loop
      vertex 7.5 6.5 1.66533e-015
      vertex 2.33826 3.21834 5.19198e-016
      vertex 2.67652 2.97258 5.94307e-016
    endloop
  endfacet
  facet normal -2.22045e-016 0 1
    outer loop
      vertex 7.5 6.5 1.66533e-015
      vertex 2 3.4641 4.44089e-016
      vertex 2.33826 3.21834 5.19198e-016
    endloop
  endfacet
  facet normal -2.22045e-016 0 1
    outer loop
      vertex 0.5 6.5 1.11022e-016
      vertex 2 3.4641 4.44089e-016
      vertex 7.5 6.5 1.66533e-015
    endloop
  endfacet
  facet normal -2.22045e-016 0 1
    outer loop
      vertex 2 3.4641 4.44089e-016
      vertex 0.5 6.5 1.11022e-016
      vertex 1.61803 3.63416 3.59276e-016
    endloop
  endfacet
  facet normal -2.22045e-016 0 1
    outer loop
      vertex 1.61803 3.63416 3.59276e-016
      vertex 0.5 6.5 1.11022e-016
      vertex 1.23607 3.80423 2.74462e-016
    endloop
  endfacet
  facet normal -2.22045e-016 0 1
    outer loop
      vertex 1.23607 3.80423 2.74462e-016
      vertex 0.5 6.5 1.11022e-016
      vertex 0.5 3.96068 1.11022e-016
    endloop
  endfacet
  facet normal -2.22045e-016 0 1
    outer loop
      vertex 3.91259 -0.831646 8.6877e-016
      vertex 7.5 -6.5 1.66533e-015
      vertex 4 0 8.88178e-016
    endloop
  endfacet
  facet normal -2.22045e-016 0 1
    outer loop
      vertex 3.65418 -1.62695 8.11391e-016
      vertex 7.5 -6.5 1.66533e-015
      vertex 3.91259 -0.831646 8.6877e-016
    endloop
  endfacet
  facet normal -2.22045e-016 0 1
    outer loop
      vertex 3.23607 -2.35114 7.18551e-016
      vertex 7.5 -6.5 1.66533e-015
      vertex 3.65418 -1.62695 8.11391e-016
    endloop
  endfacet
  facet normal -2.22045e-016 0 1
    outer loop
      vertex 2.67652 -2.97258 5.94307e-016
      vertex 7.5 -6.5 1.66533e-015
      vertex 3.23607 -2.35114 7.18551e-016
    endloop
  endfacet
  facet normal -2.22045e-016 0 1
    outer loop
      vertex 2 -3.4641 4.44089e-016
      vertex 7.5 -6.5 1.66533e-015
      vertex 2.67652 -2.97258 5.94307e-016
    endloop
  endfacet
  facet normal -2.22045e-016 0 1
    outer loop
      vertex 0.5 -6.5 1.11022e-016
      vertex 2 -3.4641 4.44089e-016
      vertex 1.23607 -3.80423 2.74462e-016
    endloop
  endfacet
  facet normal -2.22045e-016 0 1
    outer loop
      vertex 0.5 -6.5 1.11022e-016
      vertex 1.23607 -3.80423 2.74462e-016
      vertex 0.5 -3.96068 1.11022e-016
    endloop
  endfacet
  facet normal -2.22045e-016 0 1
    outer loop
      vertex 2 -3.4641 4.44089e-016
      vertex 0.5 -6.5 1.11022e-016
      vertex 7.5 -6.5 1.66533e-015
    endloop
  endfacet
  facet normal 0 0.104529 -0.994522
    outer loop
      vertex 0.5 6.5 -7
      vertex 7.5 7.22769 -6.92352
      vertex 7.5 6.5 -7
    endloop
  endfacet
  facet normal 0 0.104529 -0.994522
    outer loop
      vertex 7.5 7.22769 -6.92352
      vertex 0.5 6.5 -7
      vertex 0.5 7.22769 -6.92352
    endloop
  endfacet
  facet normal 0 1 -0
    outer loop
      vertex 7.5 9.98083 -3.86585
      vertex 0.5 9.98083 -3.13415
      vertex 7.5 9.98083 -3.13415
    endloop
  endfacet
  facet normal 0 1 0
    outer loop
      vertex 0.5 9.98083 -3.13415
      vertex 7.5 9.98083 -3.86585
      vertex 0.5 9.98083 -3.86585
    endloop
  endfacet
  facet normal 0 0.809017 -0.587786
    outer loop
      vertex 7.5 9.10101 -5.84196
      vertex 0.5 9.53109 -5.25
      vertex 7.5 9.53109 -5.25
    endloop
  endfacet
  facet normal 0 0.809017 -0.587786
    outer loop
      vertex 0.5 9.53109 -5.25
      vertex 7.5 9.10101 -5.84196
      vertex 0.5 9.10101 -5.84196
    endloop
  endfacet
  facet normal -2.20828e-016 -0.104529 0.994522
    outer loop
      vertex 0.5 -6.5 1.11022e-016
      vertex 7.5 -7.22769 -0.0764837
      vertex 7.5 -6.5 1.66533e-015
    endloop
  endfacet
  facet normal 0 -0.104529 0.994522
    outer loop
      vertex 7.5 -7.22769 -0.0764837
      vertex 0.5 -6.5 1.11022e-016
      vertex 0.5 -7.22769 -0.0764837
    endloop
  endfacet
  facet normal -1 0 0
    outer loop
      vertex 0.5 -3.96068 -7
      vertex 0.5 -5.01094 -3.6808
      vertex 0.5 -3.96068 1.11022e-016
    endloop
  endfacet
  facet normal -1 0 0
    outer loop
      vertex 0.5 -3.96068 -7
      vertex 0.5 -5.26552 -4.3521
      vertex 0.5 -5.01094 -3.6808
    endloop
  endfacet
  facet normal -1 0 0
    outer loop
      vertex 0.5 -3.96068 -7
      vertex 0.5 -5.80291 -4.82818
      vertex 0.5 -5.26552 -4.3521
    endloop
  endfacet
  facet normal -1 0 0
    outer loop
      vertex 0.5 -6.5 -7
      vertex 0.5 -5.80291 -4.82818
      vertex 0.5 -3.96068 -7
    endloop
  endfacet
  facet normal -1 0 0
    outer loop
      vertex 0.5 -6.5 -7
      vertex 0.5 -6.5 -5
      vertex 0.5 -5.80291 -4.82818
    endloop
  endfacet
  facet normal -1 0 0
    outer loop
      vertex 0.5 -7.22769 -6.92352
      vertex 0.5 -6.5 -5
      vertex 0.5 -6.5 -7
    endloop
  endfacet
  facet normal -1 -0 0
    outer loop
      vertex 0.5 -6.5 -5
      vertex 0.5 -7.22769 -6.92352
      vertex 0.5 -7.19708 -4.82818
    endloop
  endfacet
  facet normal -1 0 0
    outer loop
      vertex 0.5 -7.92358 -6.69741
      vertex 0.5 -7.19708 -4.82818
      vertex 0.5 -7.22769 -6.92352
    endloop
  endfacet
  facet normal -1 0 0
    outer loop
      vertex 0.5 -8.55725 -6.33156
      vertex 0.5 -7.19708 -4.82818
      vertex 0.5 -7.92358 -6.69741
    endloop
  endfacet
  facet normal -1 -0 0
    outer loop
      vertex 0.5 -7.19708 -4.82818
      vertex 0.5 -8.55725 -6.33156
      vertex 0.5 -7.73448 -4.3521
    endloop
  endfacet
  facet normal -1 0 0
    outer loop
      vertex 0.5 -9.10101 -5.84196
      vertex 0.5 -7.73448 -4.3521
      vertex 0.5 -8.55725 -6.33156
    endloop
  endfacet
  facet normal -1 0 0
    outer loop
      vertex 0.5 -5.09748 -2.96809
      vertex 0.5 -3.96068 1.11022e-016
      vertex 0.5 -5.01094 -3.6808
    endloop
  endfacet
  facet normal -1 0 0
    outer loop
      vertex 0.5 -5.50532 -2.37723
      vertex 0.5 -3.96068 1.11022e-016
      vertex 0.5 -5.09748 -2.96809
    endloop
  endfacet
  facet normal -1 0 0
    outer loop
      vertex 0.5 -6.14103 -2.04359
      vertex 0.5 -3.96068 1.11022e-016
      vertex 0.5 -5.50532 -2.37723
    endloop
  endfacet
  facet normal -1 0 0
    outer loop
      vertex 0.5 -6.14103 -2.04359
      vertex 0.5 -6.5 1.11022e-016
      vertex 0.5 -3.96068 1.11022e-016
    endloop
  endfacet
  facet normal -1 0 0
    outer loop
      vertex 0.5 -6.85897 -2.04359
      vertex 0.5 -6.5 1.11022e-016
      vertex 0.5 -6.14103 -2.04359
    endloop
  endfacet
  facet normal -1 0 0
    outer loop
      vertex 0.5 -6.85897 -2.04359
      vertex 0.5 -7.22769 -0.0764837
      vertex 0.5 -6.5 1.11022e-016
    endloop
  endfacet
  facet normal -1 0 0
    outer loop
      vertex 0.5 -7.92358 -0.302591
      vertex 0.5 -6.85897 -2.04359
      vertex 0.5 -7.49468 -2.37723
    endloop
  endfacet
  facet normal -1 0 0
    outer loop
      vertex 0.5 -9.53109 -1.75
      vertex 0.5 -7.49468 -2.37723
      vertex 0.5 -7.90252 -2.96809
    endloop
  endfacet
  facet normal -1 0 0
    outer loop
      vertex 0.5 -6.85897 -2.04359
      vertex 0.5 -7.92358 -0.302591
      vertex 0.5 -7.22769 -0.0764837
    endloop
  endfacet
  facet normal -1 0 0
    outer loop
      vertex 0.5 -9.98083 -3.13415
      vertex 0.5 -7.90252 -2.96809
      vertex 0.5 -7.98906 -3.6808
    endloop
  endfacet
  facet normal -1 0 0
    outer loop
      vertex 0.5 -9.53109 -5.25
      vertex 0.5 -7.73448 -4.3521
      vertex 0.5 -9.10101 -5.84196
    endloop
  endfacet
  facet normal -1 0 0
    outer loop
      vertex 0.5 -7.49468 -2.37723
      vertex 0.5 -8.55725 -0.668441
      vertex 0.5 -7.92358 -0.302591
    endloop
  endfacet
  facet normal -1 0 0
    outer loop
      vertex 0.5 -9.8287 -4.58156
      vertex 0.5 -7.73448 -4.3521
      vertex 0.5 -9.53109 -5.25
    endloop
  endfacet
  facet normal -1 0 0
    outer loop
      vertex 0.5 -7.49468 -2.37723
      vertex 0.5 -9.10101 -1.15804
      vertex 0.5 -8.55725 -0.668441
    endloop
  endfacet
  facet normal -1 -0 0
    outer loop
      vertex 0.5 -7.73448 -4.3521
      vertex 0.5 -9.8287 -4.58156
      vertex 0.5 -7.98906 -3.6808
    endloop
  endfacet
  facet normal -1 0 0
    outer loop
      vertex 0.5 -7.49468 -2.37723
      vertex 0.5 -9.53109 -1.75
      vertex 0.5 -9.10101 -1.15804
    endloop
  endfacet
  facet normal -1 0 0
    outer loop
      vertex 0.5 -9.98083 -3.86585
      vertex 0.5 -7.98906 -3.6808
      vertex 0.5 -9.8287 -4.58156
    endloop
  endfacet
  facet normal -1 0 0
    outer loop
      vertex 0.5 -7.90252 -2.96809
      vertex 0.5 -9.8287 -2.41844
      vertex 0.5 -9.53109 -1.75
    endloop
  endfacet
  facet normal -1 0 0
    outer loop
      vertex 0.5 -9.98083 -3.13415
      vertex 0.5 -7.98906 -3.6808
      vertex 0.5 -9.98083 -3.86585
    endloop
  endfacet
  facet normal -1 -0 0
    outer loop
      vertex 0.5 -7.90252 -2.96809
      vertex 0.5 -9.98083 -3.13415
      vertex 0.5 -9.8287 -2.41844
    endloop
  endfacet
  facet normal -1 0 0
    outer loop
      vertex 0.5 7.98906 -3.6808
      vertex 0.5 9.98083 -3.86585
      vertex 0.5 9.8287 -4.58156
    endloop
  endfacet
  facet normal -1 0 0
    outer loop
      vertex 0.5 9.98083 -3.86585
      vertex 0.5 7.98906 -3.6808
      vertex 0.5 9.98083 -3.13415
    endloop
  endfacet
  facet normal -1 0 0
    outer loop
      vertex 0.5 7.73448 -4.3521
      vertex 0.5 9.8287 -4.58156
      vertex 0.5 9.53109 -5.25
    endloop
  endfacet
  facet normal -1 0 0
    outer loop
      vertex 0.5 7.90252 -2.96809
      vertex 0.5 9.98083 -3.13415
      vertex 0.5 7.98906 -3.6808
    endloop
  endfacet
  facet normal -1 0 0
    outer loop
      vertex 0.5 7.73448 -4.3521
      vertex 0.5 9.53109 -5.25
      vertex 0.5 9.10101 -5.84196
    endloop
  endfacet
  facet normal -1 0 0
    outer loop
      vertex 0.5 9.98083 -3.13415
      vertex 0.5 7.90252 -2.96809
      vertex 0.5 9.8287 -2.41844
    endloop
  endfacet
  facet normal -1 0 0
    outer loop
      vertex 0.5 7.73448 -4.3521
      vertex 0.5 9.10101 -5.84196
      vertex 0.5 8.55725 -6.33156
    endloop
  endfacet
  facet normal -1 -0 0
    outer loop
      vertex 0.5 9.8287 -2.41844
      vertex 0.5 7.90252 -2.96809
      vertex 0.5 9.53109 -1.75
    endloop
  endfacet
  facet normal -1 0 0
    outer loop
      vertex 0.5 7.49468 -2.37723
      vertex 0.5 9.53109 -1.75
      vertex 0.5 7.90252 -2.96809
    endloop
  endfacet
  facet normal -1 0 0
    outer loop
      vertex 0.5 7.19708 -4.82818
      vertex 0.5 8.55725 -6.33156
      vertex 0.5 7.92358 -6.69741
    endloop
  endfacet
  facet normal -1 0 0
    outer loop
      vertex 0.5 9.8287 -4.58156
      vertex 0.5 7.73448 -4.3521
      vertex 0.5 7.98906 -3.6808
    endloop
  endfacet
  facet normal -1 0 0
    outer loop
      vertex 0.5 7.19708 -4.82818
      vertex 0.5 7.92358 -6.69741
      vertex 0.5 7.22769 -6.92352
    endloop
  endfacet
  facet normal -1 0 0
    outer loop
      vertex 0.5 8.55725 -6.33156
      vertex 0.5 7.19708 -4.82818
      vertex 0.5 7.73448 -4.3521
    endloop
  endfacet
  facet normal -1 0 0
    outer loop
      vertex 0.5 6.5 -5
      vertex 0.5 7.22769 -6.92352
      vertex 0.5 6.5 -7
    endloop
  endfacet
  facet normal -1 0 0
    outer loop
      vertex 0.5 7.22769 -6.92352
      vertex 0.5 6.5 -5
      vertex 0.5 7.19708 -4.82818
    endloop
  endfacet
  facet normal -1 0 0
    outer loop
      vertex 0.5 6.5 -7
      vertex 0.5 5.80291 -4.82818
      vertex 0.5 6.5 -5
    endloop
  endfacet
  facet normal -1 0 0
    outer loop
      vertex 0.5 3.96068 -7
      vertex 0.5 5.80291 -4.82818
      vertex 0.5 6.5 -7
    endloop
  endfacet
  facet normal -1 -0 0
    outer loop
      vertex 0.5 5.26552 -4.3521
      vertex 0.5 3.96068 -7
      vertex 0.5 5.01094 -3.6808
    endloop
  endfacet
  facet normal -1 -0 0
    outer loop
      vertex 0.5 5.80291 -4.82818
      vertex 0.5 3.96068 -7
      vertex 0.5 5.26552 -4.3521
    endloop
  endfacet
  facet normal -1 -0 0
    outer loop
      vertex 0.5 9.53109 -1.75
      vertex 0.5 7.49468 -2.37723
      vertex 0.5 9.10101 -1.15804
    endloop
  endfacet
  facet normal -1 -0 0
    outer loop
      vertex 0.5 9.10101 -1.15804
      vertex 0.5 7.49468 -2.37723
      vertex 0.5 8.55725 -0.668441
    endloop
  endfacet
  facet normal -1 -0 0
    outer loop
      vertex 0.5 8.55725 -0.668441
      vertex 0.5 7.49468 -2.37723
      vertex 0.5 7.92358 -0.302591
    endloop
  endfacet
  facet normal -1 0 0
    outer loop
      vertex 0.5 6.85897 -2.04359
      vertex 0.5 7.92358 -0.302591
      vertex 0.5 7.49468 -2.37723
    endloop
  endfacet
  facet normal -1 -0 0
    outer loop
      vertex 0.5 7.92358 -0.302591
      vertex 0.5 6.85897 -2.04359
      vertex 0.5 7.22769 -0.0764837
    endloop
  endfacet
  facet normal -1 0 0
    outer loop
      vertex 0.5 6.85897 -2.04359
      vertex 0.5 6.5 1.11022e-016
      vertex 0.5 7.22769 -0.0764837
    endloop
  endfacet
  facet normal -1 0 0
    outer loop
      vertex 0.5 6.14103 -2.04359
      vertex 0.5 6.5 1.11022e-016
      vertex 0.5 6.85897 -2.04359
    endloop
  endfacet
  facet normal -1 0 0
    outer loop
      vertex 0.5 3.96068 1.11022e-016
      vertex 0.5 6.14103 -2.04359
      vertex 0.5 5.50532 -2.37723
    endloop
  endfacet
  facet normal -1 0 0
    outer loop
      vertex 0.5 3.96068 1.11022e-016
      vertex 0.5 5.50532 -2.37723
      vertex 0.5 5.09748 -2.96809
    endloop
  endfacet
  facet normal -1 0 0
    outer loop
      vertex 0.5 3.96068 1.11022e-016
      vertex 0.5 5.01094 -3.6808
      vertex 0.5 3.96068 -7
    endloop
  endfacet
  facet normal -1 0 0
    outer loop
      vertex 0.5 6.14103 -2.04359
      vertex 0.5 3.96068 1.11022e-016
      vertex 0.5 6.5 1.11022e-016
    endloop
  endfacet
  facet normal -1 0 0
    outer loop
      vertex 0.5 5.01094 -3.6808
      vertex 0.5 3.96068 1.11022e-016
      vertex 0.5 5.09748 -2.96809
    endloop
  endfacet
  facet normal 1 -0 0
    outer loop
      vertex 7.5 7.90252 -2.96809
      vertex 7.5 9.98083 -3.13415
      vertex 7.5 9.8287 -2.41844
    endloop
  endfacet
  facet normal 1 0 0
    outer loop
      vertex 7.5 9.98083 -3.13415
      vertex 7.5 7.98906 -3.6808
      vertex 7.5 9.98083 -3.86585
    endloop
  endfacet
  facet normal 1 0 0
    outer loop
      vertex 7.5 7.90252 -2.96809
      vertex 7.5 9.8287 -2.41844
      vertex 7.5 9.53109 -1.75
    endloop
  endfacet
  facet normal 1 0 0
    outer loop
      vertex 7.5 9.98083 -3.86585
      vertex 7.5 7.98906 -3.6808
      vertex 7.5 9.8287 -4.58156
    endloop
  endfacet
  facet normal 1 0 0
    outer loop
      vertex 7.5 7.49468 -2.37723
      vertex 7.5 9.53109 -1.75
      vertex 7.5 9.10101 -1.15804
    endloop
  endfacet
  facet normal 1 -0 0
    outer loop
      vertex 7.5 7.73448 -4.3521
      vertex 7.5 9.8287 -4.58156
      vertex 7.5 7.98906 -3.6808
    endloop
  endfacet
  facet normal 1 0 0
    outer loop
      vertex 7.5 7.49468 -2.37723
      vertex 7.5 9.10101 -1.15804
      vertex 7.5 8.55725 -0.668441
    endloop
  endfacet
  facet normal 1 0 0
    outer loop
      vertex 7.5 9.8287 -4.58156
      vertex 7.5 7.73448 -4.3521
      vertex 7.5 9.53109 -5.25
    endloop
  endfacet
  facet normal 1 0 0
    outer loop
      vertex 7.5 9.53109 -5.25
      vertex 7.5 7.73448 -4.3521
      vertex 7.5 9.10101 -5.84196
    endloop
  endfacet
  facet normal 1 0 0
    outer loop
      vertex 7.5 7.49468 -2.37723
      vertex 7.5 8.55725 -0.668441
      vertex 7.5 7.92358 -0.302591
    endloop
  endfacet
  facet normal 1 0 0
    outer loop
      vertex 7.5 9.98083 -3.13415
      vertex 7.5 7.90252 -2.96809
      vertex 7.5 7.98906 -3.6808
    endloop
  endfacet
  facet normal 1 0 0
    outer loop
      vertex 7.5 9.53109 -1.75
      vertex 7.5 7.49468 -2.37723
      vertex 7.5 7.90252 -2.96809
    endloop
  endfacet
  facet normal 1 0 0
    outer loop
      vertex 7.5 6.85897 -2.04359
      vertex 7.5 7.92358 -0.302591
      vertex 7.5 7.22769 -0.0764837
    endloop
  endfacet
  facet normal 1 0 0
    outer loop
      vertex 7.5 7.92358 -0.302591
      vertex 7.5 6.85897 -2.04359
      vertex 7.5 7.49468 -2.37723
    endloop
  endfacet
  facet normal 1 0 0
    outer loop
      vertex 7.5 6.5 1.66533e-015
      vertex 7.5 6.85897 -2.04359
      vertex 7.5 7.22769 -0.0764837
    endloop
  endfacet
  facet normal 1 0 0
    outer loop
      vertex 7.5 6.5 1.66533e-015
      vertex 7.5 6.14103 -2.04359
      vertex 7.5 6.85897 -2.04359
    endloop
  endfacet
  facet normal 1 0 0
    outer loop
      vertex 7.5 6.5 1.66533e-015
      vertex 7.5 5.50532 -2.37723
      vertex 7.5 6.14103 -2.04359
    endloop
  endfacet
  facet normal 1 0 0
    outer loop
      vertex 7.5 -5.50532 -2.37723
      vertex 7.5 5.50532 -2.37723
      vertex 7.5 6.5 1.66533e-015
    endloop
  endfacet
  facet normal 1 0 0
    outer loop
      vertex 7.5 5.09748 -2.96809
      vertex 7.5 -5.01094 -3.6808
      vertex 7.5 5.01094 -3.6808
    endloop
  endfacet
  facet normal 1 0 0
    outer loop
      vertex 7.5 5.50532 -2.37723
      vertex 7.5 -5.50532 -2.37723
      vertex 7.5 5.09748 -2.96809
    endloop
  endfacet
  facet normal 1 0 0
    outer loop
      vertex 7.5 5.09748 -2.96809
      vertex 7.5 -5.09748 -2.96809
      vertex 7.5 -5.01094 -3.6808
    endloop
  endfacet
  facet normal 1 0 0
    outer loop
      vertex 7.5 5.09748 -2.96809
      vertex 7.5 -5.50532 -2.37723
      vertex 7.5 -5.09748 -2.96809
    endloop
  endfacet
  facet normal 1 -0 0
    outer loop
      vertex 7.5 -6.5 1.66533e-015
      vertex 7.5 -5.50532 -2.37723
      vertex 7.5 6.5 1.66533e-015
    endloop
  endfacet
  facet normal 1 0 0
    outer loop
      vertex 7.5 -5.50532 -2.37723
      vertex 7.5 -6.5 1.66533e-015
      vertex 7.5 -6.14103 -2.04359
    endloop
  endfacet
  facet normal 1 0 0
    outer loop
      vertex 7.5 -6.5 1.66533e-015
      vertex 7.5 -6.85897 -2.04359
      vertex 7.5 -6.14103 -2.04359
    endloop
  endfacet
  facet normal 1 -0 0
    outer loop
      vertex 7.5 -7.22769 -0.0764837
      vertex 7.5 -6.85897 -2.04359
      vertex 7.5 -6.5 1.66533e-015
    endloop
  endfacet
  facet normal 1 -0 0
    outer loop
      vertex 7.5 -7.92358 -0.302591
      vertex 7.5 -6.85897 -2.04359
      vertex 7.5 -7.22769 -0.0764837
    endloop
  endfacet
  facet normal 1 0 0
    outer loop
      vertex 7.5 -6.85897 -2.04359
      vertex 7.5 -7.92358 -0.302591
      vertex 7.5 -7.49468 -2.37723
    endloop
  endfacet
  facet normal 1 -0 0
    outer loop
      vertex 7.5 -8.55725 -0.668441
      vertex 7.5 -7.49468 -2.37723
      vertex 7.5 -7.92358 -0.302591
    endloop
  endfacet
  facet normal 1 -0 0
    outer loop
      vertex 7.5 -9.10101 -1.15804
      vertex 7.5 -7.49468 -2.37723
      vertex 7.5 -8.55725 -0.668441
    endloop
  endfacet
  facet normal 1 -0 0
    outer loop
      vertex 7.5 -9.53109 -1.75
      vertex 7.5 -7.49468 -2.37723
      vertex 7.5 -9.10101 -1.15804
    endloop
  endfacet
  facet normal 1 0 0
    outer loop
      vertex 7.5 9.10101 -5.84196
      vertex 7.5 7.73448 -4.3521
      vertex 7.5 8.55725 -6.33156
    endloop
  endfacet
  facet normal 1 -0 0
    outer loop
      vertex 7.5 7.19708 -4.82818
      vertex 7.5 8.55725 -6.33156
      vertex 7.5 7.73448 -4.3521
    endloop
  endfacet
  facet normal 1 0 0
    outer loop
      vertex 7.5 8.55725 -6.33156
      vertex 7.5 7.19708 -4.82818
      vertex 7.5 7.92358 -6.69741
    endloop
  endfacet
  facet normal 1 0 0
    outer loop
      vertex 7.5 7.92358 -6.69741
      vertex 7.5 7.19708 -4.82818
      vertex 7.5 7.22769 -6.92352
    endloop
  endfacet
  facet normal 1 -0 0
    outer loop
      vertex 7.5 6.5 -5
      vertex 7.5 7.22769 -6.92352
      vertex 7.5 7.19708 -4.82818
    endloop
  endfacet
  facet normal 1 0 0
    outer loop
      vertex 7.5 6.5 -5
      vertex 7.5 6.5 -7
      vertex 7.5 7.22769 -6.92352
    endloop
  endfacet
  facet normal 1 0 0
    outer loop
      vertex 7.5 5.80291 -4.82818
      vertex 7.5 6.5 -7
      vertex 7.5 6.5 -5
    endloop
  endfacet
  facet normal 1 0 0
    outer loop
      vertex 7.5 5.26552 -4.3521
      vertex 7.5 6.5 -7
      vertex 7.5 5.80291 -4.82818
    endloop
  endfacet
  facet normal 1 -0 0
    outer loop
      vertex 7.5 -5.01094 -3.6808
      vertex 7.5 5.26552 -4.3521
      vertex 7.5 5.01094 -3.6808
    endloop
  endfacet
  facet normal 1 0 0
    outer loop
      vertex 7.5 -5.26552 -4.3521
      vertex 7.5 5.26552 -4.3521
      vertex 7.5 -5.01094 -3.6808
    endloop
  endfacet
  facet normal 1 0 0
    outer loop
      vertex 7.5 5.26552 -4.3521
      vertex 7.5 -5.26552 -4.3521
      vertex 7.5 6.5 -7
    endloop
  endfacet
  facet normal 1 0 0
    outer loop
      vertex 7.5 -6.5 -7
      vertex 7.5 -5.26552 -4.3521
      vertex 7.5 -5.80291 -4.82818
    endloop
  endfacet
  facet normal 1 0 0
    outer loop
      vertex 7.5 -6.5 -7
      vertex 7.5 -5.80291 -4.82818
      vertex 7.5 -6.5 -5
    endloop
  endfacet
  facet normal 1 0 0
    outer loop
      vertex 7.5 -5.26552 -4.3521
      vertex 7.5 -6.5 -7
      vertex 7.5 6.5 -7
    endloop
  endfacet
  facet normal 1 0 0
    outer loop
      vertex 7.5 -7.22769 -6.92352
      vertex 7.5 -6.5 -5
      vertex 7.5 -7.19708 -4.82818
    endloop
  endfacet
  facet normal 1 0 0
    outer loop
      vertex 7.5 -6.5 -5
      vertex 7.5 -7.22769 -6.92352
      vertex 7.5 -6.5 -7
    endloop
  endfacet
  facet normal 1 0 0
    outer loop
      vertex 7.5 -8.55725 -6.33156
      vertex 7.5 -7.19708 -4.82818
      vertex 7.5 -7.73448 -4.3521
    endloop
  endfacet
  facet normal 1 0 0
    outer loop
      vertex 7.5 -7.19708 -4.82818
      vertex 7.5 -7.92358 -6.69741
      vertex 7.5 -7.22769 -6.92352
    endloop
  endfacet
  facet normal 1 0 0
    outer loop
      vertex 7.5 -9.8287 -4.58156
      vertex 7.5 -7.73448 -4.3521
      vertex 7.5 -7.98906 -3.6808
    endloop
  endfacet
  facet normal 1 0 0
    outer loop
      vertex 7.5 -7.49468 -2.37723
      vertex 7.5 -9.53109 -1.75
      vertex 7.5 -7.90252 -2.96809
    endloop
  endfacet
  facet normal 1 0 0
    outer loop
      vertex 7.5 -7.19708 -4.82818
      vertex 7.5 -8.55725 -6.33156
      vertex 7.5 -7.92358 -6.69741
    endloop
  endfacet
  facet normal 1 -0 0
    outer loop
      vertex 7.5 -9.8287 -2.41844
      vertex 7.5 -7.90252 -2.96809
      vertex 7.5 -9.53109 -1.75
    endloop
  endfacet
  facet normal 1 0 0
    outer loop
      vertex 7.5 -7.73448 -4.3521
      vertex 7.5 -9.10101 -5.84196
      vertex 7.5 -8.55725 -6.33156
    endloop
  endfacet
  facet normal 1 0 0
    outer loop
      vertex 7.5 -9.98083 -3.13415
      vertex 7.5 -7.90252 -2.96809
      vertex 7.5 -9.8287 -2.41844
    endloop
  endfacet
  facet normal 1 0 0
    outer loop
      vertex 7.5 -7.73448 -4.3521
      vertex 7.5 -9.53109 -5.25
      vertex 7.5 -9.10101 -5.84196
    endloop
  endfacet
  facet normal 1 0 0
    outer loop
      vertex 7.5 -7.90252 -2.96809
      vertex 7.5 -9.98083 -3.13415
      vertex 7.5 -7.98906 -3.6808
    endloop
  endfacet
  facet normal 1 0 0
    outer loop
      vertex 7.5 -7.73448 -4.3521
      vertex 7.5 -9.8287 -4.58156
      vertex 7.5 -9.53109 -5.25
    endloop
  endfacet
  facet normal 1 0 0
    outer loop
      vertex 7.5 -9.98083 -3.86585
      vertex 7.5 -7.98906 -3.6808
      vertex 7.5 -9.98083 -3.13415
    endloop
  endfacet
  facet normal 1 0 0
    outer loop
      vertex 7.5 -7.98906 -3.6808
      vertex 7.5 -9.98083 -3.86585
      vertex 7.5 -9.8287 -4.58156
    endloop
  endfacet
  facet normal 0 0.809017 0.587785
    outer loop
      vertex 7.5 9.53109 -1.75
      vertex 0.5 9.10101 -1.15804
      vertex 7.5 9.10101 -1.15804
    endloop
  endfacet
  facet normal 0 0.809017 0.587785
    outer loop
      vertex 0.5 9.10101 -1.15804
      vertex 7.5 9.53109 -1.75
      vertex 0.5 9.53109 -1.75
    endloop
  endfacet
  facet normal 0 0.499999 -0.866026
    outer loop
      vertex 0.5 7.92358 -6.69741
      vertex 7.5 8.55725 -6.33156
      vertex 7.5 7.92358 -6.69741
    endloop
  endfacet
  facet normal 0 0.499999 -0.866026
    outer loop
      vertex 7.5 8.55725 -6.33156
      vertex 0.5 7.92358 -6.69741
      vertex 0.5 8.55725 -6.33156
    endloop
  endfacet
  facet normal 0 -0.66913 -0.743145
    outer loop
      vertex 0.5 -9.10101 -5.84196
      vertex 7.5 -8.55725 -6.33156
      vertex 7.5 -9.10101 -5.84196
    endloop
  endfacet
  facet normal -0 -0.66913 -0.743145
    outer loop
      vertex 7.5 -8.55725 -6.33156
      vertex 0.5 -9.10101 -5.84196
      vertex 0.5 -8.55725 -6.33156
    endloop
  endfacet
  facet normal 0 -0.309017 0.951056
    outer loop
      vertex 0.5 -7.22769 -0.0764837
      vertex 7.5 -7.92358 -0.302591
      vertex 7.5 -7.22769 -0.0764837
    endloop
  endfacet
  facet normal 0 -0.309017 0.951056
    outer loop
      vertex 7.5 -7.92358 -0.302591
      vertex 0.5 -7.22769 -0.0764837
      vertex 0.5 -7.92358 -0.302591
    endloop
  endfacet
  facet normal -0 0.499999 0.866026
    outer loop
      vertex 0.5 8.55725 -0.668441
      vertex 7.5 7.92358 -0.302591
      vertex 7.5 8.55725 -0.668441
    endloop
  endfacet
  facet normal 0 0.499999 0.866026
    outer loop
      vertex 7.5 7.92358 -0.302591
      vertex 0.5 8.55725 -0.668441
      vertex 0.5 7.92358 -0.302591
    endloop
  endfacet
  facet normal 0 0.913546 0.406736
    outer loop
      vertex 7.5 9.8287 -2.41844
      vertex 0.5 9.53109 -1.75
      vertex 7.5 9.53109 -1.75
    endloop
  endfacet
  facet normal 0 0.913546 0.406736
    outer loop
      vertex 0.5 9.53109 -1.75
      vertex 7.5 9.8287 -2.41844
      vertex 0.5 9.8287 -2.41844
    endloop
  endfacet
  facet normal 0 0.978147 0.207912
    outer loop
      vertex 7.5 9.98083 -3.13415
      vertex 0.5 9.8287 -2.41844
      vertex 7.5 9.8287 -2.41844
    endloop
  endfacet
  facet normal 0 0.978147 0.207912
    outer loop
      vertex 0.5 9.8287 -2.41844
      vertex 7.5 9.98083 -3.13415
      vertex 0.5 9.98083 -3.13415
    endloop
  endfacet
  facet normal -0 0.66913 0.743145
    outer loop
      vertex 0.5 9.10101 -1.15804
      vertex 7.5 8.55725 -0.668441
      vertex 7.5 9.10101 -1.15804
    endloop
  endfacet
  facet normal 0 0.66913 0.743145
    outer loop
      vertex 7.5 8.55725 -0.668441
      vertex 0.5 9.10101 -1.15804
      vertex 0.5 8.55725 -0.668441
    endloop
  endfacet
  facet normal -0 0.309017 0.951056
    outer loop
      vertex 0.5 7.92358 -0.302591
      vertex 7.5 7.22769 -0.0764837
      vertex 7.5 7.92358 -0.302591
    endloop
  endfacet
  facet normal 0 0.309017 0.951056
    outer loop
      vertex 7.5 7.22769 -0.0764837
      vertex 0.5 7.92358 -0.302591
      vertex 0.5 7.22769 -0.0764837
    endloop
  endfacet
  facet normal 0 0.913546 -0.406736
    outer loop
      vertex 7.5 9.53109 -5.25
      vertex 0.5 9.8287 -4.58156
      vertex 7.5 9.8287 -4.58156
    endloop
  endfacet
  facet normal 0 0.913546 -0.406736
    outer loop
      vertex 0.5 9.8287 -4.58156
      vertex 7.5 9.53109 -5.25
      vertex 0.5 9.53109 -5.25
    endloop
  endfacet
  facet normal 0 0.978147 -0.207912
    outer loop
      vertex 7.5 9.8287 -4.58156
      vertex 0.5 9.98083 -3.86585
      vertex 7.5 9.98083 -3.86585
    endloop
  endfacet
  facet normal 0 0.978147 -0.207912
    outer loop
      vertex 0.5 9.98083 -3.86585
      vertex 7.5 9.8287 -4.58156
      vertex 0.5 9.8287 -4.58156
    endloop
  endfacet
  facet normal 0 0.66913 -0.743145
    outer loop
      vertex 0.5 8.55725 -6.33156
      vertex 7.5 9.10101 -5.84196
      vertex 7.5 8.55725 -6.33156
    endloop
  endfacet
  facet normal 0 0.66913 -0.743145
    outer loop
      vertex 7.5 9.10101 -5.84196
      vertex 0.5 8.55725 -6.33156
      vertex 0.5 9.10101 -5.84196
    endloop
  endfacet
  facet normal 0 -0.309017 -0.951056
    outer loop
      vertex 0.5 -7.92358 -6.69741
      vertex 7.5 -7.22769 -6.92352
      vertex 7.5 -7.92358 -6.69741
    endloop
  endfacet
  facet normal -0 -0.309017 -0.951056
    outer loop
      vertex 7.5 -7.22769 -6.92352
      vertex 0.5 -7.92358 -6.69741
      vertex 0.5 -7.22769 -6.92352
    endloop
  endfacet
  facet normal 0 -0.499999 0.866026
    outer loop
      vertex 0.5 -7.92358 -0.302591
      vertex 7.5 -8.55725 -0.668441
      vertex 7.5 -7.92358 -0.302591
    endloop
  endfacet
  facet normal 0 -0.499999 0.866026
    outer loop
      vertex 7.5 -8.55725 -0.668441
      vertex 0.5 -7.92358 -0.302591
      vertex 0.5 -8.55725 -0.668441
    endloop
  endfacet
  facet normal 0 -0.809017 0.587785
    outer loop
      vertex 0.5 -9.53109 -1.75
      vertex 7.5 -9.10101 -1.15804
      vertex 0.5 -9.10101 -1.15804
    endloop
  endfacet
  facet normal 0 -0.809017 0.587785
    outer loop
      vertex 7.5 -9.10101 -1.15804
      vertex 0.5 -9.53109 -1.75
      vertex 7.5 -9.53109 -1.75
    endloop
  endfacet
  facet normal 0 -1 0
    outer loop
      vertex 0.5 -9.98083 -3.86585
      vertex 7.5 -9.98083 -3.13415
      vertex 0.5 -9.98083 -3.13415
    endloop
  endfacet
  facet normal 0 -1 -0
    outer loop
      vertex 7.5 -9.98083 -3.13415
      vertex 0.5 -9.98083 -3.86585
      vertex 7.5 -9.98083 -3.86585
    endloop
  endfacet
  facet normal 0 -0.913546 0.406736
    outer loop
      vertex 0.5 -9.8287 -2.41844
      vertex 7.5 -9.53109 -1.75
      vertex 0.5 -9.53109 -1.75
    endloop
  endfacet
  facet normal 0 -0.913546 0.406736
    outer loop
      vertex 7.5 -9.53109 -1.75
      vertex 0.5 -9.8287 -2.41844
      vertex 7.5 -9.8287 -2.41844
    endloop
  endfacet
  facet normal 0 -0.978147 -0.207912
    outer loop
      vertex 0.5 -9.8287 -4.58156
      vertex 7.5 -9.98083 -3.86585
      vertex 0.5 -9.98083 -3.86585
    endloop
  endfacet
  facet normal 0 -0.978147 -0.207912
    outer loop
      vertex 7.5 -9.98083 -3.86585
      vertex 0.5 -9.8287 -4.58156
      vertex 7.5 -9.8287 -4.58156
    endloop
  endfacet
  facet normal 0 -0.809017 -0.587786
    outer loop
      vertex 0.5 -9.10101 -5.84196
      vertex 7.5 -9.53109 -5.25
      vertex 0.5 -9.53109 -5.25
    endloop
  endfacet
  facet normal 0 -0.809017 -0.587786
    outer loop
      vertex 7.5 -9.53109 -5.25
      vertex 0.5 -9.10101 -5.84196
      vertex 7.5 -9.10101 -5.84196
    endloop
  endfacet
  facet normal 0 -0.66913 0.743145
    outer loop
      vertex 0.5 -8.55725 -0.668441
      vertex 7.5 -9.10101 -1.15804
      vertex 7.5 -8.55725 -0.668441
    endloop
  endfacet
  facet normal 0 -0.66913 0.743145
    outer loop
      vertex 7.5 -9.10101 -1.15804
      vertex 0.5 -8.55725 -0.668441
      vertex 0.5 -9.10101 -1.15804
    endloop
  endfacet
  facet normal 0 -0.978147 0.207912
    outer loop
      vertex 0.5 -9.98083 -3.13415
      vertex 7.5 -9.8287 -2.41844
      vertex 0.5 -9.8287 -2.41844
    endloop
  endfacet
  facet normal 0 -0.978147 0.207912
    outer loop
      vertex 7.5 -9.8287 -2.41844
      vertex 0.5 -9.98083 -3.13415
      vertex 7.5 -9.98083 -3.13415
    endloop
  endfacet
  facet normal 0 -0.913546 -0.406736
    outer loop
      vertex 0.5 -9.53109 -5.25
      vertex 7.5 -9.8287 -4.58156
      vertex 0.5 -9.8287 -4.58156
    endloop
  endfacet
  facet normal 0 -0.913546 -0.406736
    outer loop
      vertex 7.5 -9.8287 -4.58156
      vertex 0.5 -9.53109 -5.25
      vertex 7.5 -9.53109 -5.25
    endloop
  endfacet
  facet normal 0 -0.499999 -0.866026
    outer loop
      vertex 0.5 -8.55725 -6.33156
      vertex 7.5 -7.92358 -6.69741
      vertex 7.5 -8.55725 -6.33156
    endloop
  endfacet
  facet normal -0 -0.499999 -0.866026
    outer loop
      vertex 7.5 -7.92358 -6.69741
      vertex 0.5 -8.55725 -6.33156
      vertex 0.5 -7.92358 -6.69741
    endloop
  endfacet
  facet normal -0.994522 -0.104529 0
    outer loop
      vertex 4 0 -7
      vertex 3.91259 0.831646 8.6877e-016
      vertex 3.91259 0.831646 -7
    endloop
  endfacet
  facet normal -0.994522 -0.104529 0
    outer loop
      vertex 3.91259 0.831646 8.6877e-016
      vertex 4 0 -7
      vertex 4 0 8.88178e-016
    endloop
  endfacet
  facet normal -0.207912 0.978148 0
    outer loop
      vertex 1.23607 -3.80423 -7
      vertex 0.5 -3.96068 1.11022e-016
      vertex 1.23607 -3.80423 2.74462e-016
    endloop
  endfacet
  facet normal -0.207912 0.978148 0
    outer loop
      vertex 0.5 -3.96068 1.11022e-016
      vertex 1.23607 -3.80423 -7
      vertex 0.5 -3.96068 -7
    endloop
  endfacet
  facet normal -0.866026 0.5 0
    outer loop
      vertex 3.23607 -2.35114 -7
      vertex 3.65418 -1.62695 8.11391e-016
      vertex 3.65418 -1.62695 -7
    endloop
  endfacet
  facet normal -0.866026 0.5 0
    outer loop
      vertex 3.65418 -1.62695 8.11391e-016
      vertex 3.23607 -2.35114 -7
      vertex 3.23607 -2.35114 7.18551e-016
    endloop
  endfacet
  facet normal -0.743145 -0.669131 0
    outer loop
      vertex 3.23607 2.35114 -7
      vertex 2.67652 2.97258 5.94307e-016
      vertex 2.67652 2.97258 -7
    endloop
  endfacet
  facet normal -0.743145 -0.669131 0
    outer loop
      vertex 2.67652 2.97258 5.94307e-016
      vertex 3.23607 2.35114 -7
      vertex 3.23607 2.35114 7.18551e-016
    endloop
  endfacet
  facet normal -0.866026 -0.5 0
    outer loop
      vertex 3.65418 1.62695 -7
      vertex 3.23607 2.35114 7.18551e-016
      vertex 3.23607 2.35114 -7
    endloop
  endfacet
  facet normal -0.866026 -0.5 0
    outer loop
      vertex 3.23607 2.35114 7.18551e-016
      vertex 3.65418 1.62695 -7
      vertex 3.65418 1.62695 8.11391e-016
    endloop
  endfacet
  facet normal -0.951057 0.309017 0
    outer loop
      vertex 3.65418 -1.62695 -7
      vertex 3.91259 -0.831646 8.6877e-016
      vertex 3.91259 -0.831646 -7
    endloop
  endfacet
  facet normal -0.951057 0.309017 0
    outer loop
      vertex 3.91259 -0.831646 8.6877e-016
      vertex 3.65418 -1.62695 -7
      vertex 3.65418 -1.62695 8.11391e-016
    endloop
  endfacet
  facet normal -0.951057 -0.309017 0
    outer loop
      vertex 3.91259 0.831646 -7
      vertex 3.65418 1.62695 8.11391e-016
      vertex 3.65418 1.62695 -7
    endloop
  endfacet
  facet normal -0.951057 -0.309017 0
    outer loop
      vertex 3.65418 1.62695 8.11391e-016
      vertex 3.91259 0.831646 -7
      vertex 3.91259 0.831646 8.6877e-016
    endloop
  endfacet
  facet normal -0.406737 -0.913545 0
    outer loop
      vertex 1.23607 3.80423 -7
      vertex 1.61803 3.63416 3.59276e-016
      vertex 1.23607 3.80423 2.74462e-016
    endloop
  endfacet
  facet normal -0.406737 -0.913545 2.8457e-009
    outer loop
      vertex 1.61803 3.63416 3.59276e-016
      vertex 1.23607 3.80423 -7
      vertex 1.88541 3.51512 -7
    endloop
  endfacet
  facet normal -0.587785 0.809017 0
    outer loop
      vertex 2.67652 -2.97258 -7
      vertex 2 -3.4641 4.44089e-016
      vertex 2.67652 -2.97258 5.94307e-016
    endloop
  endfacet
  facet normal -0.587785 0.809017 0
    outer loop
      vertex 2 -3.4641 4.44089e-016
      vertex 2.67652 -2.97258 -7
      vertex 2 -3.4641 -7
    endloop
  endfacet
  facet normal -0.743145 0.669131 0
    outer loop
      vertex 2.67652 -2.97258 -7
      vertex 3.23607 -2.35114 7.18551e-016
      vertex 3.23607 -2.35114 -7
    endloop
  endfacet
  facet normal -0.743145 0.669131 0
    outer loop
      vertex 3.23607 -2.35114 7.18551e-016
      vertex 2.67652 -2.97258 -7
      vertex 2.67652 -2.97258 5.94307e-016
    endloop
  endfacet
  facet normal -0.406737 0.913545 0
    outer loop
      vertex 2 -3.4641 -7
      vertex 1.23607 -3.80423 2.74462e-016
      vertex 2 -3.4641 4.44089e-016
    endloop
  endfacet
  facet normal -0.406737 0.913545 0
    outer loop
      vertex 1.23607 -3.80423 2.74462e-016
      vertex 2 -3.4641 -7
      vertex 1.23607 -3.80423 -7
    endloop
  endfacet
  facet normal -0.994522 0.104529 0
    outer loop
      vertex 3.91259 -0.831646 -7
      vertex 4 0 8.88178e-016
      vertex 4 0 -7
    endloop
  endfacet
  facet normal -0.994522 0.104529 0
    outer loop
      vertex 4 0 8.88178e-016
      vertex 3.91259 -0.831646 -7
      vertex 3.91259 -0.831646 8.6877e-016
    endloop
  endfacet
  facet normal -0.406738 -0.913545 -1.45571e-008
    outer loop
      vertex 1.88541 3.51512 -7
      vertex 2 3.4641 4.44089e-016
      vertex 1.61803 3.63416 3.59276e-016
    endloop
  endfacet
  facet normal -0.406737 -0.913545 -2.07801e-008
    outer loop
      vertex 2 3.4641 4.44089e-016
      vertex 1.88541 3.51512 -7
      vertex 2 3.4641 -7
    endloop
  endfacet
  facet normal -0.207912 -0.978148 0
    outer loop
      vertex 0.5 3.96068 -7
      vertex 1.23607 3.80423 2.74462e-016
      vertex 0.5 3.96068 1.11022e-016
    endloop
  endfacet
  facet normal -0.207912 -0.978148 -0
    outer loop
      vertex 1.23607 3.80423 2.74462e-016
      vertex 0.5 3.96068 -7
      vertex 1.23607 3.80423 -7
    endloop
  endfacet
  facet normal -0.587785 -0.809017 -3.00297e-008
    outer loop
      vertex 2.10148 3.39037 -7
      vertex 2 3.4641 4.44089e-016
      vertex 2 3.4641 -7
    endloop
  endfacet
  facet normal -0.587784 -0.809018 -2.25168e-008
    outer loop
      vertex 2 3.4641 4.44089e-016
      vertex 2.10148 3.39037 -7
      vertex 2.33826 3.21834 5.19198e-016
    endloop
  endfacet
  facet normal -0.587785 -0.809017 3.24176e-009
    outer loop
      vertex 2.67652 2.97258 -7
      vertex 2.33826 3.21834 5.19198e-016
      vertex 2.10148 3.39037 -7
    endloop
  endfacet
  facet normal -0.587785 -0.809017 0
    outer loop
      vertex 2.33826 3.21834 5.19198e-016
      vertex 2.67652 2.97258 -7
      vertex 2.67652 2.97258 5.94307e-016
    endloop
  endfacet
endsolid OpenSCAD_Model
