solid OpenSCAD_Model
  facet normal -0.970942 -0.239317 0
    outer loop
      vertex 8 12 1
      vertex 7.82818 12.6971 8.84887
      vertex 7.82818 12.6971 1
    endloop
  endfacet
  facet normal -0.970942 -0.239317 0
    outer loop
      vertex 7.82818 12.6971 8.84887
      vertex 8 12 1
      vertex 8 12 8.88461
    endloop
  endfacet
  facet normal 1 0 0
    outer loop
      vertex 5.04359 11.641 1
      vertex 5.04359 12.359 8.86621
      vertex 5.04359 11.641 8.90302
    endloop
  endfacet
  facet normal 1 0 0
    outer loop
      vertex 5.04359 12.359 8.86621
      vertex 5.04359 11.641 1
      vertex 5.04359 12.359 1
    endloop
  endfacet
  facet normal 0.120537 -0.992709 0
    outer loop
      vertex 5.96809 13.4025 1
      vertex 6.6808 13.4891 8.80825
      vertex 5.96809 13.4025 8.81269
    endloop
  endfacet
  facet normal 0.120537 -0.992709 0
    outer loop
      vertex 6.6808 13.4891 8.80825
      vertex 5.96809 13.4025 1
      vertex 6.6808 13.4891 1
    endloop
  endfacet
  facet normal -0.354606 0.935016 0
    outer loop
      vertex 6.6808 10.5109 1
      vertex 7.3521 10.7655 8.94792
      vertex 7.3521 10.7655 1
    endloop
  endfacet
  facet normal -0.354606 0.935016 0
    outer loop
      vertex 7.3521 10.7655 8.94792
      vertex 6.6808 10.5109 1
      vertex 6.6808 10.5109 8.96098
    endloop
  endfacet
  facet normal -0.354606 -0.935016 0
    outer loop
      vertex 7.3521 13.2345 1
      vertex 6.6808 13.4891 8.80825
      vertex 6.6808 13.4891 1
    endloop
  endfacet
  facet normal -0.354606 -0.935016 0
    outer loop
      vertex 6.6808 13.4891 8.80825
      vertex 7.3521 13.2345 1
      vertex 7.3521 13.2345 8.82131
    endloop
  endfacet
  facet normal -0.748511 -0.663123 0
    outer loop
      vertex 7.82818 12.6971 1
      vertex 7.3521 13.2345 8.82131
      vertex 7.3521 13.2345 1
    endloop
  endfacet
  facet normal -0.748511 -0.663123 0
    outer loop
      vertex 7.3521 13.2345 8.82131
      vertex 7.82818 12.6971 1
      vertex 7.82818 12.6971 8.84887
    endloop
  endfacet
  facet normal 0.885456 -0.464723 0
    outer loop
      vertex 5.04359 12.359 1
      vertex 5.37723 12.9947 8.83361
      vertex 5.04359 12.359 8.86621
    endloop
  endfacet
  facet normal 0.885456 -0.464723 0
    outer loop
      vertex 5.37723 12.9947 8.83361
      vertex 5.04359 12.359 1
      vertex 5.37723 12.9947 1
    endloop
  endfacet
  facet normal 0.568065 -0.822983 0
    outer loop
      vertex 5.37723 12.9947 1
      vertex 5.96809 13.4025 8.81269
      vertex 5.37723 12.9947 8.83361
    endloop
  endfacet
  facet normal 0.568065 -0.822983 0
    outer loop
      vertex 5.96809 13.4025 8.81269
      vertex 5.37723 12.9947 1
      vertex 5.96809 13.4025 1
    endloop
  endfacet
  facet normal 0.120537 0.992709 -0
    outer loop
      vertex 6.6808 10.5109 1
      vertex 5.96809 10.5975 8.95654
      vertex 6.6808 10.5109 8.96098
    endloop
  endfacet
  facet normal 0.120537 0.992709 0
    outer loop
      vertex 5.96809 10.5975 8.95654
      vertex 6.6808 10.5109 1
      vertex 5.96809 10.5975 1
    endloop
  endfacet
  facet normal 0.885456 0.464723 -0
    outer loop
      vertex 5.37723 11.0053 1
      vertex 5.04359 11.641 8.90302
      vertex 5.37723 11.0053 8.93563
    endloop
  endfacet
  facet normal 0.885456 0.464723 0
    outer loop
      vertex 5.04359 11.641 8.90302
      vertex 5.37723 11.0053 1
      vertex 5.04359 11.641 1
    endloop
  endfacet
  facet normal -0.748511 0.663123 0
    outer loop
      vertex 7.3521 10.7655 1
      vertex 7.82818 11.3029 8.92036
      vertex 7.82818 11.3029 1
    endloop
  endfacet
  facet normal -0.748511 0.663123 0
    outer loop
      vertex 7.82818 11.3029 8.92036
      vertex 7.3521 10.7655 1
      vertex 7.3521 10.7655 8.94792
    endloop
  endfacet
  facet normal -0.970942 0.239317 0
    outer loop
      vertex 7.82818 11.3029 1
      vertex 8 12 8.88461
      vertex 8 12 1
    endloop
  endfacet
  facet normal -0.970942 0.239317 0
    outer loop
      vertex 8 12 8.88461
      vertex 7.82818 11.3029 1
      vertex 7.82818 11.3029 8.92036
    endloop
  endfacet
  facet normal 0.568065 0.822983 -0
    outer loop
      vertex 5.96809 10.5975 1
      vertex 5.37723 11.0053 8.93563
      vertex 5.96809 10.5975 8.95654
    endloop
  endfacet
  facet normal 0.568065 0.822983 0
    outer loop
      vertex 5.37723 11.0053 8.93563
      vertex 5.96809 10.5975 1
      vertex 5.37723 11.0053 1
    endloop
  endfacet
  facet normal 0.970942 -0.239317 0
    outer loop
      vertex -8 12 1
      vertex -7.82818 12.6971 8.84887
      vertex -8 12 8.88461
    endloop
  endfacet
  facet normal 0.970942 -0.239317 0
    outer loop
      vertex -7.82818 12.6971 8.84887
      vertex -8 12 1
      vertex -7.82818 12.6971 1
    endloop
  endfacet
  facet normal -0.568065 0.822983 0
    outer loop
      vertex -5.96809 10.5975 1
      vertex -5.37723 11.0053 8.93563
      vertex -5.37723 11.0053 1
    endloop
  endfacet
  facet normal -0.568065 0.822983 0
    outer loop
      vertex -5.37723 11.0053 8.93563
      vertex -5.96809 10.5975 1
      vertex -5.96809 10.5975 8.95654
    endloop
  endfacet
  facet normal 0.970942 0.239317 -0
    outer loop
      vertex -7.82818 11.3029 1
      vertex -8 12 8.88461
      vertex -7.82818 11.3029 8.92036
    endloop
  endfacet
  facet normal 0.970942 0.239317 0
    outer loop
      vertex -8 12 8.88461
      vertex -7.82818 11.3029 1
      vertex -8 12 1
    endloop
  endfacet
  facet normal 0.354606 0.935016 -0
    outer loop
      vertex -6.6808 10.5109 1
      vertex -7.3521 10.7655 8.94792
      vertex -6.6808 10.5109 8.96098
    endloop
  endfacet
  facet normal 0.354606 0.935016 0
    outer loop
      vertex -7.3521 10.7655 8.94792
      vertex -6.6808 10.5109 1
      vertex -7.3521 10.7655 1
    endloop
  endfacet
  facet normal 0.748511 -0.663123 0
    outer loop
      vertex -7.82818 12.6971 1
      vertex -7.3521 13.2345 8.82131
      vertex -7.82818 12.6971 8.84887
    endloop
  endfacet
  facet normal 0.748511 -0.663123 0
    outer loop
      vertex -7.3521 13.2345 8.82131
      vertex -7.82818 12.6971 1
      vertex -7.3521 13.2345 1
    endloop
  endfacet
  facet normal -0.568065 -0.822983 0
    outer loop
      vertex -5.37723 12.9947 1
      vertex -5.96809 13.4025 8.81269
      vertex -5.96809 13.4025 1
    endloop
  endfacet
  facet normal -0.568065 -0.822983 0
    outer loop
      vertex -5.96809 13.4025 8.81269
      vertex -5.37723 12.9947 1
      vertex -5.37723 12.9947 8.83361
    endloop
  endfacet
  facet normal 0.354606 -0.935016 0
    outer loop
      vertex -7.3521 13.2345 1
      vertex -6.6808 13.4891 8.80825
      vertex -7.3521 13.2345 8.82131
    endloop
  endfacet
  facet normal 0.354606 -0.935016 0
    outer loop
      vertex -6.6808 13.4891 8.80825
      vertex -7.3521 13.2345 1
      vertex -6.6808 13.4891 1
    endloop
  endfacet
  facet normal -0.120537 -0.992709 0
    outer loop
      vertex -6.6808 13.4891 1
      vertex -5.96809 13.4025 8.81269
      vertex -6.6808 13.4891 8.80825
    endloop
  endfacet
  facet normal -0.120537 -0.992709 -0
    outer loop
      vertex -5.96809 13.4025 8.81269
      vertex -6.6808 13.4891 1
      vertex -5.96809 13.4025 1
    endloop
  endfacet
  facet normal -1 0 0
    outer loop
      vertex -5.04359 11.641 1
      vertex -5.04359 12.359 8.86621
      vertex -5.04359 12.359 1
    endloop
  endfacet
  facet normal -1 -0 0
    outer loop
      vertex -5.04359 12.359 8.86621
      vertex -5.04359 11.641 1
      vertex -5.04359 11.641 8.90302
    endloop
  endfacet
  facet normal -0.120537 0.992709 0
    outer loop
      vertex -5.96809 10.5975 1
      vertex -6.6808 10.5109 8.96098
      vertex -5.96809 10.5975 8.95654
    endloop
  endfacet
  facet normal -0.120537 0.992709 0
    outer loop
      vertex -6.6808 10.5109 8.96098
      vertex -5.96809 10.5975 1
      vertex -6.6808 10.5109 1
    endloop
  endfacet
  facet normal 0.748511 0.663123 -0
    outer loop
      vertex -7.3521 10.7655 1
      vertex -7.82818 11.3029 8.92036
      vertex -7.3521 10.7655 8.94792
    endloop
  endfacet
  facet normal 0.748511 0.663123 0
    outer loop
      vertex -7.82818 11.3029 8.92036
      vertex -7.3521 10.7655 1
      vertex -7.82818 11.3029 1
    endloop
  endfacet
  facet normal -0.885456 -0.464723 0
    outer loop
      vertex -5.04359 12.359 1
      vertex -5.37723 12.9947 8.83361
      vertex -5.37723 12.9947 1
    endloop
  endfacet
  facet normal -0.885456 -0.464723 0
    outer loop
      vertex -5.37723 12.9947 8.83361
      vertex -5.04359 12.359 1
      vertex -5.04359 12.359 8.86621
    endloop
  endfacet
  facet normal -0.885456 0.464723 0
    outer loop
      vertex -5.37723 11.0053 1
      vertex -5.04359 11.641 8.90302
      vertex -5.04359 11.641 1
    endloop
  endfacet
  facet normal -0.885456 0.464723 0
    outer loop
      vertex -5.04359 11.641 8.90302
      vertex -5.37723 11.0053 1
      vertex -5.37723 11.0053 8.93563
    endloop
  endfacet
  facet normal -2.17115e-007 0.0512144 0.998688
    outer loop
      vertex 6.74359 5 9.24359
      vertex -5.37723 12.9947 8.83361
      vertex -5.04359 12.359 8.86621
    endloop
  endfacet
  facet normal -1.78682e-008 0.0512147 0.998688
    outer loop
      vertex -8.5 19.5 8.5
      vertex -5.37723 12.9947 8.83361
      vertex 6.74359 5 9.24359
    endloop
  endfacet
  facet normal -1.60283e-006 0.0512146 0.998688
    outer loop
      vertex -7.82818 12.6971 8.84887
      vertex -8.5 19.5 8.5
      vertex -8 12 8.88461
    endloop
  endfacet
  facet normal -3.15766e-007 0.0512147 0.998688
    outer loop
      vertex -7.3521 13.2345 8.82131
      vertex -8.5 19.5 8.5
      vertex -7.82818 12.6971 8.84887
    endloop
  endfacet
  facet normal -6.91084e-009 0.0512148 0.998688
    outer loop
      vertex -6.6808 13.4891 8.80825
      vertex -8.5 19.5 8.5
      vertex -7.3521 13.2345 8.82131
    endloop
  endfacet
  facet normal 6.78433e-007 0.051215 0.998688
    outer loop
      vertex -5.96809 13.4025 8.81269
      vertex -8.5 19.5 8.5
      vertex -6.6808 13.4891 8.80825
    endloop
  endfacet
  facet normal -3.43941e-007 0.0512146 0.998688
    outer loop
      vertex -5.37723 12.9947 8.83361
      vertex -8.5 19.5 8.5
      vertex -5.96809 13.4025 8.81269
    endloop
  endfacet
  facet normal -1.71963e-007 0.0512145 0.998688
    outer loop
      vertex -5.04359 11.641 8.90302
      vertex 6.74359 5 9.24359
      vertex -5.04359 12.359 8.86621
    endloop
  endfacet
  facet normal 5.36848e-007 0.0512157 0.998688
    outer loop
      vertex -5.37723 11.0053 8.93563
      vertex 6.74359 5 9.24359
      vertex -5.04359 11.641 8.90302
    endloop
  endfacet
  facet normal -5.59052e-007 0.0512135 0.998688
    outer loop
      vertex -5.96809 10.5975 8.95654
      vertex 6.74359 5 9.24359
      vertex -5.37723 11.0053 8.93563
    endloop
  endfacet
  facet normal 7.65234e-007 0.0512141 0.998688
    outer loop
      vertex -11.1026 5 9.24359
      vertex -5.96809 10.5975 8.95654
      vertex -6.6808 10.5109 8.96098
    endloop
  endfacet
  facet normal -1.28852e-008 0.0512147 0.998688
    outer loop
      vertex -11.1026 5 9.24359
      vertex -6.6808 10.5109 8.96098
      vertex -7.3521 10.7655 8.94792
    endloop
  endfacet
  facet normal 0 0.0512148 0.998688
    outer loop
      vertex -5.96809 10.5975 8.95654
      vertex -11.1026 5 9.24359
      vertex 6.74359 5 9.24359
    endloop
  endfacet
  facet normal 1.79475e-007 0.0512146 0.998688
    outer loop
      vertex -7.82818 11.3029 8.92036
      vertex -11.1026 5 9.24359
      vertex -7.3521 10.7655 8.94792
    endloop
  endfacet
  facet normal -1.04645e-006 0.0512152 0.998688
    outer loop
      vertex -8 12 8.88461
      vertex -11.1026 5 9.24359
      vertex -7.82818 11.3029 8.92036
    endloop
  endfacet
  facet normal 1.42316e-007 0.0512147 0.998688
    outer loop
      vertex -11.1026 5 9.24359
      vertex -8 12 8.88461
      vertex -8.5 19.5 8.5
    endloop
  endfacet
  facet normal 1.60283e-006 0.0512146 0.998688
    outer loop
      vertex 8.5 19.5 8.5
      vertex 7.82818 12.6971 8.84887
      vertex 8 12 8.88461
    endloop
  endfacet
  facet normal 3.15766e-007 0.0512147 0.998688
    outer loop
      vertex 8.5 19.5 8.5
      vertex 7.3521 13.2345 8.82131
      vertex 7.82818 12.6971 8.84887
    endloop
  endfacet
  facet normal 6.91084e-009 0.0512148 0.998688
    outer loop
      vertex 8.5 19.5 8.5
      vertex 6.6808 13.4891 8.80825
      vertex 7.3521 13.2345 8.82131
    endloop
  endfacet
  facet normal -6.78433e-007 0.051215 0.998688
    outer loop
      vertex 8.5 19.5 8.5
      vertex 5.96809 13.4025 8.81269
      vertex 6.6808 13.4891 8.80825
    endloop
  endfacet
  facet normal 3.43941e-007 0.0512146 0.998688
    outer loop
      vertex 8.5 19.5 8.5
      vertex 5.37723 12.9947 8.83361
      vertex 5.96809 13.4025 8.81269
    endloop
  endfacet
  facet normal -0 0.0512147 0.998688
    outer loop
      vertex -8.5 19.5 8.5
      vertex 5.37723 12.9947 8.83361
      vertex 8.5 19.5 8.5
    endloop
  endfacet
  facet normal 5.83031e-007 0.0512158 0.998688
    outer loop
      vertex 5.04359 12.359 8.86621
      vertex -8.5 19.5 8.5
      vertex 5.04359 11.641 8.90302
    endloop
  endfacet
  facet normal -7.40039e-008 0.0512146 0.998688
    outer loop
      vertex 5.37723 12.9947 8.83361
      vertex -8.5 19.5 8.5
      vertex 5.04359 12.359 8.86621
    endloop
  endfacet
  facet normal -1.42316e-007 0.0512147 0.998688
    outer loop
      vertex 8 12 8.88461
      vertex 11.1026 5 9.24359
      vertex 8.5 19.5 8.5
    endloop
  endfacet
  facet normal 1.04645e-006 0.0512152 0.998688
    outer loop
      vertex 7.82818 11.3029 8.92036
      vertex 11.1026 5 9.24359
      vertex 8 12 8.88461
    endloop
  endfacet
  facet normal -1.79475e-007 0.0512146 0.998688
    outer loop
      vertex 7.3521 10.7655 8.94792
      vertex 11.1026 5 9.24359
      vertex 7.82818 11.3029 8.92036
    endloop
  endfacet
  facet normal 0 0.0512147 0.998688
    outer loop
      vertex 7.3521 10.7655 8.94792
      vertex 6.74359 5 9.24359
      vertex 11.1026 5 9.24359
    endloop
  endfacet
  facet normal 1.67338e-008 0.0512147 0.998688
    outer loop
      vertex 6.6808 10.5109 8.96098
      vertex 6.74359 5 9.24359
      vertex 7.3521 10.7655 8.94792
    endloop
  endfacet
  facet normal 6.46549e-007 0.0512147 0.998688
    outer loop
      vertex 5.96809 10.5975 8.95654
      vertex 6.74359 5 9.24359
      vertex 6.6808 10.5109 8.96098
    endloop
  endfacet
  facet normal -3.25078e-007 0.0512146 0.998688
    outer loop
      vertex 5.37723 11.0053 8.93563
      vertex 6.74359 5 9.24359
      vertex 5.96809 10.5975 8.95654
    endloop
  endfacet
  facet normal 4.46981e-007 0.0512148 0.998688
    outer loop
      vertex 5.04359 11.641 8.90302
      vertex 6.74359 5 9.24359
      vertex 5.37723 11.0053 8.93563
    endloop
  endfacet
  facet normal -1.09066e-007 0.0512146 0.998688
    outer loop
      vertex 6.74359 5 9.24359
      vertex 5.04359 11.641 8.90302
      vertex -8.5 19.5 8.5
    endloop
  endfacet
  facet normal 0 1 0
    outer loop
      vertex 8.5 19.5 8.5
      vertex 0.418114 19.5 3.97809
      vertex -8.5 19.5 8.5
    endloop
  endfacet
  facet normal 0 1 0
    outer loop
      vertex 8.5 19.5 8.5
      vertex 1.23607 19.5 3.80423
      vertex 0.418114 19.5 3.97809
    endloop
  endfacet
  facet normal 0 1 0
    outer loop
      vertex 8.5 19.5 8.5
      vertex 2 19.5 3.4641
      vertex 1.23607 19.5 3.80423
    endloop
  endfacet
  facet normal 0 1 0
    outer loop
      vertex 8.5 19.5 8.5
      vertex 2.67652 19.5 2.97258
      vertex 2 19.5 3.4641
    endloop
  endfacet
  facet normal 0 1 0
    outer loop
      vertex 8.5 19.5 8.5
      vertex 3.23607 19.5 2.35114
      vertex 2.67652 19.5 2.97258
    endloop
  endfacet
  facet normal 0 1 -0
    outer loop
      vertex 8.5 19.5 1
      vertex 3.23607 19.5 2.35114
      vertex 8.5 19.5 8.5
    endloop
  endfacet
  facet normal 0 1 0
    outer loop
      vertex 3.23607 19.5 2.35114
      vertex 8.5 19.5 1
      vertex 3.65418 19.5 1.62695
    endloop
  endfacet
  facet normal 0 1 0
    outer loop
      vertex 3.65418 19.5 1.62695
      vertex 8.5 19.5 1
      vertex 3.85789 19.5 1
    endloop
  endfacet
  facet normal 0 1 -0
    outer loop
      vertex -0.418114 19.5 3.97809
      vertex -8.5 19.5 8.5
      vertex 0.418114 19.5 3.97809
    endloop
  endfacet
  facet normal 0 1 -0
    outer loop
      vertex -1.23607 19.5 3.80423
      vertex -8.5 19.5 8.5
      vertex -0.418114 19.5 3.97809
    endloop
  endfacet
  facet normal 0 1 -0
    outer loop
      vertex -2 19.5 3.4641
      vertex -8.5 19.5 8.5
      vertex -1.23607 19.5 3.80423
    endloop
  endfacet
  facet normal 0 1 -0
    outer loop
      vertex -2.67652 19.5 2.97258
      vertex -8.5 19.5 8.5
      vertex -2 19.5 3.4641
    endloop
  endfacet
  facet normal 0 1 -0
    outer loop
      vertex -3.23607 19.5 2.35114
      vertex -8.5 19.5 8.5
      vertex -2.67652 19.5 2.97258
    endloop
  endfacet
  facet normal 0 1 0
    outer loop
      vertex -8.5 19.5 1
      vertex -3.23607 19.5 2.35114
      vertex -3.65418 19.5 1.62695
    endloop
  endfacet
  facet normal 0 1 0
    outer loop
      vertex -8.5 19.5 1
      vertex -3.65418 19.5 1.62695
      vertex -3.85789 19.5 1
    endloop
  endfacet
  facet normal 0 1 0
    outer loop
      vertex -3.23607 19.5 2.35114
      vertex -8.5 19.5 1
      vertex -8.5 19.5 8.5
    endloop
  endfacet
  facet normal -0.944391 0.328825 0
    outer loop
      vertex -8.5 19.5 1
      vertex -11.9967 9.4573 1
      vertex -8.5 19.5 8.5
    endloop
  endfacet
  facet normal 0.955911 0.28724 0.061055
    outer loop
      vertex 12 9.03504 2.93566
      vertex 11.9967 9.4573 1
      vertex 8.5 19.5 8.5
    endloop
  endfacet
  facet normal 0.955919 0.287213 0.0610492
    outer loop
      vertex 11.9967 9.4573 1
      vertex 12 9.03504 2.93566
      vertex 12 9.44647 1
    endloop
  endfacet
  facet normal 0.942992 0.222697 0.24733
    outer loop
      vertex 12 7.05988 6.35674
      vertex 8.5 19.5 8.5
      vertex 12 5.58396 7.68566
    endloop
  endfacet
  facet normal -0.942992 0.222697 0.24733
    outer loop
      vertex -12 7.05988 6.35674
      vertex -12 5.58396 7.68566
      vertex -8.5 19.5 8.5
    endloop
  endfacet
  facet normal 0.909618 0.207722 0.359786
    outer loop
      vertex 11.7457 5 8.6657
      vertex 12 5.58396 7.68566
      vertex 8.5 19.5 8.5
    endloop
  endfacet
  facet normal 0.909618 0.207722 0.359786
    outer loop
      vertex 12 5.58396 7.68566
      vertex 11.7457 5 8.6657
      vertex 12 5 8.02281
    endloop
  endfacet
  facet normal 0.955406 0.238898 0.173569
    outer loop
      vertex 12 8.22724 4.75
      vertex 8.5 19.5 8.5
      vertex 12 7.05988 6.35674
    endloop
  endfacet
  facet normal -0.95887 0.259307 0.115451
    outer loop
      vertex -12 9.03504 2.93566
      vertex -12 8.22724 4.75
      vertex -8.5 19.5 8.5
    endloop
  endfacet
  facet normal -0.799702 0.185533 0.571011
    outer loop
      vertex -8.5 19.5 8.5
      vertex -11.7457 5 8.6657
      vertex -11.3959 5 9.15563
    endloop
  endfacet
  facet normal 0.799702 0.185532 0.571011
    outer loop
      vertex 11.7457 5 8.6657
      vertex 8.5 19.5 8.5
      vertex 11.3959 5 9.15563
    endloop
  endfacet
  facet normal 0.285789 0.100169 0.953043
    outer loop
      vertex 11.3959 5 9.15563
      vertex 8.5 19.5 8.5
      vertex 11.1026 5 9.24359
    endloop
  endfacet
  facet normal 0.95887 0.259307 0.115451
    outer loop
      vertex 12 9.03504 2.93566
      vertex 8.5 19.5 8.5
      vertex 12 8.22724 4.75
    endloop
  endfacet
  facet normal 0.944391 0.328825 0
    outer loop
      vertex 11.9967 9.4573 1
      vertex 8.5 19.5 1
      vertex 8.5 19.5 8.5
    endloop
  endfacet
  facet normal -0.955919 0.287213 0.0610492
    outer loop
      vertex -12 9.03504 2.93566
      vertex -11.9967 9.4573 1
      vertex -12 9.44647 1
    endloop
  endfacet
  facet normal -0.955911 0.28724 0.061055
    outer loop
      vertex -11.9967 9.4573 1
      vertex -12 9.03504 2.93566
      vertex -8.5 19.5 8.5
    endloop
  endfacet
  facet normal -0.955406 0.238898 0.173569
    outer loop
      vertex -12 8.22724 4.75
      vertex -12 7.05988 6.35674
      vertex -8.5 19.5 8.5
    endloop
  endfacet
  facet normal -0.909618 0.207722 0.359786
    outer loop
      vertex -11.7457 5 8.6657
      vertex -12 5.58396 7.68566
      vertex -12 5 8.02281
    endloop
  endfacet
  facet normal -0.909618 0.207723 0.359786
    outer loop
      vertex -12 5.58396 7.68566
      vertex -11.7457 5 8.6657
      vertex -8.5 19.5 8.5
    endloop
  endfacet
  facet normal -0.285788 0.100169 0.953043
    outer loop
      vertex -8.5 19.5 8.5
      vertex -11.3959 5 9.15563
      vertex -11.1026 5 9.24359
    endloop
  endfacet
  facet normal 0 0 -1
    outer loop
      vertex -0.418114 9.5 3.97809
      vertex 0.418114 19.5 3.97809
      vertex 0.418114 9.5 3.97809
    endloop
  endfacet
  facet normal -0 0 -1
    outer loop
      vertex 0.418114 19.5 3.97809
      vertex -0.418114 9.5 3.97809
      vertex -0.418114 19.5 3.97809
    endloop
  endfacet
  facet normal -0.951057 0 -0.309017
    outer loop
      vertex 3.85789 9.5 1
      vertex 3.65418 19.5 1.62695
      vertex 3.85789 19.5 1
    endloop
  endfacet
  facet normal -0.951057 -0 -0.309017
    outer loop
      vertex 3.65418 19.5 1.62695
      vertex 3.85789 9.5 1
      vertex 3.65418 9.5 1.62695
    endloop
  endfacet
  facet normal 0 1 0
    outer loop
      vertex 1.23607 9.5 3.80423
      vertex -0.418114 9.5 3.97809
      vertex 0.418114 9.5 3.97809
    endloop
  endfacet
  facet normal 0 1 0
    outer loop
      vertex 1.23607 9.5 3.80423
      vertex -1.23607 9.5 3.80423
      vertex -0.418114 9.5 3.97809
    endloop
  endfacet
  facet normal 0 1 0
    outer loop
      vertex 2 9.5 3.4641
      vertex -1.23607 9.5 3.80423
      vertex 1.23607 9.5 3.80423
    endloop
  endfacet
  facet normal 0 1 0
    outer loop
      vertex 2 9.5 3.4641
      vertex -2 9.5 3.4641
      vertex -1.23607 9.5 3.80423
    endloop
  endfacet
  facet normal 0 1 0
    outer loop
      vertex 2.67652 9.5 2.97258
      vertex -2 9.5 3.4641
      vertex 2 9.5 3.4641
    endloop
  endfacet
  facet normal 0 1 0
    outer loop
      vertex 2.67652 9.5 2.97258
      vertex -2.67652 9.5 2.97258
      vertex -2 9.5 3.4641
    endloop
  endfacet
  facet normal 0 1 0
    outer loop
      vertex 3.23607 9.5 2.35114
      vertex -2.67652 9.5 2.97258
      vertex 2.67652 9.5 2.97258
    endloop
  endfacet
  facet normal 0 1 0
    outer loop
      vertex 3.23607 9.5 2.35114
      vertex -3.23607 9.5 2.35114
      vertex -2.67652 9.5 2.97258
    endloop
  endfacet
  facet normal 0 1 0
    outer loop
      vertex 3.85789 9.5 1
      vertex 3.23607 9.5 2.35114
      vertex 3.65418 9.5 1.62695
    endloop
  endfacet
  facet normal 0 1 0
    outer loop
      vertex 3.23607 9.5 2.35114
      vertex 3.85789 9.5 1
      vertex -3.23607 9.5 2.35114
    endloop
  endfacet
  facet normal 0 1 0
    outer loop
      vertex -3.85789 9.5 1
      vertex -3.23607 9.5 2.35114
      vertex 3.85789 9.5 1
    endloop
  endfacet
  facet normal 0 1 0
    outer loop
      vertex -3.23607 9.5 2.35114
      vertex -3.85789 9.5 1
      vertex -3.65418 9.5 1.62695
    endloop
  endfacet
  facet normal -0.207912 0 -0.978148
    outer loop
      vertex 0.418114 9.5 3.97809
      vertex 1.23607 19.5 3.80423
      vertex 1.23607 9.5 3.80423
    endloop
  endfacet
  facet normal -0.207912 0 -0.978148
    outer loop
      vertex 1.23607 19.5 3.80423
      vertex 0.418114 9.5 3.97809
      vertex 0.418114 19.5 3.97809
    endloop
  endfacet
  facet normal -0.866026 0 -0.5
    outer loop
      vertex 3.65418 9.5 1.62695
      vertex 3.23607 19.5 2.35114
      vertex 3.65418 19.5 1.62695
    endloop
  endfacet
  facet normal -0.866026 -0 -0.5
    outer loop
      vertex 3.23607 19.5 2.35114
      vertex 3.65418 9.5 1.62695
      vertex 3.23607 9.5 2.35114
    endloop
  endfacet
  facet normal 0.866026 0 -0.5
    outer loop
      vertex -3.23607 9.5 2.35114
      vertex -3.65418 19.5 1.62695
      vertex -3.23607 19.5 2.35114
    endloop
  endfacet
  facet normal 0.866026 0 -0.5
    outer loop
      vertex -3.65418 19.5 1.62695
      vertex -3.23607 9.5 2.35114
      vertex -3.65418 9.5 1.62695
    endloop
  endfacet
  facet normal -0.587785 0 -0.809017
    outer loop
      vertex 2 9.5 3.4641
      vertex 2.67652 19.5 2.97258
      vertex 2.67652 9.5 2.97258
    endloop
  endfacet
  facet normal -0.587785 0 -0.809017
    outer loop
      vertex 2.67652 19.5 2.97258
      vertex 2 9.5 3.4641
      vertex 2 19.5 3.4641
    endloop
  endfacet
  facet normal -0.406737 0 -0.913545
    outer loop
      vertex 1.23607 9.5 3.80423
      vertex 2 19.5 3.4641
      vertex 2 9.5 3.4641
    endloop
  endfacet
  facet normal -0.406737 0 -0.913545
    outer loop
      vertex 2 19.5 3.4641
      vertex 1.23607 9.5 3.80423
      vertex 1.23607 19.5 3.80423
    endloop
  endfacet
  facet normal 0.743145 0 -0.669131
    outer loop
      vertex -2.67652 9.5 2.97258
      vertex -3.23607 19.5 2.35114
      vertex -2.67652 19.5 2.97258
    endloop
  endfacet
  facet normal 0.743145 0 -0.669131
    outer loop
      vertex -3.23607 19.5 2.35114
      vertex -2.67652 9.5 2.97258
      vertex -3.23607 9.5 2.35114
    endloop
  endfacet
  facet normal 0.951057 0 -0.309017
    outer loop
      vertex -3.65418 9.5 1.62695
      vertex -3.85789 19.5 1
      vertex -3.65418 19.5 1.62695
    endloop
  endfacet
  facet normal 0.951057 0 -0.309017
    outer loop
      vertex -3.85789 19.5 1
      vertex -3.65418 9.5 1.62695
      vertex -3.85789 9.5 1
    endloop
  endfacet
  facet normal -0.743145 0 -0.669131
    outer loop
      vertex 3.23607 9.5 2.35114
      vertex 2.67652 19.5 2.97258
      vertex 3.23607 19.5 2.35114
    endloop
  endfacet
  facet normal -0.743145 -0 -0.669131
    outer loop
      vertex 2.67652 19.5 2.97258
      vertex 3.23607 9.5 2.35114
      vertex 2.67652 9.5 2.97258
    endloop
  endfacet
  facet normal 0.587785 0 -0.809017
    outer loop
      vertex -2.67652 9.5 2.97258
      vertex -2 19.5 3.4641
      vertex -2 9.5 3.4641
    endloop
  endfacet
  facet normal 0.587785 0 -0.809017
    outer loop
      vertex -2 19.5 3.4641
      vertex -2.67652 9.5 2.97258
      vertex -2.67652 19.5 2.97258
    endloop
  endfacet
  facet normal 0.406737 0 -0.913545
    outer loop
      vertex -2 9.5 3.4641
      vertex -1.23607 19.5 3.80423
      vertex -1.23607 9.5 3.80423
    endloop
  endfacet
  facet normal 0.406737 0 -0.913545
    outer loop
      vertex -1.23607 19.5 3.80423
      vertex -2 9.5 3.4641
      vertex -2 19.5 3.4641
    endloop
  endfacet
  facet normal 0.207912 0 -0.978148
    outer loop
      vertex -1.23607 9.5 3.80423
      vertex -0.418114 19.5 3.97809
      vertex -0.418114 9.5 3.97809
    endloop
  endfacet
  facet normal 0.207912 0 -0.978148
    outer loop
      vertex -0.418114 19.5 3.97809
      vertex -1.23607 9.5 3.80423
      vertex -1.23607 19.5 3.80423
    endloop
  endfacet
  facet normal 0 -0.669131 -0.743145
    outer loop
      vertex -12 5.58396 7.68566
      vertex 12 7.05988 6.35674
      vertex 12 5.58396 7.68566
    endloop
  endfacet
  facet normal -0 -0.669131 -0.743145
    outer loop
      vertex 12 7.05988 6.35674
      vertex -12 5.58396 7.68566
      vertex -12 7.05988 6.35674
    endloop
  endfacet
  facet normal 0 -0.499999 -0.866026
    outer loop
      vertex -12 5 8.02281
      vertex 12 5.58396 7.68566
      vertex 12 5 8.02281
    endloop
  endfacet
  facet normal -0 -0.499999 -0.866026
    outer loop
      vertex 12 5.58396 7.68566
      vertex -12 5 8.02281
      vertex -12 5.58396 7.68566
    endloop
  endfacet
  facet normal 1.61623e-008 -0.913545 -0.406737
    outer loop
      vertex -12 9.03504 2.93566
      vertex 12 8.22724 4.75
      vertex -12 8.22724 4.75
    endloop
  endfacet
  facet normal -0 -0.913545 -0.406737
    outer loop
      vertex 12 9.03504 2.93566
      vertex 12 8.22724 4.75
      vertex -12 9.03504 2.93566
    endloop
  endfacet
  facet normal 0 -0.978148 -0.207912
    outer loop
      vertex -12 9.44647 1
      vertex 12 9.03504 2.93566
      vertex -12 9.03504 2.93566
    endloop
  endfacet
  facet normal 0 -0.978148 -0.207912
    outer loop
      vertex 12 9.03504 2.93566
      vertex -12 9.44647 1
      vertex 12 9.44647 1
    endloop
  endfacet
  facet normal 0 -0.809017 -0.587785
    outer loop
      vertex 12 8.22724 4.75
      vertex 12 7.05988 6.35674
      vertex -12 7.05988 6.35674
    endloop
  endfacet
  facet normal 2.33565e-008 -0.809017 -0.587785
    outer loop
      vertex -12 8.22724 4.75
      vertex 12 8.22724 4.75
      vertex -12 7.05988 6.35674
    endloop
  endfacet
  facet normal 0 0 -1
    outer loop
      vertex 7.3521 10.7655 1
      vertex 11.9967 9.4573 1
      vertex 12 9.44647 1
    endloop
  endfacet
  facet normal 0 0 -1
    outer loop
      vertex 11.9967 9.4573 1
      vertex 8 12 1
      vertex 7.82818 12.6971 1
    endloop
  endfacet
  facet normal 0 0 -1
    outer loop
      vertex 11.9967 9.4573 1
      vertex 7.82818 11.3029 1
      vertex 8 12 1
    endloop
  endfacet
  facet normal 0 0 -1
    outer loop
      vertex 11.9967 9.4573 1
      vertex 7.3521 10.7655 1
      vertex 7.82818 11.3029 1
    endloop
  endfacet
  facet normal 0 0 -1
    outer loop
      vertex 12 9.44647 1
      vertex 6.6808 10.5109 1
      vertex 7.3521 10.7655 1
    endloop
  endfacet
  facet normal 0 0 -1
    outer loop
      vertex 3.85789 9.5 1
      vertex 6.6808 10.5109 1
      vertex 12 9.44647 1
    endloop
  endfacet
  facet normal -0 0 -1
    outer loop
      vertex 5.04359 11.641 1
      vertex 3.85789 9.5 1
      vertex 5.04359 12.359 1
    endloop
  endfacet
  facet normal -0 0 -1
    outer loop
      vertex 5.37723 11.0053 1
      vertex 3.85789 9.5 1
      vertex 5.04359 11.641 1
    endloop
  endfacet
  facet normal -0 0 -1
    outer loop
      vertex 5.96809 10.5975 1
      vertex 3.85789 9.5 1
      vertex 5.37723 11.0053 1
    endloop
  endfacet
  facet normal -0 0 -1
    outer loop
      vertex 6.6808 10.5109 1
      vertex 3.85789 9.5 1
      vertex 5.96809 10.5975 1
    endloop
  endfacet
  facet normal 0 0 -1
    outer loop
      vertex 12 9.44647 1
      vertex -3.85789 9.5 1
      vertex 3.85789 9.5 1
    endloop
  endfacet
  facet normal 0 0 -1
    outer loop
      vertex -5.04359 12.359 1
      vertex -3.85789 9.5 1
      vertex -5.04359 11.641 1
    endloop
  endfacet
  facet normal 0 0 -1
    outer loop
      vertex -3.85789 9.5 1
      vertex -5.37723 11.0053 1
      vertex -5.04359 11.641 1
    endloop
  endfacet
  facet normal 0 0 -1
    outer loop
      vertex -3.85789 9.5 1
      vertex -5.96809 10.5975 1
      vertex -5.37723 11.0053 1
    endloop
  endfacet
  facet normal 0 0 -1
    outer loop
      vertex -3.85789 9.5 1
      vertex -6.6808 10.5109 1
      vertex -5.96809 10.5975 1
    endloop
  endfacet
  facet normal -0 0 -1
    outer loop
      vertex -7.82818 12.6971 1
      vertex -11.9967 9.4573 1
      vertex -8.5 19.5 1
    endloop
  endfacet
  facet normal -0 0 -1
    outer loop
      vertex -7.82818 11.3029 1
      vertex -11.9967 9.4573 1
      vertex -8 12 1
    endloop
  endfacet
  facet normal -0 0 -1
    outer loop
      vertex -7.3521 10.7655 1
      vertex -11.9967 9.4573 1
      vertex -7.82818 11.3029 1
    endloop
  endfacet
  facet normal 0 0 -1
    outer loop
      vertex -12 9.44647 1
      vertex -7.3521 10.7655 1
      vertex -6.6808 10.5109 1
    endloop
  endfacet
  facet normal 0 0 -1
    outer loop
      vertex -12 9.44647 1
      vertex -6.6808 10.5109 1
      vertex -3.85789 9.5 1
    endloop
  endfacet
  facet normal 0 0 -1
    outer loop
      vertex -12 9.44647 1
      vertex -3.85789 9.5 1
      vertex 12 9.44647 1
    endloop
  endfacet
  facet normal 0 0 -1
    outer loop
      vertex -7.3521 10.7655 1
      vertex -12 9.44647 1
      vertex -11.9967 9.4573 1
    endloop
  endfacet
  facet normal 0 0 -1
    outer loop
      vertex 11.9967 9.4573 1
      vertex 7.82818 12.6971 1
      vertex 8.5 19.5 1
    endloop
  endfacet
  facet normal 0 0 -1
    outer loop
      vertex 7.3521 13.2345 1
      vertex 8.5 19.5 1
      vertex 7.82818 12.6971 1
    endloop
  endfacet
  facet normal 0 0 -1
    outer loop
      vertex 6.6808 13.4891 1
      vertex 8.5 19.5 1
      vertex 7.3521 13.2345 1
    endloop
  endfacet
  facet normal 0 0 -1
    outer loop
      vertex 3.85789 19.5 1
      vertex 6.6808 13.4891 1
      vertex 5.96809 13.4025 1
    endloop
  endfacet
  facet normal 0 0 -1
    outer loop
      vertex 3.85789 19.5 1
      vertex 5.96809 13.4025 1
      vertex 5.37723 12.9947 1
    endloop
  endfacet
  facet normal 0 0 -1
    outer loop
      vertex 3.85789 19.5 1
      vertex 5.37723 12.9947 1
      vertex 5.04359 12.359 1
    endloop
  endfacet
  facet normal 0 0 -1
    outer loop
      vertex 6.6808 13.4891 1
      vertex 3.85789 19.5 1
      vertex 8.5 19.5 1
    endloop
  endfacet
  facet normal 0 0 -1
    outer loop
      vertex 3.85789 19.5 1
      vertex 5.04359 12.359 1
      vertex 3.85789 9.5 1
    endloop
  endfacet
  facet normal 0 0 -1
    outer loop
      vertex -3.85789 9.5 1
      vertex -5.04359 12.359 1
      vertex -3.85789 19.5 1
    endloop
  endfacet
  facet normal 0 0 -1
    outer loop
      vertex -5.37723 12.9947 1
      vertex -3.85789 19.5 1
      vertex -5.04359 12.359 1
    endloop
  endfacet
  facet normal 0 0 -1
    outer loop
      vertex -5.96809 13.4025 1
      vertex -3.85789 19.5 1
      vertex -5.37723 12.9947 1
    endloop
  endfacet
  facet normal 0 0 -1
    outer loop
      vertex -6.6808 13.4891 1
      vertex -3.85789 19.5 1
      vertex -5.96809 13.4025 1
    endloop
  endfacet
  facet normal 0 0 -1
    outer loop
      vertex -8.5 19.5 1
      vertex -6.6808 13.4891 1
      vertex -7.3521 13.2345 1
    endloop
  endfacet
  facet normal 0 0 -1
    outer loop
      vertex -8.5 19.5 1
      vertex -7.3521 13.2345 1
      vertex -7.82818 12.6971 1
    endloop
  endfacet
  facet normal 0 0 -1
    outer loop
      vertex -6.6808 13.4891 1
      vertex -8.5 19.5 1
      vertex -3.85789 19.5 1
    endloop
  endfacet
  facet normal 0 0 -1
    outer loop
      vertex -11.9967 9.4573 1
      vertex -7.82818 12.6971 1
      vertex -8 12 1
    endloop
  endfacet
  facet normal 0 -1 0
    outer loop
      vertex -12 5 8.02281
      vertex 6.74359 5 9.24359
      vertex -11.1026 5 9.24359
    endloop
  endfacet
  facet normal 0 -1 0
    outer loop
      vertex -11.7457 5 8.6657
      vertex -11.1026 5 9.24359
      vertex -11.3959 5 9.15563
    endloop
  endfacet
  facet normal 0 -1 0
    outer loop
      vertex 12 5 8.02281
      vertex 6.74359 5 9.24359
      vertex -12 5 8.02281
    endloop
  endfacet
  facet normal 0 -1 0
    outer loop
      vertex -11.1026 5 9.24359
      vertex -11.7457 5 8.6657
      vertex -12 5 8.02281
    endloop
  endfacet
  facet normal 0 -1 0
    outer loop
      vertex 6.74359 5 9.24359
      vertex 12 5 8.02281
      vertex 11.1026 5 9.24359
    endloop
  endfacet
  facet normal -0 -1 -0
    outer loop
      vertex 11.7457 5 8.6657
      vertex 11.1026 5 9.24359
      vertex 12 5 8.02281
    endloop
  endfacet
  facet normal 0 -1 0
    outer loop
      vertex 11.1026 5 9.24359
      vertex 11.7457 5 8.6657
      vertex 11.3959 5 9.15563
    endloop
  endfacet
endsolid OpenSCAD_Model
